<svg width="32" height="33" viewBox="0 0 32 33" fill="none" xmlns="http://www.w3.org/2000/svg">
<path d="M27.6886 0H4.31304C1.9316 0 0.000976562 1.98021 0.000976562 4.423V28.4001C0.000976562 30.8429 1.93152 32.8231 4.31304 32.8231H15.8418L15.8614 21.0939H12.8906C12.5045 21.0939 12.1912 20.7737 12.1897 20.3777L12.1754 16.5969C12.1739 16.1987 12.4882 15.8751 12.8764 15.8751H15.8418V12.2219C15.8418 7.98235 18.3661 5.6739 22.0532 5.6739H25.0787C25.4658 5.6739 25.7797 5.9958 25.7797 6.39293V9.58093C25.7797 9.9779 25.4661 10.2997 25.0791 10.3L23.2224 10.3008C21.2173 10.3008 20.829 11.2782 20.829 12.7125V15.8752H25.235C25.6548 15.8752 25.9805 16.2512 25.9311 16.6788L25.4942 20.4596C25.4524 20.8214 25.1533 21.094 24.7981 21.094H20.8486L20.829 32.8232H27.6888C30.0702 32.8232 32.0007 30.843 32.0007 28.4003V4.423C32.0007 1.98021 30.0701 0 27.6886 0Z" fill="white"/>
</svg>
