<svg width="32" height="33" viewBox="0 0 32 33" fill="none" xmlns="http://www.w3.org/2000/svg">
<path d="M0 5.00596V27.8173C0 30.5832 2.18389 32.8232 4.8804 32.8232H27.1196C29.8161 32.8232 32 30.5832 32 27.8173V5.00596C32 2.24008 29.8161 0 27.1196 0H4.8804C2.18389 0 0 2.24008 0 5.00596ZM23.6366 17.8342C24.2475 18.4824 24.9006 19.0875 25.4905 19.7501C25.9188 20.2327 26.3191 20.7585 26.6561 21.3059C27.0845 22.0046 26.8176 22.6601 26.0171 22.7753C25.5115 22.8473 23.0397 22.7753 22.9133 22.7753C22.2462 22.7753 21.6634 22.5376 21.1999 22.0694C20.6803 21.5508 20.2028 20.989 19.7042 20.4488C19.5497 20.2831 19.3882 20.1319 19.2197 19.995C18.8124 19.6781 18.4051 19.7429 18.2155 20.2399C18.054 20.6649 17.9135 21.7813 17.9065 21.875C17.8714 22.372 17.5624 22.6889 17.0217 22.7177C15.4558 22.8041 13.932 22.6241 12.5205 21.8461C11.3197 21.1835 10.3647 20.2543 9.5361 19.1667C8.21593 17.438 7.17665 15.5437 6.22866 13.5917C6.1795 13.4909 5.21747 11.3877 5.18938 11.294C5.10511 10.9627 5.18236 10.6458 5.45622 10.5377C5.62475 10.4657 8.79877 10.5377 8.85495 10.5377C9.36054 10.5665 9.70463 10.7826 9.92232 11.3228C10.5262 12.857 11.2987 14.3048 12.3099 15.6085C12.4433 15.7814 12.6118 15.9326 12.7944 16.0623C13.0542 16.2424 13.3 16.1775 13.4053 15.875C13.5177 15.5509 13.623 14.9026 13.63 14.5713C13.6441 13.6926 13.63 13.1163 13.5809 12.2376C13.5528 11.6758 13.3562 11.1788 12.5486 11.0275C12.3028 10.9843 12.2747 10.7682 12.4363 10.5593C12.7663 10.12 13.2368 10.0551 13.7354 10.0263C14.5499 9.98311 15.3715 10.0191 16.1861 10.0263C16.5161 10.0263 16.8532 10.0551 17.1832 10.1272C17.6116 10.2208 17.8433 10.5305 17.9135 10.9555C17.9487 11.1788 17.9697 11.4021 17.9627 11.6253C17.9416 12.5833 17.8995 13.5485 17.8855 14.5065C17.8784 14.881 17.9065 15.27 17.9838 15.6373C18.0961 16.1487 18.4332 16.2784 18.7773 15.911C19.2197 15.4428 19.6059 14.9098 19.971 14.3768C20.6311 13.4044 21.1297 12.3312 21.551 11.2292C21.7687 10.6602 21.9443 10.5377 22.5411 10.5377C23.6647 10.5377 24.7882 10.5305 25.9118 10.5377C26.1084 10.5377 26.3191 10.5593 26.5087 10.617C26.8106 10.7178 26.937 10.9699 26.8668 11.294C26.6983 12.0503 26.298 12.6986 25.8696 13.318C25.1815 14.312 24.4652 15.2844 23.763 16.264C23.6717 16.3864 23.5945 16.5233 23.5172 16.6601C23.2363 17.1571 23.2504 17.4308 23.6366 17.8342Z" fill="white"/>
</svg>
