<svg width="1920" height="1083" viewBox="0 0 1920 1083" fill="none" xmlns="http://www.w3.org/2000/svg">
<path d="M1412.82 80.6754C1840.71 67.8857 1747.5 0.573985 1920 0.573975L1920 655.405H0V297.211C0 270.144 172.114 327.504 293.997 323.332C415.881 319.161 425.51 222.385 658.09 198.76C746.395 189.791 832.045 250.793 1008.7 236.102C1212.77 199.679 1146.27 92.9186 1412.82 80.6754Z" fill="#F8FBFF"/>
<path d="M1412.82 1002.1C1840.71 1014.89 1747.5 1082.2 1920 1082.2L1920 427.368H0V785.562C0 812.629 172.114 755.268 293.997 759.44C415.881 763.612 425.51 860.388 658.09 884.012C746.395 892.982 832.045 831.979 1008.7 846.671C1212.77 883.093 1146.27 989.854 1412.82 1002.1Z" fill="#F8FBFF"/>
</svg>
