<svg width="768" height="601" viewBox="0 0 768 601" fill="none" xmlns="http://www.w3.org/2000/svg">
<path d="M1074.29 172.648C1072.85 175.76 1071.45 177.594 1070.05 178.351L1024.85 239.157C957.808 241.099 996.496 339.441 807.214 391.673C746.489 408.43 687.059 481.894 626.492 499.27C547.833 521.837 484.303 481.805 377.87 499.27C271.436 516.735 236.841 591.508 114.951 599.766C-6.9395 608.025 -134 552.171 -134 552.171L-113.461 -178C-113.461 -178 470.262 -163.693 522.746 -106.385C575.23 -49.0774 612.07 -5.81544 711 -16.5C809.93 -27.1846 806.517 73.4082 996.496 77.6802C1042.11 78.7058 1055.62 186.189 1070.05 178.351L1074.29 172.648Z" fill="#0047B3"/>
<path d="M740.076 29.7024C711.344 27.6578 647.657 25.9206 628.225 17.5513C646.038 35.5865 702.492 37.3562 736.917 37.9428C783.418 38.7351 804.36 89.4062 847.014 107.942C885.637 124.727 953.239 130.106 953.239 130.106C953.239 130.106 888.348 115.771 849.725 98.9863C807.071 80.4501 786.466 33.0034 740.076 29.7024Z" fill="#2369D4"/>
<path d="M513.131 1.32855C498.944 -4.94064 487.117 -10.4375 444.403 -7.04554C468.711 -7.79574 500.508 2.59533 519.195 12.782C544.324 26.4799 573.344 44.6446 599.442 56.3816C639.422 74.3614 694.459 68.5896 694.459 68.5896C694.459 68.5896 635.078 70.5763 600.87 53.0634C575.398 40.0233 543.731 14.8509 513.131 1.32855Z" fill="#2369D4"/>
<path d="M642.356 475.556C628.526 482.578 608.755 481.446 565.921 480.355C590.234 479.798 630.031 478.411 648.144 467.235C672.5 452.206 691.898 421.811 717.328 408.688C756.283 388.586 801.705 370.78 801.705 370.78C801.705 370.78 753.093 394.633 719.875 413.958C695.141 428.348 672.185 460.409 642.356 475.556Z" fill="#2369D4"/>
</svg>
