<svg width="160" height="142" viewBox="0 0 160 142" fill="none" xmlns="http://www.w3.org/2000/svg">
<path d="M154.812 99.8613C139.647 129.503 110.327 136.636 77.6065 140.532C48.654 143.979 13.5813 137.775 1.7792 91.5893C-7.66765 54.6206 26.2048 -19.5018 57.6154 5.42207C121.035 55.7444 177.723 55.08 154.812 99.8613Z" fill="#0047B3"/>
<path d="M30.1001 39.4881C53.4838 37.6172 74.7878 44.965 81.8454 49.3094C93.5795 56.5327 102.332 59.4018 111.007 77.8372C118.49 93.7378 114.374 101.853 105.395 96.0767C111.776 104.648 103.525 113.381 96.5096 106.833C100.251 112.913 92.2931 120.763 85.7531 116.187L80.6087 111.51C84.8178 117.122 80.0923 123.19 72.4659 118.497C58.3586 109.816 35.7123 101.221 20.8571 86.5366C7.52531 73.3582 11.414 40.9832 30.1001 39.4881Z" fill="#FFAFAD"/>
<path d="M27.0291 100.169C27.0291 100.169 12.7679 97.3246 18.6056 89.2455C23.7531 82.1216 31.7087 92.5701 31.7087 92.5701C36.8561 91.6203 42.0039 92.0952 43.8755 98.7439C49.8952 98.8046 53.011 101.008 54.6385 107.293C57.4467 107.293 60.5563 108.911 60.7225 111.93L63.0623 113.355C58.8506 119.528 49.4356 115.857 49.023 115.366C42.4715 114.891 39.7922 112.02 37.7922 108.242C32.6443 108.242 30.0083 106.961 27.0291 100.169Z" fill="#FE8B87"/>
<path d="M69.2331 27.7961C86.5536 27.7962 104.343 40.4944 113.237 39.0835C122.132 37.6726 130.017 85.6608 126.345 86.1136C126.345 86.1136 120.727 90.8168 114.174 88.9356C112.977 88.5919 111.093 68.1727 94.0441 57.4253C84.8241 51.6131 80.0345 48.4298 69.2331 47.0787C57.469 45.6072 40.2091 54.1331 40.2091 54.1331C35.0598 56.955 29.9103 51.3114 35.0597 45.1973C35.0597 45.1973 51.9126 27.796 69.2331 27.7961Z" fill="#FE8B87"/>
<path d="M114.164 38.5592C120.846 33.5944 128.555 28.6651 137.438 27.7961C147.419 48.0366 150.865 59.7833 152.162 81.6116C141.974 85.1281 136.245 86.3405 126.039 86.7592C125.47 67.428 123.106 58.7246 114.164 38.5592Z" fill="#E82B37"/>
<path d="M34.2363 38.3121C27.7527 33.3218 19.5069 33.4335 10.8876 32.5601C-1.6174 56.3792 -0.426441 81.9848 0.591114 83.4666L23.1749 86.7592C23.7268 67.3289 25.5592 58.5809 34.2363 38.3121Z" fill="#F3F3F3"/>
</svg>
