<svg width="191" height="82" viewBox="0 0 191 82" fill="none" xmlns="http://www.w3.org/2000/svg">
<path d="M113.401 51.5231H77.8999C79.5656 56.2067 83.5668 58.5485 89.9007 58.5485C93.9671 58.5485 97.1655 57.2795 99.501 54.7336L111.502 61.6608C106.633 68.5555 99.3651 72 89.6997 72C81.3663 72 74.6332 69.4896 69.5007 64.4709C64.5013 59.4526 62 53.1298 62 45.5C62 38.0063 64.4657 31.7164 69.4004 26.6298C74.3998 21.5433 80.7991 19 88.6009 19C95.8656 19 101.901 21.5433 106.7 26.6298C111.567 31.5828 114 37.8702 114 45.5C114.001 47.6429 113.8 49.6496 113.401 51.5231ZM77.6013 40.2799H99.0996C97.6346 34.9948 94.1002 32.3507 88.5008 32.3507C82.7011 32.3507 79.066 34.9948 77.6013 40.2799Z" fill="white"/>
<path d="M144 34H161.521L171 21H153.474L144 34Z" fill="#FC336F"/>
<path d="M170 71H152.602L143.808 58.6075L135.015 71H117.617L135.111 46.4058L135.106 46.3987L117 21H134.398L143.803 34.1999L143.808 34.2069L143.813 34.1999L152.511 46.3987L152.506 46.4058L170 71Z" fill="white"/>
<path d="M53 45.7482C53 45.7472 52.9997 45.746 52.9997 45.7447V1H37.9415V23.2762C35.4967 20.8543 30.6168 19.4964 26.5 19.4964C11.8644 19.4964 0 31.2497 0 45.7482C0 60.2467 11.8644 72 26.5 72C31.2151 72 34.8286 70.8168 37.9415 68.2135V70.608H52.9997V45.7514C52.9997 45.7504 53 45.7492 53 45.7482ZM26.5 56.7969C20.3401 56.7969 15.3469 51.8501 15.3469 45.7482C15.3469 39.6463 20.3401 34.6995 26.5 34.6995C32.6596 34.6995 37.6531 39.6463 37.6531 45.7482C37.6531 51.8501 32.6596 56.7969 26.5 56.7969Z" fill="white"/>
</svg>
