<svg width="88" height="37" viewBox="0 0 88 37" fill="none" xmlns="http://www.w3.org/2000/svg">
<path d="M58.4567 25.7881H40.2389C41.0937 28.1475 43.147 29.3271 46.3973 29.3271C48.4839 29.3271 50.1252 28.6878 51.3237 27.4054L57.4821 30.895C54.9834 34.3682 51.254 36.1033 46.2941 36.1033C42.0177 36.1033 38.5626 34.8387 35.9288 32.3106C33.3633 29.7826 32.0797 26.5975 32.0797 22.7539C32.0797 18.979 33.345 15.8104 35.8773 13.2481C38.4428 10.6857 41.7267 9.40454 45.7302 9.40454C49.4582 9.40454 52.5555 10.6857 55.018 13.2481C57.5153 15.7431 58.764 18.9104 58.764 22.7539C58.7644 23.8334 58.6612 24.8443 58.4567 25.7881ZM40.0857 20.1243H51.1177C50.366 17.4619 48.5522 16.13 45.6789 16.13C42.7027 16.13 40.8373 17.4619 40.0857 20.1243Z" fill="white"/>
<path d="M73.901 16.7878H82.7259L87.5 10.1131H78.673L73.901 16.7878Z" fill="#FC336F"/>
<path d="M87.1866 35.3963H78.3596L73.8978 29.1299L69.4361 35.3963H60.6091L69.485 22.9599L69.4824 22.9563L60.2961 10.1131H69.1232L73.8951 16.7878L73.8978 16.7914L73.9004 16.7878L78.3132 22.9563L78.3106 22.9599L87.1866 35.3963Z" fill="white"/>
<path d="M27.7207 22.7551C27.7207 22.7546 27.7206 22.7539 27.7206 22.7533V0H20.0224V11.3278C18.7726 10.0962 16.2779 9.40566 14.1732 9.40566C6.69114 9.40566 0.625732 15.3824 0.625732 22.7551C0.625732 30.1277 6.69114 36.1044 14.1732 36.1044C16.5837 36.1044 18.431 35.5028 20.0224 34.179V35.3966H27.7206V22.7567C27.7206 22.7562 27.7207 22.7555 27.7207 22.7551ZM14.1732 28.3735C11.0241 28.3735 8.47146 25.858 8.47146 22.7551C8.47146 19.6521 11.0241 17.1367 14.1732 17.1367C17.3222 17.1367 19.875 19.6521 19.875 22.7551C19.875 25.858 17.3222 28.3735 14.1732 28.3735Z" fill="white"/>
</svg>
