<svg width="469" height="382" viewBox="0 0 469 382" fill="none" xmlns="http://www.w3.org/2000/svg">
<path d="M38.4241 334.931C1.79883 293.234 54.8295 224.628 157.981 187.134C157.981 187.134 135.892 177.687 142.874 167.541C148.883 158.808 160.184 144.856 227.535 141.075C298.034 137.117 325.818 157.556 337.061 167.541C347.147 176.499 315.316 187.134 315.316 187.134C397.299 201.163 518.665 325.236 406.998 348.009C356.536 358.3 286.596 352.771 286.596 352.771H197.959C197.959 352.771 65.8209 366.122 38.4241 334.931Z" fill="#FF1F1F"/>
<path d="M157.981 187.134C54.8295 224.628 1.79883 293.234 38.4241 334.931C65.8209 366.122 197.959 352.771 197.959 352.771H286.596C286.596 352.771 356.536 358.3 406.998 348.009C518.665 325.236 397.299 201.163 315.316 187.134M157.981 187.134C218.247 176.795 248.535 175.707 315.316 187.134M157.981 187.134C157.981 187.134 135.892 177.687 142.874 167.541C148.883 158.808 160.184 144.856 227.535 141.075C298.034 137.117 325.818 157.556 337.061 167.541C347.147 176.499 315.316 187.134 315.316 187.134M92.3717 294.545C128.28 291.425 148.37 296.075 184.128 313.591M380.671 298.898C356 296.212 342.204 297.657 317.69 307.061" stroke="#B9CBED" stroke-width="32.0281" stroke-linecap="round"/>
<path d="M301.415 93.9814C310.17 120.979 305.775 153.639 283.873 164.509C248.883 181.877 212.02 173.422 212.02 173.422C212.02 173.422 185.657 167.988 182.626 151.431C179.799 135.991 156.676 123.78 164.116 107.542C168.154 98.7269 148.321 84.9066 164.116 52.0287C168.408 43.3369 186.19 63.3116 196.746 58.3858C228.528 43.554 263.097 69.9432 262.853 78.3018C275.396 67.6768 296.331 78.3018 301.415 93.9814Z" fill="#3C55C5" stroke="#B9CBED" stroke-width="32.0281" stroke-linecap="round" stroke-linejoin="round"/>
<path d="M92.376 233.582C91.8466 228.991 95.4598 224.974 100.082 225.015L374.597 227.493C379.105 227.533 382.611 231.427 382.179 235.915L368.823 374.824C368.444 378.766 365.132 381.775 361.172 381.775H116.314C112.41 381.775 109.125 378.848 108.678 374.969L92.376 233.582Z" fill="#E5E5E5" stroke="#B9CBED" stroke-width="32.0281"/>
<path d="M28.225 333.572C-7.26745 293.164 44.123 226.68 144.084 190.346C144.084 190.346 122.678 181.192 129.444 171.359C135.267 162.896 146.219 149.375 211.487 145.711C279.806 141.876 306.73 161.683 317.625 171.359C327.399 180.04 296.553 190.346 296.553 190.346C376 203.941 493.612 324.176 385.399 346.245C336.498 356.219 268.721 350.86 268.721 350.86H182.826C182.826 350.86 54.7744 363.798 28.225 333.572Z" fill="#FF1F1F"/>
<path d="M144.084 190.346C44.123 226.68 -7.26745 293.164 28.225 333.572C54.7744 363.798 182.826 350.86 182.826 350.86H268.721C268.721 350.86 336.498 356.219 385.399 346.245C493.612 324.176 376 203.941 296.553 190.346M144.084 190.346C202.486 180.327 231.837 179.272 296.553 190.346M144.084 190.346C144.084 190.346 122.678 181.192 129.444 171.359C135.267 162.896 146.219 149.375 211.487 145.711C279.806 141.876 306.73 161.683 317.625 171.359C327.399 180.04 296.553 190.346 296.553 190.346M80.5041 294.435C115.302 291.411 134.771 295.917 169.423 312.892M359.886 298.653C335.978 296.051 322.609 297.451 298.854 306.564" stroke="white" stroke-width="32.0281" stroke-linecap="round"/>
<path d="M283.082 100.075C291.566 126.238 287.307 157.887 266.083 168.421C232.174 185.251 196.451 177.058 196.451 177.058C196.451 177.058 170.904 171.792 167.966 155.747C165.227 140.785 142.82 128.952 150.029 113.216C153.942 104.673 134.722 91.2805 150.029 59.4195C154.188 50.9965 171.421 70.3534 181.649 65.5799C212.449 51.2069 245.949 76.78 245.712 84.88C257.868 74.5836 278.154 84.88 283.082 100.075Z" fill="#3C55C5" stroke="white" stroke-width="32.0281" stroke-linecap="round" stroke-linejoin="round"/>
<path d="M80.5391 235.625C80.0097 231.034 83.6229 227.017 88.2446 227.058L353.741 229.454C358.249 229.495 361.755 233.389 361.323 237.876L348.426 372.016C348.047 375.958 344.735 378.967 340.774 378.967H103.918C100.013 378.967 96.729 376.04 96.2818 372.161L80.5391 235.625Z" fill="#C9D1DA" stroke="white" stroke-width="32.0281"/>
<path d="M28.225 332.642C-7.26745 292.235 44.123 225.751 144.084 189.417C144.084 189.417 122.678 181.192 129.444 171.36C135.267 162.896 146.219 149.376 211.487 145.712C279.806 141.877 306.73 161.684 317.625 171.36C327.399 180.04 298.854 190.289 298.854 190.289C378.301 203.884 494.131 324.573 385.918 346.642C337.017 356.615 268.721 350.861 268.721 350.861H182.826C182.826 350.861 54.7744 362.869 28.225 332.642Z" fill="#FF1F1F"/>
<path d="M283.082 100.075C291.566 126.238 287.307 157.887 266.082 168.421C232.174 185.251 196.451 177.058 196.451 177.058C196.451 177.058 170.904 171.792 167.966 155.747C165.227 140.785 142.819 128.952 150.029 113.216C153.942 104.673 134.722 91.2805 150.028 59.4195C154.188 50.9965 171.42 70.3534 181.649 65.5799C212.449 51.2069 245.949 76.78 245.712 84.88C257.867 74.5836 278.154 84.88 283.082 100.075Z" fill="#3C55C5"/>
<path d="M268.299 137.603C270.352 144.906 271.488 151.827 271.826 158.388C275.281 154.282 278.088 152.639 283.181 158.388C287.244 162.976 272.997 188.477 270.74 176.071C268.757 187.037 264.405 196.836 258.443 205.614C250.663 217.07 219.937 227.405 197.666 216.702C189.831 212.937 185.027 207.535 179.186 201.097C172.333 193.544 178.552 180.556 169.936 178.511C157.02 175.445 154.958 157.978 159.886 155.924C164.814 153.871 169.331 155.924 172.128 158.388C172.128 158.388 174.135 155.856 176.723 137.603C179.598 117.323 190.274 136.842 226.002 123.072C251.873 109.931 264.603 119.25 268.299 137.603Z" fill="#F6B4A8"/>
<path d="M229.295 175.055C226.831 179.983 219.131 179.254 218.022 175.969C215.761 169.266 224.149 168.352 224.149 157.472" stroke="#E89889" stroke-width="1.60141" stroke-linecap="round" stroke-linejoin="round"/>
<path d="M212.973 147.39C213.823 153.79 195.094 151.239 189.317 155.629C189.317 155.629 190.296 147.111 198.847 144.516C206.823 142.095 212.973 147.39 212.973 147.39Z" fill="#233AA0"/>
<path d="M237.192 147.38C236.54 153.766 244.566 147.365 259.225 154.092C259.225 154.092 258.354 145.845 250.606 143.574C243.378 141.456 237.192 147.38 237.192 147.38Z" fill="#233AA0"/>
<path d="M223.474 175.225C226.959 173.263 226.102 162.939 224.807 155.924C225.559 163.707 223.761 167.598 219.27 173.181C218.022 174.732 218.706 177.91 223.474 175.225Z" fill="#FFE3E2" fill-opacity="0.19"/>
<path d="M224.769 238.056C212.352 238.555 189.92 236.133 181.239 219.474C177.932 213.127 174.669 200.276 174.669 192.062C174.669 181.193 173.027 157.567 173.027 157.567C189.453 213.417 198.065 185.266 205.993 179.981C209.091 177.916 216.928 181.765 224.769 181.796C231.523 181.822 238.281 177.803 242.016 178.921C251.051 181.624 250.64 193.151 257.211 192.062C263.782 190.973 271.915 160.783 272.406 159.209C272.406 159.209 279.342 196.591 269.194 219.474C262.188 235.272 242.817 237.331 224.769 238.056Z" fill="#3C55C5"/>
<path d="M212.552 190.267C219.841 191.902 229.286 191.491 238.321 190.267C235.446 196.419 216.145 198.473 212.552 190.267Z" fill="#FFF6F6"/>
<path d="M227.641 239.288C203.823 239.288 184.933 231.486 178.773 212.185C178.773 212.185 193.146 228.201 227.641 228.201C262.137 228.201 271.582 212.185 271.582 212.185L271.432 212.522C264.506 228.144 259.565 239.288 227.641 239.288Z" fill="#233AA0"/>
<path d="M197.665 162.084C197.714 162.059 197.763 162.033 197.811 162.008M197.811 162.008C202.389 159.633 205.372 159.572 211.217 162.084C205.291 160.706 202.476 160.987 197.811 162.008ZM237.91 162.084C242.133 159.736 245.098 159.574 251.461 162.084C246.665 160.987 243.006 160.987 237.91 162.084Z" stroke="black" stroke-width="1.60141" stroke-linecap="round" stroke-linejoin="round"/>
<path d="M80.5393 234.695C80.0099 230.103 83.6231 226.086 88.2448 226.128L353.741 228.524C358.25 228.565 361.755 232.458 361.324 236.946L348.426 371.086C348.047 375.028 344.735 378.037 340.775 378.037H103.918C100.014 378.037 96.7293 375.109 96.282 371.23L80.5393 234.695Z" fill="#C9D1DA"/>
<path d="M207.848 296.166C208.33 295.871 208.931 295.793 209.509 295.951L222.473 299.493L234.926 303.067C235.738 303.3 236.372 303.964 236.55 304.766L238.699 314.466L240.644 324.192C240.804 324.997 240.476 325.785 239.803 326.21L229.479 332.738L218.657 339.365C218.175 339.66 217.574 339.738 216.996 339.58L204.032 336.038L191.579 332.464C190.767 332.23 190.133 331.567 189.955 330.765L187.806 321.065L185.861 311.339C185.701 310.534 186.029 309.746 186.702 309.321L197.026 302.793L207.848 296.166Z" fill="#3C55C5"/>
<path d="M213.429 330.351C208.927 330.935 204.946 330.246 201.487 328.283C198.029 326.32 195.932 323.594 195.197 320.107C194.462 316.619 195.329 313.509 197.799 310.778C200.268 308.046 203.754 306.388 208.257 305.804C211.021 305.446 213.68 305.629 216.234 306.355C218.788 307.08 220.904 308.23 222.582 309.803L215.85 314.121C215.206 313.424 214.323 312.918 213.203 312.604C212.083 312.29 210.896 312.214 209.642 312.377C207.533 312.65 205.936 313.409 204.851 314.652C203.766 315.895 203.398 317.344 203.747 318.998C204.095 320.652 205.038 321.931 206.575 322.834C208.112 323.737 209.935 324.052 212.044 323.779C213.327 323.612 214.42 323.241 215.323 322.665C216.255 322.084 216.88 321.372 217.2 320.526L225.345 322.915C224.406 324.851 222.877 326.485 220.756 327.817C218.636 329.148 216.194 329.993 213.429 330.351Z" fill="white"/>
<path d="M233.789 314.118L233.859 315.751L231.724 316.028L231.816 317.948L233.95 317.671L234.039 319.302L231.886 319.581L232.006 322.753L230.31 322.973L230.19 319.801L228.055 320.078L228.175 323.25L226.479 323.47L226.359 320.298L224.187 320.579L224.117 318.946L226.289 318.665L226.198 316.745L224.025 317.027L223.955 315.394L226.147 315.109L226.008 311.94L227.704 311.72L227.843 314.889L229.977 314.613L229.838 311.443L231.534 311.223L231.674 314.393L233.789 314.118ZM227.985 318.445L230.12 318.168L230.028 316.248L227.894 316.525L227.985 318.445Z" fill="white"/>
<path d="M146.775 273.783C149.091 274.551 152.127 274.369 155.013 273.704C158.206 272.968 161.306 271.621 163.187 270.191L163.194 270.186L163.201 270.18L163.504 269.926L163.3 270.254L162.805 271.046L163.701 270.783L175.836 267.217L175.996 267.17L176.062 267.017L176.789 265.333L178.298 266.358L178.437 266.453L178.598 266.405L192.048 262.453L192.836 262.222L192.128 261.806L180.017 254.691L182.195 254.051L182.35 254.005L182.418 253.858L186.726 244.459L187.051 243.751L186.303 243.97L173.142 247.838L172.976 247.886L172.912 248.047L172.08 250.129L170.187 248.841L170.049 248.747L169.888 248.794L157.522 252.428L156.616 252.694L157.136 252.934C156.727 252.931 156.3 252.948 155.861 252.983C154.192 253.115 152.295 253.509 150.46 254.105C148.626 254.701 146.842 255.503 145.406 256.461C144.31 257.191 143.392 258.029 142.823 258.955L140.663 251.605L140.563 251.264L140.222 251.365L129.793 254.429L129.452 254.529L129.552 254.87L130.969 259.69C130.786 259.71 130.573 259.745 130.335 259.796C129.82 259.905 129.173 260.088 128.452 260.344C127.009 260.856 125.247 261.67 123.615 262.805C121.985 263.938 120.468 265.403 119.542 267.223C118.612 269.053 118.289 271.224 119.026 273.733C120.051 277.222 122.622 279.024 125.345 279.816C128.054 280.605 130.946 280.407 132.721 279.886L146.968 275.699L147.309 275.599L147.209 275.258L146.775 273.783Z" fill="white" stroke="white" stroke-width="0.710244"/>
<path d="M163.839 262.358L151.148 266.105C152.105 267.208 153.744 267.375 155.989 266.712C157.453 266.279 158.515 265.558 159.098 264.651L163.94 265.258C162.73 267.654 160.379 269.408 156.866 270.447C153.841 271.341 151.204 271.387 148.956 270.584C146.805 269.753 145.326 268.315 144.713 266.214C144.122 264.188 144.497 262.202 145.86 260.332C147.223 258.462 149.346 257.019 152.177 256.182C154.812 255.403 157.156 255.444 159.328 256.35C161.479 257.182 162.86 258.648 163.451 260.675C163.641 261.325 163.798 261.946 163.839 262.358ZM150.153 263.057L157.863 260.778C156.959 259.496 155.472 259.121 153.422 259.727C151.373 260.333 150.323 261.458 150.153 263.057Z" fill="black"/>
<path d="M173.332 254.259L179.569 252.417L181.832 247.844L175.596 249.687L173.332 254.259Z" fill="#FF1F1F"/>
<path d="M185.565 261.589L179.418 263.407L175.31 260.953L173.172 265.253L166.927 267.099L171.203 258.5L162.75 253.501L168.995 251.655L173.363 254.275L177.448 256.654L185.565 261.589Z" fill="black"/>
<path d="M141.985 266.96L138.382 254.646L133.011 256.237L134.812 262.394C133.736 261.979 131.868 262.124 130.403 262.558C125.13 264.12 121.778 268.621 122.942 272.6C124.107 276.58 129.348 278.536 134.622 276.974C136.282 276.482 137.561 275.777 138.416 274.708L138.614 275.384L143.985 273.793L141.985 266.96ZM133.391 272.769C131.145 273.434 128.992 272.603 128.509 270.952C128.025 269.3 129.388 267.428 131.634 266.762C133.88 266.097 136.033 266.928 136.516 268.58C137 270.232 135.54 272.133 133.391 272.769Z" fill="black"/>
<path d="M326.079 300.698C325.159 301.651 324.124 302.505 322.996 303.25C322.996 303.25 322.996 303.25 322.996 303.25L322.466 302.448C321.13 303.333 319.65 304.062 318.064 304.621L326.079 300.698ZM326.079 300.698C327.801 298.914 329.117 296.781 329.89 294.352M326.079 300.698L329.89 294.352M329.89 294.352C330.663 291.923 330.822 289.422 330.448 286.97M329.89 294.352L330.448 286.97M299.19 267.824C303.491 266.96 308.284 267.187 313.031 268.698C317.778 270.209 321.821 272.794 324.831 275.985L299.19 267.824ZM299.19 267.824C297.814 268.1 296.488 268.487 295.229 268.981L299.19 267.824ZM326.85 278.427C327.915 279.906 328.776 281.478 329.408 283.106L326.85 278.427ZM326.85 278.427C326.242 277.581 325.568 276.764 324.832 275.985L326.85 278.427ZM330.448 286.97C330.249 285.661 329.898 284.366 329.408 283.106L330.448 286.97ZM284.446 279.887C282.815 285.009 283.923 290.421 286.941 295.02L295.229 268.981C290.108 270.989 286.076 274.765 284.446 279.887Z" fill="#FF1F1F" stroke="black" stroke-width="1.92169"/>
<path d="M317.719 286.076C317.476 284.019 314.19 282.955 313.087 284.235C311.984 285.515 313.878 287.083 316.975 289.041C320.072 290.998 321.443 293.966 320.407 295.882C319.371 297.797 317.421 300.099 310.769 297.946C306.611 296.6 304.925 293.842 304.244 291.963L308.558 291.432C308.558 291.432 309.186 293.955 311.59 294.733C313.995 295.511 315.149 295.203 315.592 293.777C316.131 292.042 308.549 288.905 308.271 285.541C307.993 282.177 310.905 278.481 316.419 280.607C319.865 281.936 321.424 283.906 322.108 285.197L317.719 286.076Z" fill="black"/>
<path d="M301.962 276.35C301.962 276.35 298.703 286.837 298.26 288.265C297.816 289.692 295.979 289.917 294.451 289.149C292.923 288.382 292.664 286.659 292.664 286.659L288.374 287.387C288.374 287.387 288.289 290.502 293.269 292.386C298.248 294.271 301.87 292.848 302.487 290.862C303.105 288.877 306.537 277.831 306.537 277.831L301.962 276.35Z" fill="black"/>
</svg>
