<svg width="446" height="396" viewBox="0 0 446 396" fill="none" xmlns="http://www.w3.org/2000/svg">
<path d="M28.225 347.572C-7.26745 307.164 44.123 240.68 144.084 204.346C144.084 204.346 122.678 195.192 129.444 185.359C135.267 176.896 146.219 163.375 211.487 159.711C279.806 155.876 306.73 175.683 317.625 185.359C327.399 194.04 296.553 204.346 296.553 204.346C376 217.941 493.612 338.176 385.399 360.245C336.498 370.219 268.721 364.86 268.721 364.86H182.826C182.826 364.86 54.7744 377.798 28.225 347.572Z" fill="#FF1F1F"/>
<path d="M144.084 204.346C44.123 240.68 -7.26745 307.164 28.225 347.572C54.7744 377.798 182.826 364.86 182.826 364.86H268.721C268.721 364.86 336.498 370.219 385.399 360.245C493.612 338.176 376 217.941 296.553 204.346M144.084 204.346C202.486 194.327 231.837 193.272 296.553 204.346M144.084 204.346C144.084 204.346 122.678 195.192 129.444 185.359C135.267 176.896 146.219 163.375 211.487 159.711C279.806 155.876 306.73 175.683 317.625 185.359C327.399 194.04 296.553 204.346 296.553 204.346M80.5041 308.435C115.302 305.411 134.771 309.917 169.423 326.892M359.886 312.653C335.978 310.051 322.609 311.451 298.854 320.564" stroke="white" stroke-width="32.0281" stroke-linecap="round"/>
<path d="M283.082 114.075C291.566 140.238 287.307 171.887 266.083 182.421C232.174 199.251 196.451 191.058 196.451 191.058C196.451 191.058 170.904 185.792 167.966 169.747C165.227 154.785 142.82 142.952 150.029 127.216C153.942 118.673 134.722 105.281 150.029 73.4195C154.188 64.9965 171.421 84.3534 181.649 79.5799C212.449 65.2069 245.949 90.78 245.712 98.88C257.868 88.5836 278.154 98.88 283.082 114.075Z" fill="#3C55C5" stroke="white" stroke-width="32.0281" stroke-linecap="round" stroke-linejoin="round"/>
<path d="M80.5391 249.625C80.0097 245.034 83.6229 241.017 88.2446 241.058L353.741 243.454C358.249 243.495 361.755 247.389 361.323 251.876L348.426 386.016C348.047 389.958 344.735 392.967 340.774 392.967H103.918C100.013 392.967 96.729 390.04 96.2818 386.161L80.5391 249.625Z" fill="#C9D1DA" stroke="white" stroke-width="32.0281"/>
<path d="M28.225 346.642C-7.26745 306.235 44.123 239.751 144.084 203.417C144.084 203.417 122.678 195.192 129.444 185.36C135.267 176.896 146.219 163.376 211.487 159.712C279.806 155.877 306.73 175.684 317.625 185.36C327.399 194.04 298.854 204.289 298.854 204.289C378.301 217.884 494.131 338.573 385.918 360.642C337.017 370.615 268.721 364.861 268.721 364.861H182.826C182.826 364.861 54.7744 376.869 28.225 346.642Z" fill="#FF1F1F"/>
<path d="M283.082 114.075C291.566 140.238 287.307 171.887 266.082 182.421C232.174 199.251 196.451 191.058 196.451 191.058C196.451 191.058 170.904 185.792 167.966 169.747C165.227 154.785 142.819 142.952 150.029 127.216C153.942 118.673 134.722 105.281 150.028 73.4195C154.188 64.9965 171.42 84.3534 181.649 79.5799C212.449 65.2069 245.949 90.78 245.712 98.88C257.867 88.5836 278.154 98.88 283.082 114.075Z" fill="#3C55C5"/>
<path d="M268.299 151.603C270.352 158.906 271.488 165.827 271.826 172.388C275.281 168.282 278.088 166.639 283.181 172.388C287.244 176.976 272.997 202.477 270.74 190.071C268.757 201.037 264.405 210.836 258.443 219.614C250.663 231.07 219.937 241.405 197.666 230.702C189.831 226.937 185.027 221.535 179.186 215.097C172.333 207.544 178.552 194.556 169.936 192.511C157.02 189.445 154.958 171.978 159.886 169.924C164.814 167.871 169.331 169.924 172.128 172.388C172.128 172.388 174.135 169.856 176.723 151.603C179.598 131.323 190.274 150.842 226.002 137.072C251.873 123.931 264.603 133.25 268.299 151.603Z" fill="#F6B4A8"/>
<path d="M229.295 189.055C226.831 193.983 219.131 193.254 218.022 189.969C215.761 183.266 224.149 182.352 224.149 171.472" stroke="#E89889" stroke-width="1.60141" stroke-linecap="round" stroke-linejoin="round"/>
<path d="M212.973 161.39C213.823 167.79 195.094 165.239 189.317 169.629C189.317 169.629 190.296 161.111 198.847 158.516C206.823 156.095 212.973 161.39 212.973 161.39Z" fill="#233AA0"/>
<path d="M237.192 161.38C236.54 167.766 244.566 161.365 259.225 168.092C259.225 168.092 258.354 159.845 250.606 157.574C243.378 155.456 237.192 161.38 237.192 161.38Z" fill="#233AA0"/>
<path d="M223.474 189.225C226.959 187.263 226.102 176.939 224.807 169.924C225.559 177.707 223.761 181.598 219.27 187.181C218.022 188.732 218.706 191.91 223.474 189.225Z" fill="#FFE3E2" fill-opacity="0.19"/>
<path d="M224.769 252.056C212.352 252.555 189.92 250.133 181.239 233.474C177.932 227.127 174.669 214.276 174.669 206.062C174.669 195.193 173.027 171.567 173.027 171.567C189.453 227.417 198.065 199.266 205.993 193.981C209.091 191.916 216.928 195.765 224.769 195.796C231.523 195.822 238.281 191.803 242.016 192.921C251.051 195.624 250.64 207.151 257.211 206.062C263.782 204.973 271.915 174.783 272.406 173.209C272.406 173.209 279.342 210.591 269.194 233.474C262.188 249.272 242.817 251.331 224.769 252.056Z" fill="#3C55C5"/>
<path d="M212.552 204.267C219.841 205.902 229.286 205.491 238.321 204.267C235.446 210.419 216.145 212.473 212.552 204.267Z" fill="#FFF6F6"/>
<path d="M227.641 253.288C203.823 253.288 184.933 245.486 178.773 226.185C178.773 226.185 193.146 242.201 227.641 242.201C262.137 242.201 271.582 226.185 271.582 226.185L271.432 226.522C264.506 242.144 259.565 253.288 227.641 253.288Z" fill="#233AA0"/>
<path d="M197.665 176.084C197.714 176.059 197.763 176.033 197.811 176.008M197.811 176.008C202.389 173.633 205.372 173.572 211.217 176.084C205.291 174.706 202.476 174.987 197.811 176.008ZM237.91 176.084C242.133 173.736 245.098 173.574 251.461 176.084C246.665 174.987 243.006 174.987 237.91 176.084Z" stroke="black" stroke-width="1.60141" stroke-linecap="round" stroke-linejoin="round"/>
<path d="M80.5393 248.695C80.0099 244.103 83.6231 240.086 88.2448 240.128L353.741 242.524C358.25 242.565 361.755 246.458 361.324 250.946L348.426 385.086C348.047 389.028 344.735 392.037 340.775 392.037H103.918C100.014 392.037 96.7293 389.109 96.282 385.23L80.5393 248.695Z" fill="#C9D1DA"/>
<path d="M207.848 310.166C208.33 309.871 208.931 309.793 209.509 309.951L222.473 313.493L234.926 317.067C235.738 317.3 236.372 317.964 236.55 318.766L238.699 328.466L240.644 338.192C240.804 338.997 240.476 339.785 239.803 340.21L229.479 346.738L218.657 353.365C218.175 353.66 217.574 353.738 216.996 353.58L204.032 350.038L191.579 346.464C190.767 346.23 190.133 345.567 189.955 344.765L187.806 335.065L185.861 325.339C185.701 324.534 186.029 323.746 186.702 323.321L197.026 316.793L207.848 310.166Z" fill="#3C55C5"/>
<path d="M213.429 344.351C208.927 344.935 204.946 344.246 201.487 342.283C198.029 340.32 195.932 337.594 195.197 334.107C194.462 330.619 195.329 327.509 197.799 324.778C200.268 322.046 203.754 320.388 208.257 319.804C211.021 319.446 213.68 319.629 216.234 320.355C218.788 321.08 220.904 322.23 222.582 323.803L215.85 328.121C215.206 327.424 214.323 326.918 213.203 326.604C212.083 326.29 210.896 326.214 209.642 326.377C207.533 326.65 205.936 327.409 204.851 328.652C203.766 329.895 203.398 331.344 203.747 332.998C204.095 334.652 205.038 335.931 206.575 336.834C208.112 337.737 209.935 338.052 212.044 337.779C213.327 337.612 214.42 337.241 215.323 336.665C216.255 336.084 216.88 335.372 217.2 334.526L225.345 336.915C224.406 338.851 222.877 340.485 220.756 341.817C218.636 343.148 216.194 343.993 213.429 344.351Z" fill="white"/>
<path d="M233.789 328.118L233.859 329.751L231.724 330.028L231.816 331.948L233.95 331.671L234.039 333.302L231.886 333.581L232.006 336.753L230.31 336.973L230.19 333.801L228.055 334.078L228.175 337.25L226.479 337.47L226.359 334.298L224.187 334.579L224.117 332.946L226.289 332.665L226.198 330.745L224.025 331.027L223.955 329.394L226.147 329.109L226.008 325.94L227.704 325.72L227.843 328.889L229.977 328.613L229.838 325.443L231.534 325.223L231.674 328.393L233.789 328.118ZM227.985 332.445L230.12 332.168L230.028 330.248L227.894 330.525L227.985 332.445Z" fill="white"/>
<path d="M146.775 287.783C149.091 288.551 152.127 288.369 155.013 287.704C158.206 286.968 161.306 285.621 163.187 284.191L163.194 284.186L163.201 284.18L163.504 283.926L163.3 284.254L162.805 285.046L163.701 284.783L175.836 281.217L175.996 281.17L176.062 281.017L176.789 279.333L178.298 280.358L178.437 280.453L178.598 280.405L192.048 276.453L192.836 276.222L192.128 275.806L180.017 268.691L182.195 268.051L182.35 268.005L182.418 267.858L186.726 258.459L187.051 257.751L186.303 257.97L173.142 261.838L172.976 261.886L172.912 262.047L172.08 264.129L170.187 262.841L170.049 262.747L169.888 262.794L157.522 266.428L156.616 266.694L157.136 266.934C156.727 266.931 156.3 266.948 155.861 266.983C154.192 267.115 152.295 267.509 150.46 268.105C148.626 268.701 146.842 269.503 145.406 270.461C144.31 271.191 143.392 272.029 142.823 272.955L140.663 265.605L140.563 265.264L140.222 265.365L129.793 268.429L129.452 268.529L129.552 268.87L130.969 273.69C130.786 273.71 130.573 273.745 130.335 273.796C129.82 273.905 129.173 274.088 128.452 274.344C127.009 274.856 125.247 275.67 123.615 276.805C121.985 277.938 120.468 279.403 119.542 281.223C118.612 283.053 118.289 285.224 119.026 287.733C120.051 291.222 122.622 293.024 125.345 293.816C128.054 294.605 130.946 294.407 132.721 293.886L146.968 289.699L147.309 289.599L147.209 289.258L146.775 287.783Z" fill="white" stroke="white" stroke-width="0.710244"/>
<path d="M163.839 276.358L151.148 280.105C152.105 281.208 153.744 281.375 155.989 280.712C157.453 280.279 158.515 279.558 159.098 278.651L163.94 279.258C162.73 281.654 160.379 283.408 156.866 284.447C153.841 285.341 151.204 285.387 148.956 284.584C146.805 283.753 145.326 282.315 144.713 280.214C144.122 278.188 144.497 276.202 145.86 274.332C147.223 272.462 149.346 271.019 152.177 270.182C154.812 269.403 157.156 269.444 159.328 270.35C161.479 271.182 162.86 272.648 163.451 274.675C163.641 275.325 163.798 275.946 163.839 276.358ZM150.153 277.057L157.863 274.778C156.959 273.496 155.472 273.121 153.422 273.727C151.373 274.333 150.323 275.458 150.153 277.057Z" fill="black"/>
<path d="M173.332 268.259L179.569 266.417L181.832 261.844L175.596 263.687L173.332 268.259Z" fill="#FF1F1F"/>
<path d="M185.565 275.589L179.418 277.407L175.31 274.953L173.172 279.253L166.927 281.099L171.203 272.5L162.75 267.501L168.995 265.655L173.363 268.275L177.448 270.654L185.565 275.589Z" fill="black"/>
<path d="M141.985 280.96L138.382 268.646L133.011 270.237L134.812 276.394C133.736 275.979 131.868 276.124 130.403 276.558C125.13 278.12 121.778 282.621 122.942 286.6C124.107 290.58 129.348 292.536 134.622 290.974C136.282 290.482 137.561 289.777 138.416 288.708L138.614 289.384L143.985 287.793L141.985 280.96ZM133.391 286.769C131.145 287.434 128.992 286.603 128.509 284.952C128.025 283.3 129.388 281.428 131.634 280.762C133.88 280.097 136.033 280.928 136.516 282.58C137 284.232 135.54 286.133 133.391 286.769Z" fill="black"/>
<path d="M326.079 314.698C325.159 315.651 324.124 316.505 322.996 317.25C322.996 317.25 322.996 317.25 322.996 317.25L322.466 316.448C321.13 317.333 319.65 318.062 318.064 318.621L326.079 314.698ZM326.079 314.698C327.801 312.914 329.117 310.781 329.89 308.352M326.079 314.698L329.89 308.352M329.89 308.352C330.663 305.923 330.822 303.422 330.448 300.97M329.89 308.352L330.448 300.97M299.19 281.824C303.491 280.96 308.284 281.187 313.031 282.698C317.778 284.209 321.821 286.794 324.831 289.985L299.19 281.824ZM299.19 281.824C297.814 282.1 296.488 282.487 295.229 282.981L299.19 281.824ZM326.85 292.427C327.915 293.906 328.776 295.478 329.408 297.106L326.85 292.427ZM326.85 292.427C326.242 291.581 325.568 290.764 324.832 289.985L326.85 292.427ZM330.448 300.97C330.249 299.661 329.898 298.366 329.408 297.106L330.448 300.97ZM284.446 293.887C282.815 299.009 283.923 304.421 286.941 309.02L295.229 282.981C290.108 284.989 286.076 288.765 284.446 293.887Z" fill="#FF1F1F" stroke="black" stroke-width="1.92169"/>
<path d="M317.719 300.076C317.476 298.019 314.19 296.955 313.087 298.235C311.984 299.515 313.878 301.083 316.975 303.041C320.072 304.998 321.443 307.966 320.407 309.882C319.371 311.797 317.421 314.099 310.769 311.946C306.611 310.6 304.925 307.842 304.244 305.963L308.558 305.432C308.558 305.432 309.186 307.955 311.59 308.733C313.995 309.511 315.149 309.203 315.592 307.777C316.131 306.042 308.549 302.905 308.271 299.541C307.993 296.177 310.905 292.481 316.419 294.607C319.865 295.936 321.424 297.906 322.108 299.197L317.719 300.076Z" fill="black"/>
<path d="M301.962 290.35C301.962 290.35 298.703 300.837 298.26 302.265C297.816 303.692 295.979 303.917 294.451 303.149C292.923 302.382 292.664 300.659 292.664 300.659L288.374 301.387C288.374 301.387 288.289 304.502 293.269 306.386C298.248 308.271 301.87 306.848 302.487 304.862C303.105 302.877 306.537 291.831 306.537 291.831L301.962 290.35Z" fill="black"/>
</svg>
