<svg width="135" height="121" viewBox="0 0 135 121" fill="none" xmlns="http://www.w3.org/2000/svg">
<path d="M129.848 85.5106C117.114 110.399 92.4954 116.389 65.0213 119.66C40.711 122.554 11.2618 117.345 1.35207 78.5649C-6.58008 47.5237 21.8613 -14.714 48.2356 6.21362C101.486 48.4673 149.086 47.9094 129.848 85.5106Z" fill="#233AA0"/>
<path d="M16.8212 39.2303C15.8154 32.7001 20.2938 26.591 26.824 25.5852L91.8558 15.5685C95.1209 15.0656 98.1754 17.3048 98.6784 20.5698L107.215 75.9947C107.718 79.2598 105.479 82.3144 102.214 82.8173L25.3582 94.6552L16.8212 39.2303Z" fill="#FE8B87"/>
<rect x="18.876" y="46.7101" width="70.8178" height="44.4445" rx="3.63231" transform="rotate(-41.268 18.876 46.7101)" fill="#FFFBF0"/>
<path d="M16.5928 37.7511C16.5928 37.7511 19.0424 41.6959 24.0955 40.18L104.58 27.9425C107.85 27.4453 110.903 29.6964 111.395 32.9673L119.179 84.7641C119.669 88.0226 117.431 91.0635 114.174 91.5651L26.9509 105L16.5928 37.7511Z" fill="#E82B37"/>
<path d="M87.5622 53.2895C87.7381 53.2648 87.9139 53.2445 88.0895 53.2174L113.691 49.2741C114.507 49.1484 115.271 49.7082 115.397 50.5244L116.819 59.7619L118.242 68.9994C118.368 69.8157 117.808 70.5793 116.992 70.705L91.3904 74.6484C91.2148 74.6754 91.0411 74.7089 90.8659 74.7383C89.2591 75.0077 80.7271 75.933 79.1305 65.567C77.5338 55.201 85.9489 53.5161 87.5622 53.2895Z" fill="#FE8B87"/>
<circle cx="88.7938" cy="64.4574" r="4.44101" transform="rotate(-8.75631 88.7938 64.4574)" fill="#E82B37"/>
</svg>
