<svg width="204" height="133" viewBox="0 0 204 133" fill="none" xmlns="http://www.w3.org/2000/svg">
<path d="M65.5454 68.8146C66.2135 64.1379 63.5414 57.4568 52.1836 56.1206C52.4063 58.5703 52.1833 62.8017 65.5454 68.8146Z" fill="#0047B3"/>
<path d="M66.2134 70.1509C66.2134 72.6006 64.7436 77.5 58.8643 77.5C58.8643 75.4957 60.3341 71.2198 66.2134 70.1509Z" fill="#0047B3"/>
<path d="M64.2096 69.4823C61.9825 71.2639 56.8604 74.1594 49.5112 71.487C51.5155 68.5918 57.2613 64.6719 64.2096 69.4823Z" fill="#0047B3"/>
<path d="M56.861 65.0616C54.2291 66.8414 48.1756 69.734 39.4902 67.0642C41.859 64.172 48.6494 60.256 56.861 65.0616Z" fill="#0047B3"/>
<path d="M47.5073 62.133C44.433 62.9353 38.1058 63.5331 30.8044 58.1245C35.4813 56.7887 41.3635 54.8681 47.5073 62.133Z" fill="#0047B3"/>
<path d="M28.7998 48.1037C32.1403 47.881 39.6231 49.1727 42.83 56.121C39.4895 56.3438 32.0067 55.0522 28.7998 48.1037Z" fill="#0047B3"/>
<path d="M38.1891 34.7542C40.2117 37.4221 43.2467 43.0465 39.2059 49.5453C37.1832 46.8775 34.1481 41.2532 38.1891 34.7542Z" fill="#0047B3"/>
<path d="M40.0703 21.3839C40.7145 24.6693 40.9686 31.0553 34.4825 35.1166C33.8383 31.8313 33.5841 25.4454 40.0703 21.3839Z" fill="#0047B3"/>
<path d="M27.1091 17.133C29.6475 18.8915 33.9215 22.9511 32.2437 29.8073C29.7052 28.0489 25.4311 23.9894 27.1091 17.133Z" fill="#0047B3"/>
<path d="M34.6188 8.02926C36.0484 11.0545 37.9927 17.1358 33.6722 22.3425C32.2426 19.3173 30.2981 13.236 34.6188 8.02926Z" fill="#0047B3"/>
<path d="M46.4498 9.7695C45.7003 13.0305 43.464 19.0105 36.8479 20.4263C37.5973 17.1653 39.8336 11.1853 46.4498 9.7695Z" fill="#0047B3"/>
<path d="M40.2886 1.34264C41.1247 3.86204 42.0735 8.83749 38.1722 12.5241C37.3361 10.0047 36.3872 5.02932 40.2886 1.34264Z" fill="#0047B3"/>
<path d="M49.6236 1.28874C49.084 3.88782 47.4107 8.66856 42.1869 9.90276C42.7265 7.30367 44.3996 2.52291 49.6236 1.28874Z" fill="#0047B3"/>
<path d="M23.2614 37.4338C26.2196 37.7132 32.5918 39.9077 34.4144 46.4506C31.4561 46.1713 25.0839 43.9769 23.2614 37.4338Z" fill="#0047B3"/>
<path d="M26.4977 28.2247C29.1376 29.5887 34.2292 34.0041 33.4764 40.7542C30.8365 39.3904 25.7449 34.975 26.4977 28.2247Z" fill="#0047B3"/>
<path d="M50.6287 61.7417C47.5335 60.1958 41.8097 56.0483 41.5189 46.7371C45.8034 47.4926 53.0037 51.8143 50.6287 61.7417Z" fill="#0047B3"/>
<path d="M78.1174 65.95H85.3274V67.798H82.6814V75.75H80.7494V67.798H78.1174V65.95ZM90.6505 69.576V68.75H92.4565V75.75H90.6505V74.924C90.1091 75.6053 89.3485 75.946 88.3685 75.946C87.4351 75.946 86.6325 75.5913 85.9605 74.882C85.2978 74.1633 84.9665 73.286 84.9665 72.25C84.9665 71.2233 85.2978 70.3507 85.9605 69.632C86.6325 68.9133 87.4351 68.554 88.3685 68.554C89.3485 68.554 90.1091 68.8947 90.6505 69.576ZM87.3185 73.678C87.6825 74.042 88.1445 74.224 88.7045 74.224C89.2645 74.224 89.7265 74.042 90.0905 73.678C90.4638 73.3047 90.6505 72.8287 90.6505 72.25C90.6505 71.6713 90.4638 71.2 90.0905 70.836C89.7265 70.4627 89.2645 70.276 88.7045 70.276C88.1445 70.276 87.6825 70.4627 87.3185 70.836C86.9545 71.2 86.7725 71.6713 86.7725 72.25C86.7725 72.8287 86.9545 73.3047 87.3185 73.678ZM99.7361 69.618V68.75H101.5V75.414C101.5 76.4873 101.141 77.3133 100.422 77.892C99.7128 78.4613 98.8541 78.746 97.8461 78.746C96.2595 78.746 95.1535 78.1767 94.5281 77.038L96.0681 76.156C96.4135 76.8093 97.0248 77.136 97.9021 77.136C98.4715 77.136 98.9195 76.9867 99.2461 76.688C99.5728 76.3893 99.7361 75.9647 99.7361 75.414V74.658C99.2041 75.3673 98.4575 75.722 97.4961 75.722C96.5068 75.722 95.6761 75.3767 95.0041 74.686C94.3415 73.9767 94.0101 73.1273 94.0101 72.138C94.0101 71.1487 94.3461 70.304 95.0181 69.604C95.6901 68.904 96.5161 68.554 97.4961 68.554C98.4575 68.554 99.2041 68.9087 99.7361 69.618ZM99.1761 73.524C99.5495 73.16 99.7361 72.698 99.7361 72.138C99.7361 71.578 99.5495 71.1253 99.1761 70.78C98.8121 70.416 98.3455 70.234 97.7761 70.234C97.2161 70.234 96.7448 70.416 96.3621 70.78C95.9981 71.1253 95.8161 71.578 95.8161 72.138C95.8161 72.698 95.9981 73.16 96.3621 73.524C96.7355 73.8787 97.2068 74.056 97.7761 74.056C98.3455 74.056 98.8121 73.8787 99.1761 73.524ZM105.224 75.75H103.418V65.53H105.224V75.75ZM108.053 67.91C107.754 67.91 107.493 67.8027 107.269 67.588C107.054 67.364 106.947 67.1027 106.947 66.804C106.947 66.5053 107.054 66.244 107.269 66.02C107.493 65.796 107.754 65.684 108.053 65.684C108.361 65.684 108.622 65.796 108.837 66.02C109.061 66.244 109.173 66.5053 109.173 66.804C109.173 67.1027 109.061 67.364 108.837 67.588C108.622 67.8027 108.361 67.91 108.053 67.91ZM108.963 75.75H107.157V68.75H108.963V75.75ZM114.788 68.554C115.562 68.554 116.192 68.8107 116.678 69.324C117.182 69.8467 117.434 70.556 117.434 71.452V75.75H115.628V71.676C115.628 71.2187 115.502 70.864 115.25 70.612C115.007 70.36 114.671 70.234 114.242 70.234C113.766 70.234 113.388 70.3833 113.108 70.682C112.837 70.9713 112.702 71.4007 112.702 71.97V75.75H110.896V68.75H112.702V69.534C113.131 68.8807 113.826 68.554 114.788 68.554ZM126.06 72.992H120.782C121.015 73.8693 121.673 74.308 122.756 74.308C123.447 74.308 123.969 74.0747 124.324 73.608L125.78 74.448C125.089 75.4467 124.072 75.946 122.728 75.946C121.571 75.946 120.642 75.596 119.942 74.896C119.242 74.196 118.892 73.314 118.892 72.25C118.892 71.2047 119.237 70.3273 119.928 69.618C120.609 68.9087 121.496 68.554 122.588 68.554C123.624 68.554 124.469 68.9087 125.122 69.618C125.794 70.3273 126.13 71.2047 126.13 72.25C126.13 72.446 126.107 72.6933 126.06 72.992ZM120.754 71.592H124.324C124.221 71.1347 124.011 70.7847 123.694 70.542C123.386 70.2993 123.017 70.178 122.588 70.178C122.103 70.178 121.701 70.304 121.384 70.556C121.067 70.7987 120.857 71.144 120.754 71.592Z" fill="black"/>
<path d="M139.317 68.8146C138.649 64.1379 141.321 57.4568 152.679 56.1206C152.456 58.5703 152.679 62.8017 139.317 68.8146Z" fill="#0047B3"/>
<path d="M138.649 70.1509C138.649 72.6006 140.119 77.5 145.998 77.5C145.998 75.4957 144.528 71.2198 138.649 70.1509Z" fill="#0047B3"/>
<path d="M140.653 69.4823C142.88 71.2639 148.002 74.1594 155.351 71.487C153.347 68.5918 147.601 64.6719 140.653 69.4823Z" fill="#0047B3"/>
<path d="M148.001 65.0618C150.633 66.8417 156.687 69.7343 165.372 67.0645C163.003 64.1723 156.213 60.2563 148.001 65.0618Z" fill="#0047B3"/>
<path d="M157.355 62.133C160.429 62.9353 166.756 63.5331 174.058 58.1245C169.381 56.7887 163.499 54.8681 157.355 62.133Z" fill="#0047B3"/>
<path d="M176.062 48.1037C172.722 47.881 165.239 49.1727 162.032 56.121C165.373 56.3438 172.856 55.0522 176.062 48.1037Z" fill="#0047B3"/>
<path d="M166.673 34.7542C164.651 37.4221 161.616 43.0465 165.656 49.5453C167.679 46.8775 170.714 41.2532 166.673 34.7542Z" fill="#0047B3"/>
<path d="M164.792 21.3839C164.148 24.6693 163.894 31.0553 170.38 35.1166C171.024 31.8313 171.278 25.4454 164.792 21.3839Z" fill="#0047B3"/>
<path d="M177.754 17.133C175.215 18.8915 170.941 22.9511 172.619 29.8073C175.158 28.0489 179.432 23.9894 177.754 17.133Z" fill="#0047B3"/>
<path d="M170.243 8.02926C168.814 11.0545 166.87 17.1358 171.19 22.3425C172.62 19.3173 174.564 13.236 170.243 8.02926Z" fill="#0047B3"/>
<path d="M158.413 9.7695C159.162 13.0305 161.398 19.0105 168.014 20.4263C167.265 17.1653 165.029 11.1853 158.413 9.7695Z" fill="#0047B3"/>
<path d="M164.574 1.34264C163.738 3.86204 162.789 8.83749 166.69 12.5241C167.526 10.0047 168.475 5.02932 164.574 1.34264Z" fill="#0047B3"/>
<path d="M155.239 1.28874C155.778 3.88782 157.452 8.66856 162.675 9.90276C162.136 7.30367 160.463 2.52291 155.239 1.28874Z" fill="#0047B3"/>
<path d="M181.601 37.4338C178.643 37.7132 172.271 39.9077 170.448 46.4506C173.406 46.1713 179.778 43.9769 181.601 37.4338Z" fill="#0047B3"/>
<path d="M178.365 28.2247C175.725 29.5887 170.633 34.0041 171.386 40.7542C174.026 39.3904 179.117 34.975 178.365 28.2247Z" fill="#0047B3"/>
<path d="M154.234 61.7417C157.329 60.1958 163.053 56.0483 163.343 46.7371C159.059 47.4926 151.859 51.8143 154.234 61.7417Z" fill="#0047B3"/>
<path d="M37.1231 100.45H40.6791C41.5751 100.45 42.3265 100.753 42.9331 101.36C43.5398 101.967 43.8431 102.713 43.8431 103.6C43.8431 104.487 43.5398 105.233 42.9331 105.84C42.3265 106.447 41.5751 106.75 40.6791 106.75H38.4251V110.25H37.1231V100.45ZM38.4251 105.532H40.6791C41.2298 105.532 41.6778 105.35 42.0231 104.986C42.3778 104.603 42.5551 104.141 42.5551 103.6C42.5551 103.04 42.3778 102.578 42.0231 102.214C41.6685 101.85 41.2205 101.668 40.6791 101.668H38.4251V105.532ZM51.7217 107.31H45.8557C45.9771 107.926 46.2617 108.411 46.7097 108.766C47.1577 109.111 47.7177 109.284 48.3897 109.284C49.3137 109.284 49.9857 108.943 50.4057 108.262L51.4417 108.85C50.7511 109.905 49.7244 110.432 48.3617 110.432C47.2604 110.432 46.3551 110.087 45.6457 109.396C44.9551 108.687 44.6097 107.805 44.6097 106.75C44.6097 105.686 44.9504 104.809 45.6317 104.118C46.3131 103.418 47.1951 103.068 48.2777 103.068C49.3044 103.068 50.1397 103.432 50.7837 104.16C51.4371 104.869 51.7637 105.737 51.7637 106.764C51.7637 106.941 51.7497 107.123 51.7217 107.31ZM48.2777 104.216C47.6337 104.216 47.0924 104.398 46.6537 104.762C46.2244 105.126 45.9584 105.621 45.8557 106.246H50.5317C50.4291 105.602 50.1724 105.103 49.7617 104.748C49.3511 104.393 48.8564 104.216 48.2777 104.216ZM58.3718 102.2H54.5918V101.136H58.3718V102.2ZM54.6478 108.164L58.5258 103.25H59.5058V110.25H58.3018V105.336L54.4238 110.25H53.4438V103.25H54.6478V108.164ZM60.8559 103.25H66.8479V104.426H64.4679V110.25H63.2499V104.426H60.8559V103.25ZM69.3993 108.164L73.2773 103.25H74.2573V110.25H73.0533V105.336L69.1753 110.25H68.1953V103.25H69.3993V108.164ZM81.2353 106.162V103.25H82.4533V110.25H81.2353V107.324H77.6093V110.25H76.3913V103.25H77.6093V106.162H81.2353ZM84.5873 103.25H89.1793V104.426H85.8053V110.25H84.5873V103.25ZM100.005 103.25H101.307V110.25H100.117V105.168L97.8914 108.752H97.7374L95.5114 105.168V110.25H94.3074V103.25H95.6094L97.8074 106.792L100.005 103.25ZM109.355 109.368C108.645 110.077 107.773 110.432 106.737 110.432C105.701 110.432 104.828 110.077 104.119 109.368C103.409 108.659 103.055 107.786 103.055 106.75C103.055 105.714 103.409 104.841 104.119 104.132C104.828 103.423 105.701 103.068 106.737 103.068C107.773 103.068 108.645 103.423 109.355 104.132C110.073 104.851 110.433 105.723 110.433 106.75C110.433 107.777 110.073 108.649 109.355 109.368ZM106.737 109.242C107.437 109.242 108.025 109.004 108.501 108.528C108.977 108.052 109.215 107.459 109.215 106.75C109.215 106.041 108.977 105.448 108.501 104.972C108.025 104.496 107.437 104.258 106.737 104.258C106.046 104.258 105.463 104.496 104.987 104.972C104.511 105.448 104.273 106.041 104.273 106.75C104.273 107.459 104.511 108.052 104.987 108.528C105.463 109.004 106.046 109.242 106.737 109.242ZM115.327 110.432C114.291 110.432 113.437 110.091 112.765 109.41C112.093 108.719 111.757 107.842 111.757 106.778C111.757 105.574 111.929 104.655 112.275 104.02C112.629 103.376 113.348 102.793 114.431 102.27C114.487 102.242 114.552 102.209 114.627 102.172C114.711 102.135 114.809 102.093 114.921 102.046C115.042 101.99 115.145 101.943 115.229 101.906L115.985 101.57C116.731 101.197 117.128 100.749 117.175 100.226L118.155 100.786C118.089 101.113 117.982 101.374 117.833 101.57C117.823 101.589 117.795 101.631 117.749 101.696C117.702 101.752 117.669 101.794 117.651 101.822C117.632 101.841 117.599 101.873 117.553 101.92C117.515 101.957 117.473 101.995 117.427 102.032C117.389 102.069 117.338 102.107 117.273 102.144C116.927 102.359 116.68 102.499 116.531 102.564C116.475 102.592 116.414 102.62 116.349 102.648C116.293 102.676 116.246 102.699 116.209 102.718C116.171 102.737 116.143 102.751 116.125 102.76L115.663 102.956L115.215 103.138C114.589 103.409 114.127 103.684 113.829 103.964C113.53 104.244 113.315 104.599 113.185 105.028C113.474 104.673 113.838 104.403 114.277 104.216C114.725 104.029 115.182 103.936 115.649 103.936C116.535 103.936 117.277 104.235 117.875 104.832C118.491 105.439 118.799 106.209 118.799 107.142C118.799 108.094 118.472 108.883 117.819 109.508C117.156 110.124 116.325 110.432 115.327 110.432ZM117.581 107.142C117.581 106.517 117.375 106.008 116.965 105.616C116.563 105.215 116.031 105.014 115.369 105.014C114.781 105.014 114.239 105.205 113.745 105.588C113.269 105.971 113.031 106.465 113.031 107.072C113.031 107.707 113.25 108.229 113.689 108.64C114.127 109.051 114.673 109.256 115.327 109.256C115.989 109.256 116.526 109.055 116.937 108.654C117.366 108.253 117.581 107.749 117.581 107.142ZM121.576 108.164L125.454 103.25H126.434V110.25H125.23V105.336L121.352 110.25H120.372V103.25H121.576V108.164ZM129.212 103.25H134.406V110.25H133.188V104.426H130.43V107.282C130.43 108.402 130.206 109.2 129.758 109.676C129.31 110.143 128.652 110.334 127.784 110.25V109.102C128.269 109.167 128.629 109.06 128.862 108.78C129.095 108.491 129.212 107.982 129.212 107.254V103.25ZM137.75 105.77H139.486C140.186 105.77 140.764 105.98 141.222 106.4C141.688 106.811 141.922 107.347 141.922 108.01C141.922 108.673 141.688 109.214 141.222 109.634C140.755 110.045 140.176 110.25 139.486 110.25H136.532V103.25H137.75V105.77ZM137.75 109.116H139.486C139.84 109.116 140.134 109.013 140.368 108.808C140.601 108.603 140.718 108.337 140.718 108.01C140.718 107.683 140.596 107.417 140.354 107.212C140.12 106.997 139.831 106.89 139.486 106.89H137.75V109.116ZM148.355 106.162V103.25H149.573V110.25H148.355V107.324H144.729V110.25H143.511V103.25H144.729V106.162H148.355ZM152.925 105.77H154.661C155.361 105.77 155.94 105.98 156.397 106.4C156.864 106.811 157.097 107.347 157.097 108.01C157.097 108.673 156.864 109.214 156.397 109.634C155.93 110.045 155.352 110.25 154.661 110.25H151.707V103.25H152.925V105.77ZM158.007 110.25V103.25H159.225V110.25H158.007ZM152.925 109.116H154.661C155.016 109.116 155.31 109.013 155.543 108.808C155.776 108.603 155.893 108.337 155.893 108.01C155.893 107.683 155.772 107.417 155.529 107.212C155.296 106.997 155.006 106.89 154.661 106.89H152.925V109.116ZM164.768 106.638L167.442 110.25H166.014L164.054 107.604L162.08 110.25H160.652L163.34 106.652L160.806 103.25H162.248L164.054 105.686L165.86 103.25H167.288L164.768 106.638ZM54.4059 120.068C55.3859 120.068 56.2212 120.427 56.9119 121.146C57.6025 121.865 57.9479 122.733 57.9479 123.75C57.9479 124.777 57.6025 125.649 56.9119 126.368C56.2305 127.077 55.3952 127.432 54.4059 127.432C53.2485 127.432 52.3665 126.97 51.7599 126.046V130.05H50.5419V120.25H51.7599V121.454C52.3665 120.53 53.2485 120.068 54.4059 120.068ZM54.2519 126.256C54.9519 126.256 55.5399 126.018 56.0159 125.542C56.4919 125.047 56.7299 124.45 56.7299 123.75C56.7299 123.041 56.4919 122.448 56.0159 121.972C55.5399 121.487 54.9519 121.244 54.2519 121.244C53.5425 121.244 52.9499 121.487 52.4739 121.972C51.9979 122.448 51.7599 123.041 51.7599 123.75C51.7599 124.45 51.9979 125.047 52.4739 125.542C52.9499 126.018 53.5425 126.256 54.2519 126.256ZM65.4772 121.454V120.25H66.6952V127.25H65.4772V126.046C64.8799 126.97 63.9979 127.432 62.8312 127.432C61.8419 127.432 61.0066 127.077 60.3252 126.368C59.6346 125.649 59.2892 124.777 59.2892 123.75C59.2892 122.733 59.6346 121.865 60.3252 121.146C61.0159 120.427 61.8512 120.068 62.8312 120.068C63.9979 120.068 64.8799 120.53 65.4772 121.454ZM62.9852 126.256C63.6946 126.256 64.2872 126.018 64.7632 125.542C65.2392 125.047 65.4772 124.45 65.4772 123.75C65.4772 123.041 65.2392 122.448 64.7632 121.972C64.2872 121.487 63.6946 121.244 62.9852 121.244C62.2852 121.244 61.6972 121.487 61.2212 121.972C60.7452 122.448 60.5072 123.041 60.5072 123.75C60.5072 124.45 60.7452 125.047 61.2212 125.542C61.6972 126.018 62.2852 126.256 62.9852 126.256ZM72.6006 123.666C73.3753 123.993 73.7626 124.548 73.7626 125.332C73.7626 125.939 73.5246 126.443 73.0486 126.844C72.5726 127.236 71.9146 127.432 71.0746 127.432C69.6746 127.432 68.7366 126.872 68.2606 125.752L69.2826 125.15C69.5439 125.915 70.1459 126.298 71.0886 126.298C71.5459 126.298 71.9053 126.2 72.1666 126.004C72.4279 125.808 72.5586 125.547 72.5586 125.22C72.5586 124.94 72.4513 124.711 72.2366 124.534C72.0313 124.357 71.7513 124.268 71.3966 124.268H70.3746V123.162H71.1306C71.4853 123.162 71.7606 123.078 71.9566 122.91C72.1526 122.733 72.2506 122.495 72.2506 122.196C72.2506 121.888 72.1339 121.645 71.9006 121.468C71.6673 121.281 71.3546 121.188 70.9626 121.188C70.1786 121.188 69.6466 121.519 69.3666 122.182L68.3726 121.608C68.8673 120.581 69.7306 120.068 70.9626 120.068C71.7093 120.068 72.3066 120.264 72.7546 120.656C73.2119 121.039 73.4406 121.519 73.4406 122.098C73.4406 122.807 73.1606 123.33 72.6006 123.666ZM79.2263 120.068C80.2063 120.068 81.0417 120.427 81.7323 121.146C82.423 121.865 82.7683 122.733 82.7683 123.75C82.7683 124.777 82.423 125.649 81.7323 126.368C81.051 127.077 80.2157 127.432 79.2263 127.432C78.069 127.432 77.187 126.97 76.5803 126.046V130.05H75.3623V120.25H76.5803V121.454C77.187 120.53 78.069 120.068 79.2263 120.068ZM79.0723 126.256C79.7723 126.256 80.3603 126.018 80.8363 125.542C81.3123 125.047 81.5503 124.45 81.5503 123.75C81.5503 123.041 81.3123 122.448 80.8363 121.972C80.3603 121.487 79.7723 121.244 79.0723 121.244C78.363 121.244 77.7703 121.487 77.2943 121.972C76.8183 122.448 76.5803 123.041 76.5803 123.75C76.5803 124.45 76.8183 125.047 77.2943 125.542C77.7703 126.018 78.363 126.256 79.0723 126.256ZM90.2977 121.454V120.25H91.5157V127.25H90.2977V126.046C89.7004 126.97 88.8184 127.432 87.6517 127.432C86.6624 127.432 85.827 127.077 85.1457 126.368C84.455 125.649 84.1097 124.777 84.1097 123.75C84.1097 122.733 84.455 121.865 85.1457 121.146C85.8364 120.427 86.6717 120.068 87.6517 120.068C88.8184 120.068 89.7004 120.53 90.2977 121.454ZM87.8057 126.256C88.515 126.256 89.1077 126.018 89.5837 125.542C90.0597 125.047 90.2977 124.45 90.2977 123.75C90.2977 123.041 90.0597 122.448 89.5837 121.972C89.1077 121.487 88.515 121.244 87.8057 121.244C87.1057 121.244 86.5177 121.487 86.0417 121.972C85.5657 122.448 85.3277 123.041 85.3277 123.75C85.3277 124.45 85.5657 125.047 86.0417 125.542C86.5177 126.018 87.1057 126.256 87.8057 126.256ZM96.8191 127.432C95.7831 127.432 94.9291 127.091 94.2571 126.41C93.5851 125.719 93.2491 124.842 93.2491 123.778C93.2491 122.574 93.4217 121.655 93.7671 121.02C94.1217 120.376 94.8404 119.793 95.9231 119.27C95.9791 119.242 96.0444 119.209 96.1191 119.172C96.2031 119.135 96.3011 119.093 96.4131 119.046C96.5344 118.99 96.6371 118.943 96.7211 118.906L97.4771 118.57C98.2237 118.197 98.6204 117.749 98.6671 117.226L99.6471 117.786C99.5817 118.113 99.4744 118.374 99.3251 118.57C99.3157 118.589 99.2877 118.631 99.2411 118.696C99.1944 118.752 99.1617 118.794 99.1431 118.822C99.1244 118.841 99.0917 118.873 99.0451 118.92C99.0077 118.957 98.9657 118.995 98.9191 119.032C98.8817 119.069 98.8304 119.107 98.7651 119.144C98.4197 119.359 98.1724 119.499 98.0231 119.564C97.9671 119.592 97.9064 119.62 97.8411 119.648C97.7851 119.676 97.7384 119.699 97.7011 119.718C97.6637 119.737 97.6357 119.751 97.6171 119.76L97.1551 119.956L96.7071 120.138C96.0817 120.409 95.6197 120.684 95.3211 120.964C95.0224 121.244 94.8077 121.599 94.6771 122.028C94.9664 121.673 95.3304 121.403 95.7691 121.216C96.2171 121.029 96.6744 120.936 97.1411 120.936C98.0277 120.936 98.7697 121.235 99.3671 121.832C99.9831 122.439 100.291 123.209 100.291 124.142C100.291 125.094 99.9644 125.883 99.3111 126.508C98.6484 127.124 97.8177 127.432 96.8191 127.432ZM99.0731 124.142C99.0731 123.517 98.8677 123.008 98.4571 122.616C98.0557 122.215 97.5237 122.014 96.8611 122.014C96.2731 122.014 95.7317 122.205 95.2371 122.588C94.7611 122.971 94.5231 123.465 94.5231 124.072C94.5231 124.707 94.7424 125.229 95.1811 125.64C95.6197 126.051 96.1657 126.256 96.8191 126.256C97.4817 126.256 98.0184 126.055 98.4291 125.654C98.8584 125.253 99.0731 124.749 99.0731 124.142ZM107.772 126.368C107.063 127.077 106.19 127.432 105.154 127.432C104.118 127.432 103.246 127.077 102.536 126.368C101.827 125.659 101.472 124.786 101.472 123.75C101.472 122.714 101.827 121.841 102.536 121.132C103.246 120.423 104.118 120.068 105.154 120.068C106.19 120.068 107.063 120.423 107.772 121.132C108.491 121.851 108.85 122.723 108.85 123.75C108.85 124.777 108.491 125.649 107.772 126.368ZM105.154 126.242C105.854 126.242 106.442 126.004 106.918 125.528C107.394 125.052 107.632 124.459 107.632 123.75C107.632 123.041 107.394 122.448 106.918 121.972C106.442 121.496 105.854 121.258 105.154 121.258C104.464 121.258 103.88 121.496 103.404 121.972C102.928 122.448 102.69 123.041 102.69 123.75C102.69 124.459 102.928 125.052 103.404 125.528C103.88 126.004 104.464 126.242 105.154 126.242ZM109.509 120.25H115.501V121.426H113.121V127.25H111.903V121.426H109.509V120.25ZM121.313 123.596V120.25H122.531V127.25H121.313V124.73C120.744 124.973 120.114 125.094 119.423 125.094C118.518 125.094 117.822 124.879 117.337 124.45C116.852 124.021 116.609 123.395 116.609 122.574V120.25H117.827V122.504C117.827 123.017 117.962 123.391 118.233 123.624C118.513 123.848 118.938 123.96 119.507 123.96C120.151 123.96 120.753 123.839 121.313 123.596ZM125.865 125.164L129.743 120.25H130.723V127.25H129.519V122.336L125.641 127.25H124.661V120.25H125.865V125.164ZM135.321 123.638L138.779 127.25H137.267L134.075 123.932V127.25H132.857V120.25H134.075V123.344L137.099 120.25H138.667L135.321 123.638ZM145.458 126.368C144.748 127.077 143.876 127.432 142.84 127.432C141.804 127.432 140.931 127.077 140.222 126.368C139.512 125.659 139.158 124.786 139.158 123.75C139.158 122.714 139.512 121.841 140.222 121.132C140.931 120.423 141.804 120.068 142.84 120.068C143.876 120.068 144.748 120.423 145.458 121.132C146.176 121.851 146.536 122.723 146.536 123.75C146.536 124.777 146.176 125.649 145.458 126.368ZM142.84 126.242C143.54 126.242 144.128 126.004 144.604 125.528C145.08 125.052 145.318 124.459 145.318 123.75C145.318 123.041 145.08 122.448 144.604 121.972C144.128 121.496 143.54 121.258 142.84 121.258C142.149 121.258 141.566 121.496 141.09 121.972C140.614 122.448 140.376 123.041 140.376 123.75C140.376 124.459 140.614 125.052 141.09 125.528C141.566 126.004 142.149 126.242 142.84 126.242ZM152.913 123.652C153.632 123.951 153.991 124.492 153.991 125.276C153.991 125.873 153.795 126.354 153.403 126.718C153.011 127.073 152.461 127.25 151.751 127.25H148.251V120.25H151.471C152.162 120.25 152.699 120.423 153.081 120.768C153.473 121.113 153.669 121.575 153.669 122.154C153.669 122.826 153.417 123.325 152.913 123.652ZM151.415 121.342H149.441V123.176H151.415C152.125 123.176 152.479 122.863 152.479 122.238C152.479 121.641 152.125 121.342 151.415 121.342ZM149.441 126.144H151.681C152.036 126.144 152.307 126.06 152.493 125.892C152.689 125.724 152.787 125.486 152.787 125.178C152.787 124.889 152.689 124.665 152.493 124.506C152.307 124.338 152.036 124.254 151.681 124.254H149.441V126.144Z" fill="black"/>
<path d="M102.626 21.346H105.026V25.442H102.626V29.25H98.1784V25.442H87.5864V21.346L95.0424 6.85H99.7784L92.3544 21.346H98.1784V16.034H102.626V21.346ZM105.563 8.93L111.451 6.85H115.291V29.25H110.875V11.522L106.651 12.706L105.563 8.93ZM86.9124 37.25H88.4004V45.25H87.0404V39.442L84.4964 43.538H84.3204L81.7764 39.442V45.25H80.4004V37.25H81.8884L84.4004 41.298L86.9124 37.25ZM98.5254 41.89H91.8214C91.96 42.594 92.2854 43.1487 92.7974 43.554C93.3094 43.9487 93.9494 44.146 94.7174 44.146C95.7734 44.146 96.5414 43.7567 97.0214 42.978L98.2054 43.65C97.416 44.8553 96.2427 45.458 94.6854 45.458C93.4267 45.458 92.392 45.0633 91.5814 44.274C90.792 43.4633 90.3974 42.4553 90.3974 41.25C90.3974 40.034 90.7867 39.0313 91.5654 38.242C92.344 37.442 93.352 37.042 94.5894 37.042C95.7627 37.042 96.7174 37.458 97.4534 38.29C98.2 39.1007 98.5734 40.0927 98.5734 41.266C98.5734 41.4687 98.5574 41.6767 98.5254 41.89ZM94.5894 38.354C93.8534 38.354 93.2347 38.562 92.7334 38.978C92.2427 39.394 91.9387 39.9593 91.8214 40.674H97.1654C97.048 39.938 96.7547 39.3673 96.2854 38.962C95.816 38.5567 95.2507 38.354 94.5894 38.354ZM104.238 45.458C103.033 45.458 102.03 45.058 101.23 44.258C100.43 43.4473 100.03 42.4447 100.03 41.25C100.03 40.0553 100.43 39.058 101.23 38.258C102.03 37.4473 103.033 37.042 104.238 37.042C105.027 37.042 105.737 37.234 106.366 37.618C106.995 37.9913 107.465 38.498 107.774 39.138L106.606 39.81C106.403 39.3833 106.089 39.042 105.662 38.786C105.246 38.53 104.771 38.402 104.238 38.402C103.438 38.402 102.766 38.674 102.222 39.218C101.689 39.7727 101.422 40.45 101.422 41.25C101.422 42.0393 101.689 42.7113 102.222 43.266C102.766 43.81 103.438 44.082 104.238 44.082C104.771 44.082 105.251 43.9593 105.678 43.714C106.105 43.458 106.43 43.1167 106.654 42.69L107.838 43.378C107.486 44.018 106.99 44.5247 106.35 44.898C105.71 45.2713 105.006 45.458 104.238 45.458ZM108.511 37.25H115.359V38.594H112.639V45.25H111.247V38.594H108.511V37.25ZM123.339 44.242C122.528 45.0527 121.531 45.458 120.347 45.458C119.163 45.458 118.165 45.0527 117.355 44.242C116.544 43.4313 116.139 42.434 116.139 41.25C116.139 40.066 116.544 39.0687 117.355 38.258C118.165 37.4473 119.163 37.042 120.347 37.042C121.531 37.042 122.528 37.4473 123.339 38.258C124.16 39.0793 124.571 40.0767 124.571 41.25C124.571 42.4233 124.16 43.4207 123.339 44.242ZM120.347 44.098C121.147 44.098 121.819 43.826 122.363 43.282C122.907 42.738 123.179 42.0607 123.179 41.25C123.179 40.4393 122.907 39.762 122.363 39.218C121.819 38.674 121.147 38.402 120.347 38.402C119.557 38.402 118.891 38.674 118.347 39.218C117.803 39.762 117.531 40.4393 117.531 41.25C117.531 42.0607 117.803 42.738 118.347 43.282C118.891 43.826 119.557 44.098 120.347 44.098Z" fill="#0047B3"/>
</svg>
