<svg width="204" height="133" viewBox="0 0 204 133" fill="none" xmlns="http://www.w3.org/2000/svg">
<path d="M65.5459 69.5646C66.214 64.8879 63.5419 58.2068 52.1841 56.8706C52.4068 59.3203 52.1838 63.5517 65.5459 69.5646Z" fill="#0047B3"/>
<path d="M66.2134 70.9009C66.2134 73.3506 64.7436 78.25 58.8643 78.25C58.8643 76.2457 60.3341 71.9698 66.2134 70.9009Z" fill="#0047B3"/>
<path d="M64.2096 70.2323C61.9825 72.0139 56.8604 74.9094 49.5112 72.237C51.5155 69.3418 57.2613 65.4219 64.2096 70.2323Z" fill="#0047B3"/>
<path d="M56.861 65.8116C54.2291 67.5914 48.1756 70.484 39.4902 67.8142C41.859 64.922 48.6494 61.006 56.861 65.8116Z" fill="#0047B3"/>
<path d="M47.5073 62.883C44.433 63.6853 38.1058 64.2831 30.8044 58.8745C35.4813 57.5387 41.3635 55.6181 47.5073 62.883Z" fill="#0047B3"/>
<path d="M28.8003 48.8536C32.1408 48.6309 39.6236 49.9225 42.8305 56.8708C39.49 57.0936 32.0072 55.8021 28.8003 48.8536Z" fill="#0047B3"/>
<path d="M38.1891 35.5042C40.2117 38.1721 43.2467 43.7965 39.2059 50.2953C37.1832 47.6275 34.1481 42.0032 38.1891 35.5042Z" fill="#0047B3"/>
<path d="M40.0708 22.1339C40.715 25.4193 40.969 31.8053 34.483 35.8666C33.8388 32.5813 33.5846 26.1954 40.0708 22.1339Z" fill="#0047B3"/>
<path d="M27.1091 17.883C29.6475 19.6415 33.9215 23.7011 32.2437 30.5573C29.7052 28.7989 25.4311 24.7394 27.1091 17.883Z" fill="#0047B3"/>
<path d="M34.6188 8.77914C36.0484 11.8044 37.9927 17.8856 33.6722 23.0923C32.2426 20.0671 30.2981 13.9859 34.6188 8.77914Z" fill="#0047B3"/>
<path d="M46.45 10.5195C45.7006 13.7805 43.4642 19.7605 36.8482 21.1763C37.5975 17.9153 39.8338 11.9353 46.45 10.5195Z" fill="#0047B3"/>
<path d="M40.2891 2.09264C41.1251 4.61204 42.0739 9.58749 38.1727 13.2741C37.3366 10.7547 36.3877 5.77932 40.2891 2.09264Z" fill="#0047B3"/>
<path d="M49.6238 2.03874C49.0842 4.63782 47.4109 9.41856 42.1872 10.6528C42.7267 8.05367 44.3999 3.27291 49.6238 2.03874Z" fill="#0047B3"/>
<path d="M23.2614 38.1838C26.2196 38.4632 32.5918 40.6577 34.4144 47.2006C31.4561 46.9213 25.0839 44.7269 23.2614 38.1838Z" fill="#0047B3"/>
<path d="M26.4982 28.9746C29.1381 30.3385 34.2297 34.754 33.4769 41.5041C30.837 40.1403 25.7454 35.7249 26.4982 28.9746Z" fill="#0047B3"/>
<path d="M50.6292 62.4919C47.534 60.9459 41.8102 56.7984 41.5194 47.4872C45.8039 48.2428 53.0042 52.5645 50.6292 62.4919Z" fill="#0047B3"/>
<path d="M78.1174 66.7H85.3274V68.548H82.6814V76.5H80.7494V68.548H78.1174V66.7ZM90.6505 70.326V69.5H92.4565V76.5H90.6505V75.674C90.1091 76.3553 89.3485 76.696 88.3685 76.696C87.4351 76.696 86.6325 76.3413 85.9605 75.632C85.2978 74.9133 84.9665 74.036 84.9665 73C84.9665 71.9733 85.2978 71.1007 85.9605 70.382C86.6325 69.6633 87.4351 69.304 88.3685 69.304C89.3485 69.304 90.1091 69.6447 90.6505 70.326ZM87.3185 74.428C87.6825 74.792 88.1445 74.974 88.7045 74.974C89.2645 74.974 89.7265 74.792 90.0905 74.428C90.4638 74.0547 90.6505 73.5787 90.6505 73C90.6505 72.4213 90.4638 71.95 90.0905 71.586C89.7265 71.2127 89.2645 71.026 88.7045 71.026C88.1445 71.026 87.6825 71.2127 87.3185 71.586C86.9545 71.95 86.7725 72.4213 86.7725 73C86.7725 73.5787 86.9545 74.0547 87.3185 74.428ZM99.7361 70.368V69.5H101.5V76.164C101.5 77.2373 101.141 78.0633 100.422 78.642C99.7128 79.2113 98.8541 79.496 97.8461 79.496C96.2595 79.496 95.1535 78.9267 94.5281 77.788L96.0681 76.906C96.4135 77.5593 97.0248 77.886 97.9021 77.886C98.4715 77.886 98.9195 77.7367 99.2461 77.438C99.5728 77.1393 99.7361 76.7147 99.7361 76.164V75.408C99.2041 76.1173 98.4575 76.472 97.4961 76.472C96.5068 76.472 95.6761 76.1267 95.0041 75.436C94.3415 74.7267 94.0101 73.8773 94.0101 72.888C94.0101 71.8987 94.3461 71.054 95.0181 70.354C95.6901 69.654 96.5161 69.304 97.4961 69.304C98.4575 69.304 99.2041 69.6587 99.7361 70.368ZM99.1761 74.274C99.5495 73.91 99.7361 73.448 99.7361 72.888C99.7361 72.328 99.5495 71.8753 99.1761 71.53C98.8121 71.166 98.3455 70.984 97.7761 70.984C97.2161 70.984 96.7448 71.166 96.3621 71.53C95.9981 71.8753 95.8161 72.328 95.8161 72.888C95.8161 73.448 95.9981 73.91 96.3621 74.274C96.7355 74.6287 97.2068 74.806 97.7761 74.806C98.3455 74.806 98.8121 74.6287 99.1761 74.274ZM105.224 76.5H103.418V66.28H105.224V76.5ZM108.053 68.66C107.754 68.66 107.493 68.5527 107.269 68.338C107.054 68.114 106.947 67.8527 106.947 67.554C106.947 67.2553 107.054 66.994 107.269 66.77C107.493 66.546 107.754 66.434 108.053 66.434C108.361 66.434 108.622 66.546 108.837 66.77C109.061 66.994 109.173 67.2553 109.173 67.554C109.173 67.8527 109.061 68.114 108.837 68.338C108.622 68.5527 108.361 68.66 108.053 68.66ZM108.963 76.5H107.157V69.5H108.963V76.5ZM114.788 69.304C115.562 69.304 116.192 69.5607 116.678 70.074C117.182 70.5967 117.434 71.306 117.434 72.202V76.5H115.628V72.426C115.628 71.9687 115.502 71.614 115.25 71.362C115.007 71.11 114.671 70.984 114.242 70.984C113.766 70.984 113.388 71.1333 113.108 71.432C112.837 71.7213 112.702 72.1507 112.702 72.72V76.5H110.896V69.5H112.702V70.284C113.131 69.6307 113.826 69.304 114.788 69.304ZM126.06 73.742H120.782C121.015 74.6193 121.673 75.058 122.756 75.058C123.447 75.058 123.969 74.8247 124.324 74.358L125.78 75.198C125.089 76.1967 124.072 76.696 122.728 76.696C121.571 76.696 120.642 76.346 119.942 75.646C119.242 74.946 118.892 74.064 118.892 73C118.892 71.9547 119.237 71.0773 119.928 70.368C120.609 69.6587 121.496 69.304 122.588 69.304C123.624 69.304 124.469 69.6587 125.122 70.368C125.794 71.0773 126.13 71.9547 126.13 73C126.13 73.196 126.107 73.4433 126.06 73.742ZM120.754 72.342H124.324C124.221 71.8847 124.011 71.5347 123.694 71.292C123.386 71.0493 123.017 70.928 122.588 70.928C122.103 70.928 121.701 71.054 121.384 71.306C121.067 71.5487 120.857 71.894 120.754 72.342Z" fill="black"/>
<path d="M139.317 69.5646C138.649 64.8879 141.321 58.2068 152.679 56.8706C152.456 59.3203 152.679 63.5517 139.317 69.5646Z" fill="#0047B3"/>
<path d="M138.649 70.9009C138.649 73.3506 140.119 78.25 145.998 78.25C145.998 76.2457 144.528 71.9698 138.649 70.9009Z" fill="#0047B3"/>
<path d="M140.653 70.2323C142.88 72.0139 148.002 74.9094 155.351 72.237C153.347 69.3418 147.601 65.4219 140.653 70.2323Z" fill="#0047B3"/>
<path d="M148.002 65.8117C150.633 67.5915 156.687 70.4841 165.372 67.8144C163.004 64.9221 156.213 61.0061 148.002 65.8117Z" fill="#0047B3"/>
<path d="M157.355 62.883C160.43 63.6853 166.757 64.2831 174.058 58.8745C169.381 57.5387 163.499 55.6181 157.355 62.883Z" fill="#0047B3"/>
<path d="M176.062 48.8537C172.722 48.631 165.239 49.9227 162.032 56.871C165.373 57.0938 172.855 55.8022 176.062 48.8537Z" fill="#0047B3"/>
<path d="M166.673 35.5042C164.651 38.1721 161.616 43.7965 165.657 50.2953C167.679 47.6275 170.714 42.0032 166.673 35.5042Z" fill="#0047B3"/>
<path d="M164.792 22.1339C164.148 25.4193 163.894 31.8053 170.38 35.8666C171.024 32.5813 171.278 26.1954 164.792 22.1339Z" fill="#0047B3"/>
<path d="M177.754 17.883C175.215 19.6415 170.941 23.7011 172.619 30.5573C175.158 28.7989 179.432 24.7394 177.754 17.883Z" fill="#0047B3"/>
<path d="M170.244 8.77914C168.814 11.8044 166.87 17.8856 171.19 23.0923C172.62 20.0671 174.564 13.9859 170.244 8.77914Z" fill="#0047B3"/>
<path d="M158.413 10.5195C159.162 13.7805 161.398 19.7605 168.014 21.1763C167.265 17.9153 165.029 11.9353 158.413 10.5195Z" fill="#0047B3"/>
<path d="M164.573 2.09264C163.737 4.61204 162.789 9.58749 166.69 13.2741C167.526 10.7547 168.475 5.77932 164.573 2.09264Z" fill="#0047B3"/>
<path d="M155.239 2.03874C155.778 4.63782 157.452 9.41856 162.675 10.6528C162.136 8.05367 160.463 3.27291 155.239 2.03874Z" fill="#0047B3"/>
<path d="M181.601 38.1838C178.643 38.4632 172.271 40.6577 170.448 47.2006C173.406 46.9213 179.779 44.7269 181.601 38.1838Z" fill="#0047B3"/>
<path d="M178.364 28.9746C175.724 30.3385 170.633 34.754 171.386 41.5041C174.026 40.1403 179.117 35.7249 178.364 28.9746Z" fill="#0047B3"/>
<path d="M154.234 62.4919C157.329 60.9459 163.053 56.7984 163.343 47.4872C159.059 48.2428 151.859 52.5645 154.234 62.4919Z" fill="#0047B3"/>
<path d="M27.855 97.8H31.919C32.943 97.8 33.8017 98.1467 34.495 98.84C35.1883 99.5333 35.535 100.387 35.535 101.4C35.535 102.413 35.1883 103.267 34.495 103.96C33.8017 104.653 32.943 105 31.919 105H29.343V109H27.855V97.8ZM29.343 103.608H31.919C32.5483 103.608 33.0603 103.4 33.455 102.984C33.8603 102.547 34.063 102.019 34.063 101.4C34.063 100.76 33.8603 100.232 33.455 99.816C33.0497 99.4 32.5377 99.192 31.919 99.192H29.343V103.608ZM44.5391 105.64H37.8351C37.9738 106.344 38.2991 106.899 38.8111 107.304C39.3231 107.699 39.9631 107.896 40.7311 107.896C41.7871 107.896 42.5551 107.507 43.0351 106.728L44.2191 107.4C43.4298 108.605 42.2565 109.208 40.6991 109.208C39.4405 109.208 38.4058 108.813 37.5951 108.024C36.8058 107.213 36.4111 106.205 36.4111 105C36.4111 103.784 36.8005 102.781 37.5791 101.992C38.3578 101.192 39.3658 100.792 40.6031 100.792C41.7765 100.792 42.7311 101.208 43.4671 102.04C44.2138 102.851 44.5871 103.843 44.5871 105.016C44.5871 105.219 44.5711 105.427 44.5391 105.64ZM40.6031 102.104C39.8671 102.104 39.2485 102.312 38.7471 102.728C38.2565 103.144 37.9525 103.709 37.8351 104.424H43.1791C43.0618 103.688 42.7685 103.117 42.2991 102.712C41.8298 102.307 41.2645 102.104 40.6031 102.104ZM52.1392 99.8H47.8192V98.584H52.1392V99.8ZM47.8832 106.616L52.3152 101H53.4352V109H52.0592V103.384L47.6272 109H46.5072V101H47.8832V106.616ZM54.9781 101H61.8261V102.344H59.1061V109H57.7141V102.344H54.9781V101ZM64.742 106.616L69.174 101H70.294V109H68.918V103.384L64.486 109H63.366V101H64.742V106.616ZM78.2689 104.328V101H79.6609V109H78.2689V105.656H74.1249V109H72.7329V101H74.1249V104.328H78.2689ZM82.0997 101H87.3477V102.344H83.4917V109H82.0997V101ZM99.7205 101H101.208V109H99.8485V103.192L97.3045 107.288H97.1285L94.5845 103.192V109H93.2085V101H94.6965L97.2085 105.048L99.7205 101ZM110.405 107.992C109.595 108.803 108.597 109.208 107.413 109.208C106.229 109.208 105.232 108.803 104.421 107.992C103.611 107.181 103.205 106.184 103.205 105C103.205 103.816 103.611 102.819 104.421 102.008C105.232 101.197 106.229 100.792 107.413 100.792C108.597 100.792 109.595 101.197 110.405 102.008C111.227 102.829 111.637 103.827 111.637 105C111.637 106.173 111.227 107.171 110.405 107.992ZM107.413 107.848C108.213 107.848 108.885 107.576 109.429 107.032C109.973 106.488 110.245 105.811 110.245 105C110.245 104.189 109.973 103.512 109.429 102.968C108.885 102.424 108.213 102.152 107.413 102.152C106.624 102.152 105.957 102.424 105.413 102.968C104.869 103.512 104.597 104.189 104.597 105C104.597 105.811 104.869 106.488 105.413 107.032C105.957 107.576 106.624 107.848 107.413 107.848ZM117.23 109.208C116.046 109.208 115.07 108.819 114.302 108.04C113.534 107.251 113.15 106.248 113.15 105.032C113.15 103.656 113.348 102.605 113.742 101.88C114.148 101.144 114.969 100.477 116.206 99.88C116.27 99.848 116.345 99.8107 116.43 99.768C116.526 99.7253 116.638 99.6773 116.766 99.624C116.905 99.56 117.022 99.5067 117.118 99.464L117.982 99.08C118.836 98.6533 119.289 98.1413 119.342 97.544L120.462 98.184C120.388 98.5573 120.265 98.856 120.094 99.08C120.084 99.1013 120.052 99.1493 119.998 99.224C119.945 99.288 119.908 99.336 119.886 99.368C119.865 99.3893 119.828 99.4267 119.774 99.48C119.732 99.5227 119.684 99.5653 119.63 99.608C119.588 99.6507 119.529 99.6933 119.454 99.736C119.06 99.9813 118.777 100.141 118.606 100.216C118.542 100.248 118.473 100.28 118.398 100.312C118.334 100.344 118.281 100.371 118.238 100.392C118.196 100.413 118.164 100.429 118.142 100.44L117.614 100.664L117.102 100.872C116.388 101.181 115.86 101.496 115.518 101.816C115.177 102.136 114.932 102.541 114.782 103.032C115.113 102.627 115.529 102.317 116.03 102.104C116.542 101.891 117.065 101.784 117.598 101.784C118.612 101.784 119.46 102.125 120.142 102.808C120.846 103.501 121.198 104.381 121.198 105.448C121.198 106.536 120.825 107.437 120.078 108.152C119.321 108.856 118.372 109.208 117.23 109.208ZM119.806 105.448C119.806 104.733 119.572 104.152 119.102 103.704C118.644 103.245 118.036 103.016 117.278 103.016C116.606 103.016 115.988 103.235 115.422 103.672C114.878 104.109 114.606 104.675 114.606 105.368C114.606 106.093 114.857 106.691 115.358 107.16C115.86 107.629 116.484 107.864 117.23 107.864C117.988 107.864 118.601 107.635 119.07 107.176C119.561 106.717 119.806 106.141 119.806 105.448ZM124.373 106.616L128.805 101H129.925V109H128.549V103.384L124.117 109H122.997V101H124.373V106.616ZM133.099 101H139.035V109H137.643V102.344H134.491V105.608C134.491 106.888 134.235 107.8 133.723 108.344C133.211 108.877 132.459 109.096 131.467 109V107.688C132.022 107.763 132.433 107.64 132.699 107.32C132.966 106.989 133.099 106.408 133.099 105.576V101ZM142.857 103.88H144.841C145.641 103.88 146.302 104.12 146.825 104.6C147.358 105.069 147.625 105.683 147.625 106.44C147.625 107.197 147.358 107.816 146.825 108.296C146.291 108.765 145.63 109 144.841 109H141.465V101H142.857V103.88ZM142.857 107.704H144.841C145.246 107.704 145.582 107.587 145.849 107.352C146.115 107.117 146.249 106.813 146.249 106.44C146.249 106.067 146.11 105.763 145.833 105.528C145.566 105.283 145.235 105.16 144.841 105.16H142.857V107.704ZM154.977 104.328V101H156.369V109H154.977V105.656H150.833V109H149.441V101H150.833V104.328H154.977ZM160.2 103.88H162.184C162.984 103.88 163.645 104.12 164.168 104.6C164.701 105.069 164.968 105.683 164.968 106.44C164.968 107.197 164.701 107.816 164.168 108.296C163.635 108.765 162.973 109 162.184 109H158.808V101H160.2V103.88ZM166.008 109V101H167.4V109H166.008ZM160.2 107.704H162.184C162.589 107.704 162.925 107.587 163.192 107.352C163.459 107.117 163.592 106.813 163.592 106.44C163.592 106.067 163.453 105.763 163.176 105.528C162.909 105.283 162.579 105.16 162.184 105.16H160.2V107.704ZM173.735 104.872L176.791 109H175.159L172.919 105.976L170.663 109H169.031L172.103 104.888L169.207 101H170.855L172.919 103.784L174.983 101H176.615L173.735 104.872ZM47.6067 119.792C48.7267 119.792 49.6814 120.203 50.4707 121.024C51.26 121.845 51.6547 122.837 51.6547 124C51.6547 125.173 51.26 126.171 50.4707 126.992C49.692 127.803 48.7374 128.208 47.6067 128.208C46.284 128.208 45.276 127.68 44.5827 126.624V131.2H43.1907V120H44.5827V121.376C45.276 120.32 46.284 119.792 47.6067 119.792ZM47.4307 126.864C48.2307 126.864 48.9027 126.592 49.4467 126.048C49.9907 125.483 50.2627 124.8 50.2627 124C50.2627 123.189 49.9907 122.512 49.4467 121.968C48.9027 121.413 48.2307 121.136 47.4307 121.136C46.62 121.136 45.9427 121.413 45.3987 121.968C44.8547 122.512 44.5827 123.189 44.5827 124C44.5827 124.8 44.8547 125.483 45.3987 126.048C45.9427 126.592 46.62 126.864 47.4307 126.864ZM60.2597 121.376V120H61.6517V128H60.2597V126.624C59.577 127.68 58.569 128.208 57.2357 128.208C56.105 128.208 55.1504 127.803 54.3717 126.992C53.5824 126.171 53.1877 125.173 53.1877 124C53.1877 122.837 53.5824 121.845 54.3717 121.024C55.161 120.203 56.1157 119.792 57.2357 119.792C58.569 119.792 59.577 120.32 60.2597 121.376ZM57.4117 126.864C58.2224 126.864 58.8997 126.592 59.4437 126.048C59.9877 125.483 60.2597 124.8 60.2597 124C60.2597 123.189 59.9877 122.512 59.4437 121.968C58.8997 121.413 58.2224 121.136 57.4117 121.136C56.6117 121.136 55.9397 121.413 55.3957 121.968C54.8517 122.512 54.5797 123.189 54.5797 124C54.5797 124.8 54.8517 125.483 55.3957 126.048C55.9397 126.592 56.6117 126.864 57.4117 126.864ZM68.4007 123.904C69.286 124.277 69.7287 124.912 69.7287 125.808C69.7287 126.501 69.4567 127.077 68.9127 127.536C68.3687 127.984 67.6167 128.208 66.6567 128.208C65.0567 128.208 63.9847 127.568 63.4407 126.288L64.6087 125.6C64.9074 126.475 65.5954 126.912 66.6727 126.912C67.1954 126.912 67.606 126.8 67.9047 126.576C68.2034 126.352 68.3527 126.053 68.3527 125.68C68.3527 125.36 68.23 125.099 67.9847 124.896C67.75 124.693 67.43 124.592 67.0247 124.592H65.8567V123.328H66.7207C67.126 123.328 67.4407 123.232 67.6647 123.04C67.8887 122.837 68.0007 122.565 68.0007 122.224C68.0007 121.872 67.8674 121.595 67.6007 121.392C67.334 121.179 66.9767 121.072 66.5287 121.072C65.6327 121.072 65.0247 121.451 64.7047 122.208L63.5687 121.552C64.134 120.379 65.1207 119.792 66.5287 119.792C67.382 119.792 68.0647 120.016 68.5767 120.464C69.0994 120.901 69.3607 121.451 69.3607 122.112C69.3607 122.923 69.0407 123.52 68.4007 123.904ZM75.9729 119.792C77.0929 119.792 78.0476 120.203 78.8369 121.024C79.6263 121.845 80.0209 122.837 80.0209 124C80.0209 125.173 79.6263 126.171 78.8369 126.992C78.0583 127.803 77.1036 128.208 75.9729 128.208C74.6503 128.208 73.6423 127.68 72.9489 126.624V131.2H71.5569V120H72.9489V121.376C73.6423 120.32 74.6503 119.792 75.9729 119.792ZM75.7969 126.864C76.5969 126.864 77.2689 126.592 77.8129 126.048C78.3569 125.483 78.6289 124.8 78.6289 124C78.6289 123.189 78.3569 122.512 77.8129 121.968C77.2689 121.413 76.5969 121.136 75.7969 121.136C74.9863 121.136 74.3089 121.413 73.7649 121.968C73.2209 122.512 72.9489 123.189 72.9489 124C72.9489 124.8 73.2209 125.483 73.7649 126.048C74.3089 126.592 74.9863 126.864 75.7969 126.864ZM88.6259 121.376V120H90.0179V128H88.6259V126.624C87.9433 127.68 86.9353 128.208 85.6019 128.208C84.4713 128.208 83.5166 127.803 82.7379 126.992C81.9486 126.171 81.5539 125.173 81.5539 124C81.5539 122.837 81.9486 121.845 82.7379 121.024C83.5273 120.203 84.4819 119.792 85.6019 119.792C86.9353 119.792 87.9433 120.32 88.6259 121.376ZM85.7779 126.864C86.5886 126.864 87.2659 126.592 87.8099 126.048C88.3539 125.483 88.6259 124.8 88.6259 124C88.6259 123.189 88.3539 122.512 87.8099 121.968C87.2659 121.413 86.5886 121.136 85.7779 121.136C84.9779 121.136 84.3059 121.413 83.7619 121.968C83.2179 122.512 82.9459 123.189 82.9459 124C82.9459 124.8 83.2179 125.483 83.7619 126.048C84.3059 126.592 84.9779 126.864 85.7779 126.864ZM96.0789 128.208C94.8949 128.208 93.9189 127.819 93.1509 127.04C92.3829 126.251 91.9989 125.248 91.9989 124.032C91.9989 122.656 92.1963 121.605 92.5909 120.88C92.9963 120.144 93.8176 119.477 95.0549 118.88C95.1189 118.848 95.1936 118.811 95.2789 118.768C95.3749 118.725 95.4869 118.677 95.6149 118.624C95.7536 118.56 95.8709 118.507 95.9669 118.464L96.8309 118.08C97.6843 117.653 98.1376 117.141 98.1909 116.544L99.3109 117.184C99.2363 117.557 99.1136 117.856 98.9429 118.08C98.9323 118.101 98.9003 118.149 98.8469 118.224C98.7936 118.288 98.7563 118.336 98.7349 118.368C98.7136 118.389 98.6763 118.427 98.6229 118.48C98.5803 118.523 98.5323 118.565 98.4789 118.608C98.4363 118.651 98.3776 118.693 98.3029 118.736C97.9083 118.981 97.6256 119.141 97.4549 119.216C97.3909 119.248 97.3216 119.28 97.2469 119.312C97.1829 119.344 97.1296 119.371 97.0869 119.392C97.0443 119.413 97.0123 119.429 96.9909 119.44L96.4629 119.664L95.9509 119.872C95.2363 120.181 94.7083 120.496 94.3669 120.816C94.0256 121.136 93.7803 121.541 93.6309 122.032C93.9616 121.627 94.3776 121.317 94.8789 121.104C95.3909 120.891 95.9136 120.784 96.4469 120.784C97.4603 120.784 98.3083 121.125 98.9909 121.808C99.6949 122.501 100.047 123.381 100.047 124.448C100.047 125.536 99.6736 126.437 98.9269 127.152C98.1696 127.856 97.2203 128.208 96.0789 128.208ZM98.6549 124.448C98.6549 123.733 98.4203 123.152 97.9509 122.704C97.4923 122.245 96.8843 122.016 96.1269 122.016C95.4549 122.016 94.8363 122.235 94.2709 122.672C93.7269 123.109 93.4549 123.675 93.4549 124.368C93.4549 125.093 93.7056 125.691 94.2069 126.16C94.7083 126.629 95.3323 126.864 96.0789 126.864C96.8363 126.864 97.4496 126.635 97.9189 126.176C98.4096 125.717 98.6549 125.141 98.6549 124.448ZM108.597 126.992C107.786 127.803 106.789 128.208 105.605 128.208C104.421 128.208 103.424 127.803 102.613 126.992C101.802 126.181 101.397 125.184 101.397 124C101.397 122.816 101.802 121.819 102.613 121.008C103.424 120.197 104.421 119.792 105.605 119.792C106.789 119.792 107.786 120.197 108.597 121.008C109.418 121.829 109.829 122.827 109.829 124C109.829 125.173 109.418 126.171 108.597 126.992ZM105.605 126.848C106.405 126.848 107.077 126.576 107.621 126.032C108.165 125.488 108.437 124.811 108.437 124C108.437 123.189 108.165 122.512 107.621 121.968C107.077 121.424 106.405 121.152 105.605 121.152C104.816 121.152 104.149 121.424 103.605 121.968C103.061 122.512 102.789 123.189 102.789 124C102.789 124.811 103.061 125.488 103.605 126.032C104.149 126.576 104.816 126.848 105.605 126.848ZM110.582 120H117.43V121.344H114.71V128H113.318V121.344H110.582V120ZM124.072 123.824V120H125.464V128H124.072V125.12C123.421 125.397 122.701 125.536 121.912 125.536C120.877 125.536 120.083 125.291 119.528 124.8C118.973 124.309 118.696 123.595 118.696 122.656V120H120.088V122.576C120.088 123.163 120.243 123.589 120.552 123.856C120.872 124.112 121.357 124.24 122.008 124.24C122.744 124.24 123.432 124.101 124.072 123.824ZM129.275 125.616L133.707 120H134.827V128H133.451V122.384L129.019 128H127.899V120H129.275V125.616ZM140.082 123.872L144.034 128H142.306L138.658 124.208V128H137.266V120H138.658V123.536L142.114 120H143.906L140.082 123.872ZM151.666 126.992C150.855 127.803 149.858 128.208 148.674 128.208C147.49 128.208 146.492 127.803 145.682 126.992C144.871 126.181 144.466 125.184 144.466 124C144.466 122.816 144.871 121.819 145.682 121.008C146.492 120.197 147.49 119.792 148.674 119.792C149.858 119.792 150.855 120.197 151.666 121.008C152.487 121.829 152.898 122.827 152.898 124C152.898 125.173 152.487 126.171 151.666 126.992ZM148.674 126.848C149.474 126.848 150.146 126.576 150.69 126.032C151.234 125.488 151.506 124.811 151.506 124C151.506 123.189 151.234 122.512 150.69 121.968C150.146 121.424 149.474 121.152 148.674 121.152C147.884 121.152 147.218 121.424 146.674 121.968C146.13 122.512 145.858 123.189 145.858 124C145.858 124.811 146.13 125.488 146.674 126.032C147.218 126.576 147.884 126.848 148.674 126.848ZM160.187 123.888C161.008 124.229 161.419 124.848 161.419 125.744C161.419 126.427 161.195 126.976 160.747 127.392C160.299 127.797 159.669 128 158.859 128H154.859V120H158.539C159.328 120 159.941 120.197 160.379 120.592C160.827 120.987 161.051 121.515 161.051 122.176C161.051 122.944 160.763 123.515 160.187 123.888ZM158.475 121.248H156.219V123.344H158.475C159.285 123.344 159.691 122.987 159.691 122.272C159.691 121.589 159.285 121.248 158.475 121.248ZM156.219 126.736H158.779C159.184 126.736 159.493 126.64 159.707 126.448C159.931 126.256 160.043 125.984 160.043 125.632C160.043 125.301 159.931 125.045 159.707 124.864C159.493 124.672 159.184 124.576 158.779 124.576H156.219V126.736Z" fill="black"/>
<path d="M102.626 22.096H105.026V26.192H102.626V30H98.1784V26.192H87.5864V22.096L95.0424 7.6H99.7784L92.3544 22.096H98.1784V16.784H102.626V22.096ZM105.563 9.68L111.451 7.6H115.291V30H110.875V12.272L106.651 13.456L105.563 9.68ZM86.9124 38H88.4004V46H87.0404V40.192L84.4964 44.288H84.3204L81.7764 40.192V46H80.4004V38H81.8884L84.4004 42.048L86.9124 38ZM98.5254 42.64H91.8214C91.96 43.344 92.2854 43.8987 92.7974 44.304C93.3094 44.6987 93.9494 44.896 94.7174 44.896C95.7734 44.896 96.5414 44.5067 97.0214 43.728L98.2054 44.4C97.416 45.6053 96.2427 46.208 94.6854 46.208C93.4267 46.208 92.392 45.8133 91.5814 45.024C90.792 44.2133 90.3974 43.2053 90.3974 42C90.3974 40.784 90.7867 39.7813 91.5654 38.992C92.344 38.192 93.352 37.792 94.5894 37.792C95.7627 37.792 96.7174 38.208 97.4534 39.04C98.2 39.8507 98.5734 40.8427 98.5734 42.016C98.5734 42.2187 98.5574 42.4267 98.5254 42.64ZM94.5894 39.104C93.8534 39.104 93.2347 39.312 92.7334 39.728C92.2427 40.144 91.9387 40.7093 91.8214 41.424H97.1654C97.048 40.688 96.7547 40.1173 96.2854 39.712C95.816 39.3067 95.2507 39.104 94.5894 39.104ZM104.238 46.208C103.033 46.208 102.03 45.808 101.23 45.008C100.43 44.1973 100.03 43.1947 100.03 42C100.03 40.8053 100.43 39.808 101.23 39.008C102.03 38.1973 103.033 37.792 104.238 37.792C105.027 37.792 105.737 37.984 106.366 38.368C106.995 38.7413 107.465 39.248 107.774 39.888L106.606 40.56C106.403 40.1333 106.089 39.792 105.662 39.536C105.246 39.28 104.771 39.152 104.238 39.152C103.438 39.152 102.766 39.424 102.222 39.968C101.689 40.5227 101.422 41.2 101.422 42C101.422 42.7893 101.689 43.4613 102.222 44.016C102.766 44.56 103.438 44.832 104.238 44.832C104.771 44.832 105.251 44.7093 105.678 44.464C106.105 44.208 106.43 43.8667 106.654 43.44L107.838 44.128C107.486 44.768 106.99 45.2747 106.35 45.648C105.71 46.0213 105.006 46.208 104.238 46.208ZM108.511 38H115.359V39.344H112.639V46H111.247V39.344H108.511V38ZM123.339 44.992C122.528 45.8027 121.531 46.208 120.347 46.208C119.163 46.208 118.165 45.8027 117.355 44.992C116.544 44.1813 116.139 43.184 116.139 42C116.139 40.816 116.544 39.8187 117.355 39.008C118.165 38.1973 119.163 37.792 120.347 37.792C121.531 37.792 122.528 38.1973 123.339 39.008C124.16 39.8293 124.571 40.8267 124.571 42C124.571 43.1733 124.16 44.1707 123.339 44.992ZM120.347 44.848C121.147 44.848 121.819 44.576 122.363 44.032C122.907 43.488 123.179 42.8107 123.179 42C123.179 41.1893 122.907 40.512 122.363 39.968C121.819 39.424 121.147 39.152 120.347 39.152C119.557 39.152 118.891 39.424 118.347 39.968C117.803 40.512 117.531 41.1893 117.531 42C117.531 42.8107 117.803 43.488 118.347 44.032C118.891 44.576 119.557 44.848 120.347 44.848Z" fill="#0047B3"/>
</svg>
