<svg width="185" height="116" viewBox="0 0 185 116" fill="none" xmlns="http://www.w3.org/2000/svg">
<path d="M55.7954 68.8146C56.4635 64.1379 53.7914 57.4568 42.4336 56.1206C42.6563 58.5703 42.4333 62.8017 55.7954 68.8146Z" fill="#0047B3"/>
<path d="M56.4634 70.1509C56.4634 72.6006 54.9936 77.5 49.1143 77.5C49.1143 75.4957 50.5841 71.2198 56.4634 70.1509Z" fill="#0047B3"/>
<path d="M54.4596 69.4823C52.2325 71.2639 47.1104 74.1594 39.7612 71.487C41.7655 68.5918 47.5113 64.6719 54.4596 69.4823Z" fill="#0047B3"/>
<path d="M47.111 65.0616C44.4791 66.8414 38.4256 69.734 29.7402 67.0642C32.109 64.172 38.8994 60.256 47.111 65.0616Z" fill="#0047B3"/>
<path d="M37.7573 62.133C34.683 62.9353 28.3558 63.5331 21.0544 58.1245C25.7313 56.7887 31.6135 54.8681 37.7573 62.133Z" fill="#0047B3"/>
<path d="M19.0498 48.1037C22.3903 47.881 29.8731 49.1727 33.08 56.121C29.7395 56.3438 22.2567 55.0522 19.0498 48.1037Z" fill="#0047B3"/>
<path d="M28.4391 34.7542C30.4617 37.4221 33.4967 43.0465 29.4559 49.5453C27.4332 46.8775 24.3981 41.2532 28.4391 34.7542Z" fill="#0047B3"/>
<path d="M30.3203 21.3839C30.9645 24.6693 31.2186 31.0553 24.7325 35.1166C24.0883 31.8313 23.8341 25.4454 30.3203 21.3839Z" fill="#0047B3"/>
<path d="M17.3591 17.133C19.8975 18.8915 24.1715 22.9511 22.4937 29.8073C19.9552 28.0489 15.6811 23.9894 17.3591 17.133Z" fill="#0047B3"/>
<path d="M24.8688 8.02926C26.2984 11.0545 28.2427 17.1358 23.9222 22.3425C22.4926 19.3173 20.5481 13.236 24.8688 8.02926Z" fill="#0047B3"/>
<path d="M36.6998 9.7695C35.9503 13.0305 33.714 19.0105 27.0979 20.4263C27.8473 17.1653 30.0836 11.1853 36.6998 9.7695Z" fill="#0047B3"/>
<path d="M30.5386 1.34264C31.3747 3.86204 32.3235 8.83749 28.4222 12.5241C27.5861 10.0047 26.6372 5.02932 30.5386 1.34264Z" fill="#0047B3"/>
<path d="M39.8736 1.28874C39.334 3.88782 37.6607 8.66856 32.4369 9.90276C32.9765 7.30367 34.6496 2.52291 39.8736 1.28874Z" fill="#0047B3"/>
<path d="M13.5114 37.4338C16.4696 37.7132 22.8418 39.9077 24.6644 46.4506C21.7061 46.1713 15.3339 43.9769 13.5114 37.4338Z" fill="#0047B3"/>
<path d="M16.7477 28.2247C19.3876 29.5887 24.4792 34.0041 23.7264 40.7542C21.0865 39.3904 15.9949 34.975 16.7477 28.2247Z" fill="#0047B3"/>
<path d="M40.8787 61.7417C37.7835 60.1958 32.0597 56.0483 31.7689 46.7371C36.0534 47.4926 43.2537 51.8143 40.8787 61.7417Z" fill="#0047B3"/>
<path d="M68.3674 65.95H75.5774V67.798H72.9314V75.75H70.9994V67.798H68.3674V65.95ZM80.9005 69.576V68.75H82.7065V75.75H80.9005V74.924C80.3591 75.6053 79.5985 75.946 78.6185 75.946C77.6851 75.946 76.8825 75.5913 76.2105 74.882C75.5478 74.1633 75.2165 73.286 75.2165 72.25C75.2165 71.2233 75.5478 70.3507 76.2105 69.632C76.8825 68.9133 77.6851 68.554 78.6185 68.554C79.5985 68.554 80.3591 68.8947 80.9005 69.576ZM77.5685 73.678C77.9325 74.042 78.3945 74.224 78.9545 74.224C79.5145 74.224 79.9765 74.042 80.3405 73.678C80.7138 73.3047 80.9005 72.8287 80.9005 72.25C80.9005 71.6713 80.7138 71.2 80.3405 70.836C79.9765 70.4627 79.5145 70.276 78.9545 70.276C78.3945 70.276 77.9325 70.4627 77.5685 70.836C77.2045 71.2 77.0225 71.6713 77.0225 72.25C77.0225 72.8287 77.2045 73.3047 77.5685 73.678ZM89.9861 69.618V68.75H91.7501V75.414C91.7501 76.4873 91.3908 77.3133 90.6721 77.892C89.9628 78.4613 89.1041 78.746 88.0961 78.746C86.5095 78.746 85.4035 78.1767 84.7781 77.038L86.3181 76.156C86.6635 76.8093 87.2748 77.136 88.1521 77.136C88.7215 77.136 89.1695 76.9867 89.4961 76.688C89.8228 76.3893 89.9861 75.9647 89.9861 75.414V74.658C89.4541 75.3673 88.7075 75.722 87.7461 75.722C86.7568 75.722 85.9261 75.3767 85.2541 74.686C84.5915 73.9767 84.2601 73.1273 84.2601 72.138C84.2601 71.1487 84.5961 70.304 85.2681 69.604C85.9401 68.904 86.7661 68.554 87.7461 68.554C88.7075 68.554 89.4541 68.9087 89.9861 69.618ZM89.4261 73.524C89.7995 73.16 89.9861 72.698 89.9861 72.138C89.9861 71.578 89.7995 71.1253 89.4261 70.78C89.0621 70.416 88.5955 70.234 88.0261 70.234C87.4661 70.234 86.9948 70.416 86.6121 70.78C86.2481 71.1253 86.0661 71.578 86.0661 72.138C86.0661 72.698 86.2481 73.16 86.6121 73.524C86.9855 73.8787 87.4568 74.056 88.0261 74.056C88.5955 74.056 89.0621 73.8787 89.4261 73.524ZM95.4738 75.75H93.6678V65.53H95.4738V75.75ZM98.3028 67.91C98.0041 67.91 97.7428 67.8027 97.5188 67.588C97.3041 67.364 97.1968 67.1027 97.1968 66.804C97.1968 66.5053 97.3041 66.244 97.5188 66.02C97.7428 65.796 98.0041 65.684 98.3028 65.684C98.6108 65.684 98.8721 65.796 99.0868 66.02C99.3108 66.244 99.4228 66.5053 99.4228 66.804C99.4228 67.1027 99.3108 67.364 99.0868 67.588C98.8721 67.8027 98.6108 67.91 98.3028 67.91ZM99.2128 75.75H97.4068V68.75H99.2128V75.75ZM105.038 68.554C105.812 68.554 106.442 68.8107 106.928 69.324C107.432 69.8467 107.684 70.556 107.684 71.452V75.75H105.878V71.676C105.878 71.2187 105.752 70.864 105.5 70.612C105.257 70.36 104.921 70.234 104.492 70.234C104.016 70.234 103.638 70.3833 103.358 70.682C103.087 70.9713 102.952 71.4007 102.952 71.97V75.75H101.146V68.75H102.952V69.534C103.381 68.8807 104.076 68.554 105.038 68.554ZM116.31 72.992H111.032C111.265 73.8693 111.923 74.308 113.006 74.308C113.697 74.308 114.219 74.0747 114.574 73.608L116.03 74.448C115.339 75.4467 114.322 75.946 112.978 75.946C111.821 75.946 110.892 75.596 110.192 74.896C109.492 74.196 109.142 73.314 109.142 72.25C109.142 71.2047 109.487 70.3273 110.178 69.618C110.859 68.9087 111.746 68.554 112.838 68.554C113.874 68.554 114.719 68.9087 115.372 69.618C116.044 70.3273 116.38 71.2047 116.38 72.25C116.38 72.446 116.357 72.6933 116.31 72.992ZM111.004 71.592H114.574C114.471 71.1347 114.261 70.7847 113.944 70.542C113.636 70.2993 113.267 70.178 112.838 70.178C112.353 70.178 111.951 70.304 111.634 70.556C111.317 70.7987 111.107 71.144 111.004 71.592Z" fill="black"/>
<path d="M129.567 68.8146C128.899 64.1379 131.571 57.4568 142.929 56.1206C142.706 58.5703 142.929 62.8017 129.567 68.8146Z" fill="#0047B3"/>
<path d="M128.899 70.1509C128.899 72.6006 130.369 77.5 136.248 77.5C136.248 75.4957 134.778 71.2198 128.899 70.1509Z" fill="#0047B3"/>
<path d="M130.903 69.4823C133.13 71.2639 138.252 74.1594 145.601 71.487C143.597 68.5918 137.851 64.6719 130.903 69.4823Z" fill="#0047B3"/>
<path d="M138.251 65.0618C140.883 66.8417 146.937 69.7343 155.622 67.0645C153.253 64.1723 146.463 60.2563 138.251 65.0618Z" fill="#0047B3"/>
<path d="M147.605 62.133C150.679 62.9353 157.006 63.5331 164.308 58.1245C159.631 56.7887 153.749 54.8681 147.605 62.133Z" fill="#0047B3"/>
<path d="M166.312 48.1037C162.972 47.881 155.489 49.1727 152.282 56.121C155.623 56.3438 163.106 55.0522 166.312 48.1037Z" fill="#0047B3"/>
<path d="M156.923 34.7542C154.901 37.4221 151.866 43.0465 155.906 49.5453C157.929 46.8775 160.964 41.2532 156.923 34.7542Z" fill="#0047B3"/>
<path d="M155.042 21.3839C154.398 24.6693 154.144 31.0553 160.63 35.1166C161.274 31.8313 161.528 25.4454 155.042 21.3839Z" fill="#0047B3"/>
<path d="M168.004 17.133C165.465 18.8915 161.191 22.9511 162.869 29.8073C165.408 28.0489 169.682 23.9894 168.004 17.133Z" fill="#0047B3"/>
<path d="M160.493 8.02926C159.064 11.0545 157.12 17.1358 161.44 22.3425C162.87 19.3173 164.814 13.236 160.493 8.02926Z" fill="#0047B3"/>
<path d="M148.663 9.7695C149.412 13.0305 151.648 19.0105 158.264 20.4263C157.515 17.1653 155.279 11.1853 148.663 9.7695Z" fill="#0047B3"/>
<path d="M154.824 1.34264C153.988 3.86204 153.039 8.83749 156.94 12.5241C157.776 10.0047 158.725 5.02932 154.824 1.34264Z" fill="#0047B3"/>
<path d="M145.489 1.28874C146.028 3.88782 147.702 8.66856 152.925 9.90276C152.386 7.30367 150.713 2.52291 145.489 1.28874Z" fill="#0047B3"/>
<path d="M171.851 37.4338C168.893 37.7132 162.521 39.9077 160.698 46.4506C163.656 46.1713 170.028 43.9769 171.851 37.4338Z" fill="#0047B3"/>
<path d="M168.615 28.2247C165.975 29.5887 160.883 34.0041 161.636 40.7542C164.276 39.3904 169.367 34.975 168.615 28.2247Z" fill="#0047B3"/>
<path d="M144.484 61.7417C147.579 60.1958 153.303 56.0483 153.593 46.7371C149.309 47.4926 142.109 51.8143 144.484 61.7417Z" fill="#0047B3"/>
<path d="M20.0046 100.45H23.5606C24.4566 100.45 25.2079 100.753 25.8146 101.36C26.4213 101.967 26.7246 102.713 26.7246 103.6C26.7246 104.487 26.4213 105.233 25.8146 105.84C25.2079 106.447 24.4566 106.75 23.5606 106.75H21.3066V110.25H20.0046V100.45ZM21.3066 105.532H23.5606C24.1113 105.532 24.5593 105.35 24.9046 104.986C25.2593 104.603 25.4366 104.141 25.4366 103.6C25.4366 103.04 25.2593 102.578 24.9046 102.214C24.5499 101.85 24.1019 101.668 23.5606 101.668H21.3066V105.532ZM34.6032 107.31H28.7372C28.8586 107.926 29.1432 108.411 29.5912 108.766C30.0392 109.111 30.5992 109.284 31.2712 109.284C32.1952 109.284 32.8672 108.943 33.2872 108.262L34.3232 108.85C33.6326 109.905 32.6059 110.432 31.2432 110.432C30.1419 110.432 29.2366 110.087 28.5272 109.396C27.8366 108.687 27.4912 107.805 27.4912 106.75C27.4912 105.686 27.8319 104.809 28.5132 104.118C29.1946 103.418 30.0766 103.068 31.1592 103.068C32.1859 103.068 33.0212 103.432 33.6652 104.16C34.3186 104.869 34.6452 105.737 34.6452 106.764C34.6452 106.941 34.6312 107.123 34.6032 107.31ZM31.1592 104.216C30.5152 104.216 29.9739 104.398 29.5352 104.762C29.1059 105.126 28.8399 105.621 28.7372 106.246H33.4132C33.3106 105.602 33.0539 105.103 32.6432 104.748C32.2326 104.393 31.7379 104.216 31.1592 104.216ZM41.2533 102.2H37.4733V101.136H41.2533V102.2ZM37.5293 108.164L41.4073 103.25H42.3873V110.25H41.1833V105.336L37.3053 110.25H36.3253V103.25H37.5293V108.164ZM43.7373 103.25H49.7293V104.426H47.3493V110.25H46.1313V104.426H43.7373V103.25ZM52.2807 108.164L56.1587 103.25H57.1387V110.25H55.9347V105.336L52.0567 110.25H51.0767V103.25H52.2807V108.164ZM64.1168 106.162V103.25H65.3348V110.25H64.1168V107.324H60.4908V110.25H59.2728V103.25H60.4908V106.162H64.1168ZM67.4688 103.25H72.0608V104.426H68.6868V110.25H67.4688V103.25ZM82.9849 104.454V103.25H84.2029V110.25H82.9849V109.046C82.3876 109.97 81.5056 110.432 80.3389 110.432C79.3496 110.432 78.5143 110.077 77.8329 109.368C77.1423 108.649 76.7969 107.777 76.7969 106.75C76.7969 105.733 77.1423 104.865 77.8329 104.146C78.5236 103.427 79.3589 103.068 80.3389 103.068C81.5056 103.068 82.3876 103.53 82.9849 104.454ZM80.4929 109.256C81.2023 109.256 81.7949 109.018 82.2709 108.542C82.7469 108.047 82.9849 107.45 82.9849 106.75C82.9849 106.041 82.7469 105.448 82.2709 104.972C81.7949 104.487 81.2023 104.244 80.4929 104.244C79.7929 104.244 79.2049 104.487 78.7289 104.972C78.2529 105.448 78.0149 106.041 78.0149 106.75C78.0149 107.45 78.2529 108.047 78.7289 108.542C79.2049 109.018 79.7929 109.256 80.4929 109.256ZM89.1983 108.738L91.2143 103.25H92.5163L89.6603 110.684C89.3616 111.477 88.9416 112.079 88.4003 112.49C87.859 112.91 87.243 113.097 86.5523 113.05V111.916C87.4016 111.981 88.0316 111.515 88.4423 110.516L88.5543 110.264L85.5163 103.25H86.8043L89.1983 108.738ZM93.0704 103.25H99.0624V104.426H96.6824V110.25H95.4644V104.426H93.0704V103.25ZM103.426 110.432C102.372 110.432 101.494 110.082 100.794 109.382C100.094 108.673 99.7443 107.795 99.7443 106.75C99.7443 105.705 100.094 104.832 100.794 104.132C101.494 103.423 102.372 103.068 103.426 103.068C104.117 103.068 104.738 103.236 105.288 103.572C105.839 103.899 106.25 104.342 106.52 104.902L105.498 105.49C105.321 105.117 105.046 104.818 104.672 104.594C104.308 104.37 103.893 104.258 103.426 104.258C102.726 104.258 102.138 104.496 101.662 104.972C101.196 105.457 100.962 106.05 100.962 106.75C100.962 107.441 101.196 108.029 101.662 108.514C102.138 108.99 102.726 109.228 103.426 109.228C103.893 109.228 104.313 109.121 104.686 108.906C105.06 108.682 105.344 108.383 105.54 108.01L106.576 108.612C106.268 109.172 105.834 109.615 105.274 109.942C104.714 110.269 104.098 110.432 103.426 110.432ZM113.871 109.368C113.162 110.077 112.289 110.432 111.253 110.432C110.217 110.432 109.345 110.077 108.635 109.368C107.926 108.659 107.571 107.786 107.571 106.75C107.571 105.714 107.926 104.841 108.635 104.132C109.345 103.423 110.217 103.068 111.253 103.068C112.289 103.068 113.162 103.423 113.871 104.132C114.59 104.851 114.949 105.723 114.949 106.75C114.949 107.777 114.59 108.649 113.871 109.368ZM111.253 109.242C111.953 109.242 112.541 109.004 113.017 108.528C113.493 108.052 113.731 107.459 113.731 106.75C113.731 106.041 113.493 105.448 113.017 104.972C112.541 104.496 111.953 104.258 111.253 104.258C110.563 104.258 109.979 104.496 109.503 104.972C109.027 105.448 108.789 106.041 108.789 106.75C108.789 107.459 109.027 108.052 109.503 108.528C109.979 109.004 110.563 109.242 111.253 109.242ZM120.529 103.068C121.509 103.068 122.344 103.427 123.035 104.146C123.726 104.865 124.071 105.733 124.071 106.75C124.071 107.777 123.726 108.649 123.035 109.368C122.354 110.077 121.518 110.432 120.529 110.432C119.372 110.432 118.49 109.97 117.883 109.046V113.05H116.665V103.25H117.883V104.454C118.49 103.53 119.372 103.068 120.529 103.068ZM120.375 109.256C121.075 109.256 121.663 109.018 122.139 108.542C122.615 108.047 122.853 107.45 122.853 106.75C122.853 106.041 122.615 105.448 122.139 104.972C121.663 104.487 121.075 104.244 120.375 104.244C119.666 104.244 119.073 104.487 118.597 104.972C118.121 105.448 117.883 106.041 117.883 106.75C117.883 107.45 118.121 108.047 118.597 108.542C119.073 109.018 119.666 109.256 120.375 109.256ZM129.094 110.432C128.04 110.432 127.162 110.082 126.462 109.382C125.762 108.673 125.412 107.795 125.412 106.75C125.412 105.705 125.762 104.832 126.462 104.132C127.162 103.423 128.04 103.068 129.094 103.068C129.785 103.068 130.406 103.236 130.956 103.572C131.507 103.899 131.918 104.342 132.188 104.902L131.166 105.49C130.989 105.117 130.714 104.818 130.34 104.594C129.976 104.37 129.561 104.258 129.094 104.258C128.394 104.258 127.806 104.496 127.33 104.972C126.864 105.457 126.63 106.05 126.63 106.75C126.63 107.441 126.864 108.029 127.33 108.514C127.806 108.99 128.394 109.228 129.094 109.228C129.561 109.228 129.981 109.121 130.354 108.906C130.728 108.682 131.012 108.383 131.208 108.01L132.244 108.612C131.936 109.172 131.502 109.615 130.942 109.942C130.382 110.269 129.766 110.432 129.094 110.432ZM140.351 107.31H134.485C134.607 107.926 134.891 108.411 135.339 108.766C135.787 109.111 136.347 109.284 137.019 109.284C137.943 109.284 138.615 108.943 139.035 108.262L140.071 108.85C139.381 109.905 138.354 110.432 136.991 110.432C135.89 110.432 134.985 110.087 134.275 109.396C133.585 108.687 133.239 107.805 133.239 106.75C133.239 105.686 133.58 104.809 134.261 104.118C134.943 103.418 135.825 103.068 136.907 103.068C137.934 103.068 138.769 103.432 139.413 104.16C140.067 104.869 140.393 105.737 140.393 106.764C140.393 106.941 140.379 107.123 140.351 107.31ZM136.907 104.216C136.263 104.216 135.722 104.398 135.283 104.762C134.854 105.126 134.588 105.621 134.485 106.246H139.161C139.059 105.602 138.802 105.103 138.391 104.748C137.981 104.393 137.486 104.216 136.907 104.216ZM145.937 103.068C146.917 103.068 147.753 103.427 148.443 104.146C149.134 104.865 149.479 105.733 149.479 106.75C149.479 107.777 149.134 108.649 148.443 109.368C147.762 110.077 146.927 110.432 145.937 110.432C144.78 110.432 143.898 109.97 143.291 109.046V113.05H142.073V103.25H143.291V104.454C143.898 103.53 144.78 103.068 145.937 103.068ZM145.783 109.256C146.483 109.256 147.071 109.018 147.547 108.542C148.023 108.047 148.261 107.45 148.261 106.75C148.261 106.041 148.023 105.448 147.547 104.972C147.071 104.487 146.483 104.244 145.783 104.244C145.074 104.244 144.481 104.487 144.005 104.972C143.529 105.448 143.291 106.041 143.291 106.75C143.291 107.45 143.529 108.047 144.005 108.542C144.481 109.018 145.074 109.256 145.783 109.256ZM157.121 109.368C156.411 110.077 155.539 110.432 154.503 110.432C153.467 110.432 152.594 110.077 151.885 109.368C151.175 108.659 150.821 107.786 150.821 106.75C150.821 105.714 151.175 104.841 151.885 104.132C152.594 103.423 153.467 103.068 154.503 103.068C155.539 103.068 156.411 103.423 157.121 104.132C157.839 104.851 158.199 105.723 158.199 106.75C158.199 107.777 157.839 108.649 157.121 109.368ZM154.503 109.242C155.203 109.242 155.791 109.004 156.267 108.528C156.743 108.052 156.981 107.459 156.981 106.75C156.981 106.041 156.743 105.448 156.267 104.972C155.791 104.496 155.203 104.258 154.503 104.258C153.812 104.258 153.229 104.496 152.753 104.972C152.277 105.448 152.039 106.041 152.039 106.75C152.039 107.459 152.277 108.052 152.753 108.528C153.229 109.004 153.812 109.242 154.503 109.242ZM164.577 106.652C165.295 106.951 165.655 107.492 165.655 108.276C165.655 108.873 165.459 109.354 165.067 109.718C164.675 110.073 164.124 110.25 163.415 110.25H159.915V103.25H163.135C163.825 103.25 164.362 103.423 164.745 103.768C165.137 104.113 165.333 104.575 165.333 105.154C165.333 105.826 165.081 106.325 164.577 106.652ZM163.079 104.342H161.105V106.176H163.079C163.788 106.176 164.143 105.863 164.143 105.238C164.143 104.641 163.788 104.342 163.079 104.342ZM161.105 109.144H163.345C163.699 109.144 163.97 109.06 164.157 108.892C164.353 108.724 164.451 108.486 164.451 108.178C164.451 107.889 164.353 107.665 164.157 107.506C163.97 107.338 163.699 107.254 163.345 107.254H161.105V109.144Z" fill="black"/>
<path d="M90.668 10.498L86.476 15.938C88.0333 16.386 89.2707 17.1753 90.188 18.306C91.1267 19.4367 91.596 20.7807 91.596 22.338C91.596 24.642 90.8173 26.4447 89.26 27.746C87.7453 29.0473 85.8573 29.698 83.596 29.698C81.8253 29.698 80.2573 29.2927 78.892 28.482C77.5267 27.65 76.5347 26.4767 75.916 24.962L79.692 22.786C80.2253 24.514 81.5267 25.378 83.596 25.378C84.7267 25.378 85.6013 25.1113 86.22 24.578C86.86 24.0233 87.18 23.2767 87.18 22.338C87.18 21.4207 86.86 20.6847 86.22 20.13C85.6013 19.5753 84.7267 19.298 83.596 19.298H82.636L80.94 16.738L85.356 10.978H76.588V6.85H90.668V10.498ZM109.093 14.178C109.093 15.906 108.645 17.4207 107.749 18.722H107.781L100.805 29.25H95.7485L100.741 21.954C98.4152 21.9327 96.5165 21.1967 95.0445 19.746C93.5938 18.2953 92.8685 16.4393 92.8685 14.178C92.8685 11.874 93.6152 10.0073 95.1085 8.578C96.6232 7.12733 98.5752 6.402 100.965 6.402C103.354 6.402 105.306 7.12733 106.821 8.578C108.335 10.0287 109.093 11.8953 109.093 14.178ZM97.2525 14.178C97.2525 15.266 97.6045 16.1513 98.3085 16.834C99.0125 17.4953 99.8978 17.826 100.965 17.826C102.074 17.826 102.97 17.4953 103.653 16.834C104.356 16.1513 104.708 15.266 104.708 14.178C104.708 13.09 104.356 12.2153 103.653 11.554C102.97 10.8927 102.074 10.562 100.965 10.562C99.8978 10.562 99.0125 10.9033 98.3085 11.586C97.6045 12.2473 97.2525 13.1113 97.2525 14.178ZM77.1624 37.25H78.6504V45.25H77.2904V39.442L74.7464 43.538H74.5704L72.0264 39.442V45.25H70.6504V37.25H72.1384L74.6504 41.298L77.1624 37.25ZM88.7754 41.89H82.0714C82.21 42.594 82.5354 43.1487 83.0474 43.554C83.5594 43.9487 84.1994 44.146 84.9674 44.146C86.0234 44.146 86.7914 43.7567 87.2714 42.978L88.4554 43.65C87.666 44.8553 86.4927 45.458 84.9354 45.458C83.6767 45.458 82.642 45.0633 81.8314 44.274C81.042 43.4633 80.6474 42.4553 80.6474 41.25C80.6474 40.034 81.0367 39.0313 81.8154 38.242C82.594 37.442 83.602 37.042 84.8394 37.042C86.0127 37.042 86.9674 37.458 87.7034 38.29C88.45 39.1007 88.8234 40.0927 88.8234 41.266C88.8234 41.4687 88.8074 41.6767 88.7754 41.89ZM84.8394 38.354C84.1034 38.354 83.4847 38.562 82.9834 38.978C82.4927 39.394 82.1887 39.9593 82.0714 40.674H87.4154C87.298 39.938 87.0047 39.3673 86.5354 38.962C86.066 38.5567 85.5007 38.354 84.8394 38.354ZM94.4879 45.458C93.2825 45.458 92.2799 45.058 91.4799 44.258C90.6799 43.4473 90.2799 42.4447 90.2799 41.25C90.2799 40.0553 90.6799 39.058 91.4799 38.258C92.2799 37.4473 93.2825 37.042 94.4879 37.042C95.2772 37.042 95.9865 37.234 96.6159 37.618C97.2452 37.9913 97.7145 38.498 98.0239 39.138L96.8559 39.81C96.6532 39.3833 96.3385 39.042 95.9119 38.786C95.4959 38.53 95.0212 38.402 94.4879 38.402C93.6879 38.402 93.0159 38.674 92.4719 39.218C91.9385 39.7727 91.6719 40.45 91.6719 41.25C91.6719 42.0393 91.9385 42.7113 92.4719 43.266C93.0159 43.81 93.6879 44.082 94.4879 44.082C95.0212 44.082 95.5012 43.9593 95.9279 43.714C96.3545 43.458 96.6799 43.1167 96.9039 42.69L98.0879 43.378C97.7359 44.018 97.2399 44.5247 96.5999 44.898C95.9599 45.2713 95.2559 45.458 94.4879 45.458ZM98.7612 37.25H105.609V38.594H102.889V45.25H101.497V38.594H98.7612V37.25ZM113.589 44.242C112.778 45.0527 111.781 45.458 110.597 45.458C109.413 45.458 108.415 45.0527 107.605 44.242C106.794 43.4313 106.389 42.434 106.389 41.25C106.389 40.066 106.794 39.0687 107.605 38.258C108.415 37.4473 109.413 37.042 110.597 37.042C111.781 37.042 112.778 37.4473 113.589 38.258C114.41 39.0793 114.821 40.0767 114.821 41.25C114.821 42.4233 114.41 43.4207 113.589 44.242ZM110.597 44.098C111.397 44.098 112.069 43.826 112.613 43.282C113.157 42.738 113.429 42.0607 113.429 41.25C113.429 40.4393 113.157 39.762 112.613 39.218C112.069 38.674 111.397 38.402 110.597 38.402C109.807 38.402 109.141 38.674 108.597 39.218C108.053 39.762 107.781 40.4393 107.781 41.25C107.781 42.0607 108.053 42.738 108.597 43.282C109.141 43.826 109.807 44.098 110.597 44.098Z" fill="#0047B3"/>
</svg>
