<svg width="186" height="117" viewBox="0 0 186 117" fill="none" xmlns="http://www.w3.org/2000/svg">
<path d="M56.2959 69.5646C56.964 64.8879 54.2919 58.2068 42.9341 56.8706C43.1568 59.3203 42.9338 63.5517 56.2959 69.5646Z" fill="#0047B3"/>
<path d="M56.9634 70.9009C56.9634 73.3506 55.4936 78.25 49.6143 78.25C49.6143 76.2457 51.0841 71.9698 56.9634 70.9009Z" fill="#0047B3"/>
<path d="M54.9596 70.2323C52.7325 72.0139 47.6104 74.9094 40.2612 72.237C42.2655 69.3418 48.0113 65.4219 54.9596 70.2323Z" fill="#0047B3"/>
<path d="M47.611 65.8116C44.9791 67.5914 38.9256 70.484 30.2402 67.8142C32.609 64.922 39.3994 61.006 47.611 65.8116Z" fill="#0047B3"/>
<path d="M38.2573 62.883C35.183 63.6853 28.8558 64.2831 21.5544 58.8745C26.2313 57.5387 32.1135 55.6181 38.2573 62.883Z" fill="#0047B3"/>
<path d="M19.5503 48.8536C22.8908 48.6309 30.3736 49.9225 33.5805 56.8708C30.24 57.0936 22.7572 55.8021 19.5503 48.8536Z" fill="#0047B3"/>
<path d="M28.9391 35.5042C30.9617 38.1721 33.9967 43.7965 29.9559 50.2953C27.9332 47.6275 24.8981 42.0032 28.9391 35.5042Z" fill="#0047B3"/>
<path d="M30.8208 22.1339C31.465 25.4193 31.719 31.8053 25.233 35.8666C24.5888 32.5813 24.3346 26.1954 30.8208 22.1339Z" fill="#0047B3"/>
<path d="M17.8591 17.883C20.3975 19.6415 24.6715 23.7011 22.9937 30.5573C20.4552 28.7989 16.1811 24.7394 17.8591 17.883Z" fill="#0047B3"/>
<path d="M25.3688 8.77914C26.7984 11.8044 28.7427 17.8856 24.4222 23.0923C22.9926 20.0671 21.0481 13.9859 25.3688 8.77914Z" fill="#0047B3"/>
<path d="M37.2 10.5195C36.4506 13.7805 34.2142 19.7605 27.5982 21.1763C28.3475 17.9153 30.5838 11.9353 37.2 10.5195Z" fill="#0047B3"/>
<path d="M31.0391 2.09264C31.8751 4.61204 32.8239 9.58749 28.9227 13.2741C28.0866 10.7547 27.1377 5.77932 31.0391 2.09264Z" fill="#0047B3"/>
<path d="M40.3738 2.03874C39.8342 4.63782 38.1609 9.41856 32.9372 10.6528C33.4767 8.05367 35.1499 3.27291 40.3738 2.03874Z" fill="#0047B3"/>
<path d="M14.0114 38.1838C16.9696 38.4632 23.3418 40.6577 25.1644 47.2006C22.2061 46.9213 15.8339 44.7269 14.0114 38.1838Z" fill="#0047B3"/>
<path d="M17.2482 28.9746C19.8881 30.3385 24.9797 34.754 24.2269 41.5041C21.587 40.1403 16.4954 35.7249 17.2482 28.9746Z" fill="#0047B3"/>
<path d="M41.3792 62.4919C38.284 60.9459 32.5602 56.7984 32.2694 47.4872C36.5539 48.2428 43.7542 52.5645 41.3792 62.4919Z" fill="#0047B3"/>
<path d="M68.8674 66.7H76.0774V68.548H73.4314V76.5H71.4994V68.548H68.8674V66.7ZM81.4005 70.326V69.5H83.2065V76.5H81.4005V75.674C80.8591 76.3553 80.0985 76.696 79.1185 76.696C78.1851 76.696 77.3825 76.3413 76.7105 75.632C76.0478 74.9133 75.7165 74.036 75.7165 73C75.7165 71.9733 76.0478 71.1007 76.7105 70.382C77.3825 69.6633 78.1851 69.304 79.1185 69.304C80.0985 69.304 80.8591 69.6447 81.4005 70.326ZM78.0685 74.428C78.4325 74.792 78.8945 74.974 79.4545 74.974C80.0145 74.974 80.4765 74.792 80.8405 74.428C81.2138 74.0547 81.4005 73.5787 81.4005 73C81.4005 72.4213 81.2138 71.95 80.8405 71.586C80.4765 71.2127 80.0145 71.026 79.4545 71.026C78.8945 71.026 78.4325 71.2127 78.0685 71.586C77.7045 71.95 77.5225 72.4213 77.5225 73C77.5225 73.5787 77.7045 74.0547 78.0685 74.428ZM90.4861 70.368V69.5H92.2501V76.164C92.2501 77.2373 91.8908 78.0633 91.1721 78.642C90.4628 79.2113 89.6041 79.496 88.5961 79.496C87.0095 79.496 85.9035 78.9267 85.2781 77.788L86.8181 76.906C87.1635 77.5593 87.7748 77.886 88.6521 77.886C89.2215 77.886 89.6695 77.7367 89.9961 77.438C90.3228 77.1393 90.4861 76.7147 90.4861 76.164V75.408C89.9541 76.1173 89.2075 76.472 88.2461 76.472C87.2568 76.472 86.4261 76.1267 85.7541 75.436C85.0915 74.7267 84.7601 73.8773 84.7601 72.888C84.7601 71.8987 85.0961 71.054 85.7681 70.354C86.4401 69.654 87.2661 69.304 88.2461 69.304C89.2075 69.304 89.9541 69.6587 90.4861 70.368ZM89.9261 74.274C90.2995 73.91 90.4861 73.448 90.4861 72.888C90.4861 72.328 90.2995 71.8753 89.9261 71.53C89.5621 71.166 89.0955 70.984 88.5261 70.984C87.9661 70.984 87.4948 71.166 87.1121 71.53C86.7481 71.8753 86.5661 72.328 86.5661 72.888C86.5661 73.448 86.7481 73.91 87.1121 74.274C87.4855 74.6287 87.9568 74.806 88.5261 74.806C89.0955 74.806 89.5621 74.6287 89.9261 74.274ZM95.9738 76.5H94.1678V66.28H95.9738V76.5ZM98.8028 68.66C98.5041 68.66 98.2428 68.5527 98.0188 68.338C97.8041 68.114 97.6968 67.8527 97.6968 67.554C97.6968 67.2553 97.8041 66.994 98.0188 66.77C98.2428 66.546 98.5041 66.434 98.8028 66.434C99.1108 66.434 99.3721 66.546 99.5868 66.77C99.8108 66.994 99.9228 67.2553 99.9228 67.554C99.9228 67.8527 99.8108 68.114 99.5868 68.338C99.3721 68.5527 99.1108 68.66 98.8028 68.66ZM99.7128 76.5H97.9068V69.5H99.7128V76.5ZM105.538 69.304C106.312 69.304 106.942 69.5607 107.428 70.074C107.932 70.5967 108.184 71.306 108.184 72.202V76.5H106.378V72.426C106.378 71.9687 106.252 71.614 106 71.362C105.757 71.11 105.421 70.984 104.992 70.984C104.516 70.984 104.138 71.1333 103.858 71.432C103.587 71.7213 103.452 72.1507 103.452 72.72V76.5H101.646V69.5H103.452V70.284C103.881 69.6307 104.576 69.304 105.538 69.304ZM116.81 73.742H111.532C111.765 74.6193 112.423 75.058 113.506 75.058C114.197 75.058 114.719 74.8247 115.074 74.358L116.53 75.198C115.839 76.1967 114.822 76.696 113.478 76.696C112.321 76.696 111.392 76.346 110.692 75.646C109.992 74.946 109.642 74.064 109.642 73C109.642 71.9547 109.987 71.0773 110.678 70.368C111.359 69.6587 112.246 69.304 113.338 69.304C114.374 69.304 115.219 69.6587 115.872 70.368C116.544 71.0773 116.88 71.9547 116.88 73C116.88 73.196 116.857 73.4433 116.81 73.742ZM111.504 72.342H115.074C114.971 71.8847 114.761 71.5347 114.444 71.292C114.136 71.0493 113.767 70.928 113.338 70.928C112.853 70.928 112.451 71.054 112.134 71.306C111.817 71.5487 111.607 71.894 111.504 72.342Z" fill="black"/>
<path d="M130.067 69.5646C129.399 64.8879 132.071 58.2068 143.429 56.8706C143.206 59.3203 143.429 63.5517 130.067 69.5646Z" fill="#0047B3"/>
<path d="M129.399 70.9009C129.399 73.3506 130.869 78.25 136.748 78.25C136.748 76.2457 135.278 71.9698 129.399 70.9009Z" fill="#0047B3"/>
<path d="M131.403 70.2323C133.63 72.0139 138.752 74.9094 146.101 72.237C144.097 69.3418 138.351 65.4219 131.403 70.2323Z" fill="#0047B3"/>
<path d="M138.752 65.8117C141.383 67.5915 147.437 70.4841 156.122 67.8144C153.754 64.9221 146.963 61.0061 138.752 65.8117Z" fill="#0047B3"/>
<path d="M148.105 62.883C151.18 63.6853 157.507 64.2831 164.808 58.8745C160.131 57.5387 154.249 55.6181 148.105 62.883Z" fill="#0047B3"/>
<path d="M166.812 48.8537C163.472 48.631 155.989 49.9227 152.782 56.871C156.123 57.0938 163.605 55.8022 166.812 48.8537Z" fill="#0047B3"/>
<path d="M157.423 35.5042C155.401 38.1721 152.366 43.7965 156.407 50.2953C158.429 47.6275 161.464 42.0032 157.423 35.5042Z" fill="#0047B3"/>
<path d="M155.542 22.1339C154.898 25.4193 154.644 31.8053 161.13 35.8666C161.774 32.5813 162.028 26.1954 155.542 22.1339Z" fill="#0047B3"/>
<path d="M168.504 17.883C165.965 19.6415 161.691 23.7011 163.369 30.5573C165.908 28.7989 170.182 24.7394 168.504 17.883Z" fill="#0047B3"/>
<path d="M160.994 8.77914C159.564 11.8044 157.62 17.8856 161.94 23.0923C163.37 20.0671 165.314 13.9859 160.994 8.77914Z" fill="#0047B3"/>
<path d="M149.163 10.5195C149.912 13.7805 152.148 19.7605 158.764 21.1763C158.015 17.9153 155.779 11.9353 149.163 10.5195Z" fill="#0047B3"/>
<path d="M155.323 2.09264C154.487 4.61204 153.539 9.58749 157.44 13.2741C158.276 10.7547 159.225 5.77932 155.323 2.09264Z" fill="#0047B3"/>
<path d="M145.989 2.03874C146.528 4.63782 148.202 9.41856 153.425 10.6528C152.886 8.05367 151.213 3.27291 145.989 2.03874Z" fill="#0047B3"/>
<path d="M172.351 38.1838C169.393 38.4632 163.021 40.6577 161.198 47.2006C164.156 46.9213 170.529 44.7269 172.351 38.1838Z" fill="#0047B3"/>
<path d="M169.114 28.9746C166.474 30.3385 161.383 34.754 162.136 41.5041C164.776 40.1403 169.867 35.7249 169.114 28.9746Z" fill="#0047B3"/>
<path d="M144.984 62.4919C148.079 60.9459 153.803 56.7984 154.093 47.4872C149.809 48.2428 142.609 52.5645 144.984 62.4919Z" fill="#0047B3"/>
<path d="M10.1481 100.8H14.2121C15.2361 100.8 16.0948 101.147 16.7881 101.84C17.4815 102.533 17.8281 103.387 17.8281 104.4C17.8281 105.413 17.4815 106.267 16.7881 106.96C16.0948 107.653 15.2361 108 14.2121 108H11.6361V112H10.1481V100.8ZM11.6361 106.608H14.2121C14.8415 106.608 15.3535 106.4 15.7481 105.984C16.1535 105.547 16.3561 105.019 16.3561 104.4C16.3561 103.76 16.1535 103.232 15.7481 102.816C15.3428 102.4 14.8308 102.192 14.2121 102.192H11.6361V106.608ZM26.8323 108.64H20.1283C20.2669 109.344 20.5923 109.899 21.1043 110.304C21.6163 110.699 22.2563 110.896 23.0243 110.896C24.0803 110.896 24.8483 110.507 25.3283 109.728L26.5123 110.4C25.7229 111.605 24.5496 112.208 22.9923 112.208C21.7336 112.208 20.6989 111.813 19.8883 111.024C19.0989 110.213 18.7043 109.205 18.7043 108C18.7043 106.784 19.0936 105.781 19.8723 104.992C20.6509 104.192 21.6589 103.792 22.8963 103.792C24.0696 103.792 25.0243 104.208 25.7603 105.04C26.5069 105.851 26.8803 106.843 26.8803 108.016C26.8803 108.219 26.8643 108.427 26.8323 108.64ZM22.8963 105.104C22.1603 105.104 21.5416 105.312 21.0403 105.728C20.5496 106.144 20.2456 106.709 20.1283 107.424H25.4723C25.3549 106.688 25.0616 106.117 24.5923 105.712C24.1229 105.307 23.5576 105.104 22.8963 105.104ZM34.4324 102.8H30.1124V101.584H34.4324V102.8ZM30.1764 109.616L34.6084 104H35.7284V112H34.3524V106.384L29.9204 112H28.8004V104H30.1764V109.616ZM37.2713 104H44.1193V105.344H41.3993V112H40.0073V105.344H37.2713V104ZM47.0351 109.616L51.4671 104H52.5871V112H51.2111V106.384L46.7791 112H45.6591V104H47.0351V109.616ZM60.562 107.328V104H61.954V112H60.562V108.656H56.418V112H55.026V104H56.418V107.328H60.562ZM64.3929 104H69.6409V105.344H65.7849V112H64.3929V104ZM82.1256 105.376V104H83.5176V112H82.1256V110.624C81.443 111.68 80.435 112.208 79.1016 112.208C77.971 112.208 77.0163 111.803 76.2376 110.992C75.4483 110.171 75.0536 109.173 75.0536 108C75.0536 106.837 75.4483 105.845 76.2376 105.024C77.027 104.203 77.9816 103.792 79.1016 103.792C80.435 103.792 81.443 104.32 82.1256 105.376ZM79.2776 110.864C80.0883 110.864 80.7656 110.592 81.3096 110.048C81.8536 109.483 82.1256 108.8 82.1256 108C82.1256 107.189 81.8536 106.512 81.3096 105.968C80.7656 105.413 80.0883 105.136 79.2776 105.136C78.4776 105.136 77.8056 105.413 77.2616 105.968C76.7176 106.512 76.4456 107.189 76.4456 108C76.4456 108.8 76.7176 109.483 77.2616 110.048C77.8056 110.592 78.4776 110.864 79.2776 110.864ZM89.2266 110.272L91.5306 104H93.0186L89.7546 112.496C89.4133 113.403 88.9333 114.091 88.3146 114.56C87.696 115.04 86.992 115.253 86.2026 115.2V113.904C87.1733 113.979 87.8933 113.445 88.3626 112.304L88.4906 112.016L85.0186 104H86.4906L89.2266 110.272ZM93.6519 104H100.5V105.344H97.7799V112H96.3879V105.344H93.6519V104ZM105.487 112.208C104.282 112.208 103.279 111.808 102.479 111.008C101.679 110.197 101.279 109.195 101.279 108C101.279 106.805 101.679 105.808 102.479 105.008C103.279 104.197 104.282 103.792 105.487 103.792C106.277 103.792 106.986 103.984 107.615 104.368C108.245 104.741 108.714 105.248 109.023 105.888L107.855 106.56C107.653 106.133 107.338 105.792 106.911 105.536C106.495 105.28 106.021 105.152 105.487 105.152C104.687 105.152 104.015 105.424 103.471 105.968C102.938 106.523 102.671 107.2 102.671 108C102.671 108.789 102.938 109.461 103.471 110.016C104.015 110.56 104.687 110.832 105.487 110.832C106.021 110.832 106.501 110.709 106.927 110.464C107.354 110.208 107.679 109.867 107.903 109.44L109.087 110.128C108.735 110.768 108.239 111.275 107.599 111.648C106.959 112.021 106.255 112.208 105.487 112.208ZM117.424 110.992C116.614 111.803 115.616 112.208 114.432 112.208C113.248 112.208 112.251 111.803 111.44 110.992C110.63 110.181 110.224 109.184 110.224 108C110.224 106.816 110.63 105.819 111.44 105.008C112.251 104.197 113.248 103.792 114.432 103.792C115.616 103.792 116.614 104.197 117.424 105.008C118.246 105.829 118.656 106.827 118.656 108C118.656 109.173 118.246 110.171 117.424 110.992ZM114.432 110.848C115.232 110.848 115.904 110.576 116.448 110.032C116.992 109.488 117.264 108.811 117.264 108C117.264 107.189 116.992 106.512 116.448 105.968C115.904 105.424 115.232 105.152 114.432 105.152C113.643 105.152 112.976 105.424 112.432 105.968C111.888 106.512 111.616 107.189 111.616 108C111.616 108.811 111.888 109.488 112.432 110.032C112.976 110.576 113.643 110.848 114.432 110.848ZM125.033 103.792C126.153 103.792 127.108 104.203 127.897 105.024C128.687 105.845 129.081 106.837 129.081 108C129.081 109.173 128.687 110.171 127.897 110.992C127.119 111.803 126.164 112.208 125.033 112.208C123.711 112.208 122.703 111.68 122.009 110.624V115.2H120.617V104H122.009V105.376C122.703 104.32 123.711 103.792 125.033 103.792ZM124.857 110.864C125.657 110.864 126.329 110.592 126.873 110.048C127.417 109.483 127.689 108.8 127.689 108C127.689 107.189 127.417 106.512 126.873 105.968C126.329 105.413 125.657 105.136 124.857 105.136C124.047 105.136 123.369 105.413 122.825 105.968C122.281 106.512 122.009 107.189 122.009 108C122.009 108.8 122.281 109.483 122.825 110.048C123.369 110.592 124.047 110.864 124.857 110.864ZM134.822 112.208C133.617 112.208 132.614 111.808 131.814 111.008C131.014 110.197 130.614 109.195 130.614 108C130.614 106.805 131.014 105.808 131.814 105.008C132.614 104.197 133.617 103.792 134.822 103.792C135.612 103.792 136.321 103.984 136.95 104.368C137.58 104.741 138.049 105.248 138.358 105.888L137.19 106.56C136.988 106.133 136.673 105.792 136.246 105.536C135.83 105.28 135.356 105.152 134.822 105.152C134.022 105.152 133.35 105.424 132.806 105.968C132.273 106.523 132.006 107.2 132.006 108C132.006 108.789 132.273 109.461 132.806 110.016C133.35 110.56 134.022 110.832 134.822 110.832C135.356 110.832 135.836 110.709 136.262 110.464C136.689 110.208 137.014 109.867 137.238 109.44L138.422 110.128C138.07 110.768 137.574 111.275 136.934 111.648C136.294 112.021 135.59 112.208 134.822 112.208ZM147.687 108.64H140.983C141.122 109.344 141.447 109.899 141.959 110.304C142.471 110.699 143.111 110.896 143.879 110.896C144.935 110.896 145.703 110.507 146.183 109.728L147.367 110.4C146.578 111.605 145.405 112.208 143.847 112.208C142.589 112.208 141.554 111.813 140.743 111.024C139.954 110.213 139.559 109.205 139.559 108C139.559 106.784 139.949 105.781 140.727 104.992C141.506 104.192 142.514 103.792 143.751 103.792C144.925 103.792 145.879 104.208 146.615 105.04C147.362 105.851 147.735 106.843 147.735 108.016C147.735 108.219 147.719 108.427 147.687 108.64ZM143.751 105.104C143.015 105.104 142.397 105.312 141.895 105.728C141.405 106.144 141.101 106.709 140.983 107.424H146.327C146.21 106.688 145.917 106.117 145.447 105.712C144.978 105.307 144.413 105.104 143.751 105.104ZM154.071 103.792C155.191 103.792 156.146 104.203 156.935 105.024C157.725 105.845 158.119 106.837 158.119 108C158.119 109.173 157.725 110.171 156.935 110.992C156.157 111.803 155.202 112.208 154.071 112.208C152.749 112.208 151.741 111.68 151.047 110.624V115.2H149.655V104H151.047V105.376C151.741 104.32 152.749 103.792 154.071 103.792ZM153.895 110.864C154.695 110.864 155.367 110.592 155.911 110.048C156.455 109.483 156.727 108.8 156.727 108C156.727 107.189 156.455 106.512 155.911 105.968C155.367 105.413 154.695 105.136 153.895 105.136C153.085 105.136 152.407 105.413 151.863 105.968C151.319 106.512 151.047 107.189 151.047 108C151.047 108.8 151.319 109.483 151.863 110.048C152.407 110.592 153.085 110.864 153.895 110.864ZM166.852 110.992C166.042 111.803 165.044 112.208 163.86 112.208C162.676 112.208 161.679 111.803 160.868 110.992C160.058 110.181 159.652 109.184 159.652 108C159.652 106.816 160.058 105.819 160.868 105.008C161.679 104.197 162.676 103.792 163.86 103.792C165.044 103.792 166.042 104.197 166.852 105.008C167.674 105.829 168.084 106.827 168.084 108C168.084 109.173 167.674 110.171 166.852 110.992ZM163.86 110.848C164.66 110.848 165.332 110.576 165.876 110.032C166.42 109.488 166.692 108.811 166.692 108C166.692 107.189 166.42 106.512 165.876 105.968C165.332 105.424 164.66 105.152 163.86 105.152C163.071 105.152 162.404 105.424 161.86 105.968C161.316 106.512 161.044 107.189 161.044 108C161.044 108.811 161.316 109.488 161.86 110.032C162.404 110.576 163.071 110.848 163.86 110.848ZM175.373 107.888C176.195 108.229 176.605 108.848 176.605 109.744C176.605 110.427 176.381 110.976 175.933 111.392C175.485 111.797 174.856 112 174.045 112H170.045V104H173.725C174.515 104 175.128 104.197 175.565 104.592C176.013 104.987 176.237 105.515 176.237 106.176C176.237 106.944 175.949 107.515 175.373 107.888ZM173.661 105.248H171.405V107.344H173.661C174.472 107.344 174.877 106.987 174.877 106.272C174.877 105.589 174.472 105.248 173.661 105.248ZM171.405 110.736H173.965C174.371 110.736 174.68 110.64 174.893 110.448C175.117 110.256 175.229 109.984 175.229 109.632C175.229 109.301 175.117 109.045 174.893 108.864C174.68 108.672 174.371 108.576 173.965 108.576H171.405V110.736Z" fill="black"/>
<path d="M91.168 11.248L86.976 16.688C88.5333 17.136 89.7707 17.9253 90.688 19.056C91.6267 20.1867 92.096 21.5307 92.096 23.088C92.096 25.392 91.3173 27.1947 89.76 28.496C88.2453 29.7973 86.3573 30.448 84.096 30.448C82.3253 30.448 80.7573 30.0427 79.392 29.232C78.0267 28.4 77.0347 27.2267 76.416 25.712L80.192 23.536C80.7253 25.264 82.0267 26.128 84.096 26.128C85.2267 26.128 86.1013 25.8613 86.72 25.328C87.36 24.7733 87.68 24.0267 87.68 23.088C87.68 22.1707 87.36 21.4347 86.72 20.88C86.1013 20.3253 85.2267 20.048 84.096 20.048H83.136L81.44 17.488L85.856 11.728H77.088V7.6H91.168V11.248ZM109.593 14.928C109.593 16.656 109.145 18.1707 108.249 19.472H108.281L101.305 30H96.2485L101.241 22.704C98.9152 22.6827 97.0165 21.9467 95.5445 20.496C94.0938 19.0453 93.3685 17.1893 93.3685 14.928C93.3685 12.624 94.1152 10.7573 95.6085 9.328C97.1232 7.87733 99.0752 7.152 101.465 7.152C103.854 7.152 105.806 7.87733 107.321 9.328C108.835 10.7787 109.593 12.6453 109.593 14.928ZM97.7525 14.928C97.7525 16.016 98.1045 16.9013 98.8085 17.584C99.5125 18.2453 100.398 18.576 101.465 18.576C102.574 18.576 103.47 18.2453 104.153 17.584C104.856 16.9013 105.208 16.016 105.208 14.928C105.208 13.84 104.856 12.9653 104.153 12.304C103.47 11.6427 102.574 11.312 101.465 11.312C100.398 11.312 99.5125 11.6533 98.8085 12.336C98.1045 12.9973 97.7525 13.8613 97.7525 14.928ZM77.6624 38H79.1504V46H77.7904V40.192L75.2464 44.288H75.0704L72.5264 40.192V46H71.1504V38H72.6384L75.1504 42.048L77.6624 38ZM89.2754 42.64H82.5714C82.71 43.344 83.0354 43.8987 83.5474 44.304C84.0594 44.6987 84.6994 44.896 85.4674 44.896C86.5234 44.896 87.2914 44.5067 87.7714 43.728L88.9554 44.4C88.166 45.6053 86.9927 46.208 85.4354 46.208C84.1767 46.208 83.142 45.8133 82.3314 45.024C81.542 44.2133 81.1474 43.2053 81.1474 42C81.1474 40.784 81.5367 39.7813 82.3154 38.992C83.094 38.192 84.102 37.792 85.3394 37.792C86.5127 37.792 87.4674 38.208 88.2034 39.04C88.95 39.8507 89.3234 40.8427 89.3234 42.016C89.3234 42.2187 89.3074 42.4267 89.2754 42.64ZM85.3394 39.104C84.6034 39.104 83.9847 39.312 83.4834 39.728C82.9927 40.144 82.6887 40.7093 82.5714 41.424H87.9154C87.798 40.688 87.5047 40.1173 87.0354 39.712C86.566 39.3067 86.0007 39.104 85.3394 39.104ZM94.9879 46.208C93.7825 46.208 92.7799 45.808 91.9799 45.008C91.1799 44.1973 90.7799 43.1947 90.7799 42C90.7799 40.8053 91.1799 39.808 91.9799 39.008C92.7799 38.1973 93.7825 37.792 94.9879 37.792C95.7772 37.792 96.4865 37.984 97.1159 38.368C97.7452 38.7413 98.2145 39.248 98.5239 39.888L97.3559 40.56C97.1532 40.1333 96.8385 39.792 96.4119 39.536C95.9959 39.28 95.5212 39.152 94.9879 39.152C94.1879 39.152 93.5159 39.424 92.9719 39.968C92.4385 40.5227 92.1719 41.2 92.1719 42C92.1719 42.7893 92.4385 43.4613 92.9719 44.016C93.5159 44.56 94.1879 44.832 94.9879 44.832C95.5212 44.832 96.0012 44.7093 96.4279 44.464C96.8545 44.208 97.1799 43.8667 97.4039 43.44L98.5879 44.128C98.2359 44.768 97.7399 45.2747 97.0999 45.648C96.4599 46.0213 95.7559 46.208 94.9879 46.208ZM99.2612 38H106.109V39.344H103.389V46H101.997V39.344H99.2612V38ZM114.089 44.992C113.278 45.8027 112.281 46.208 111.097 46.208C109.913 46.208 108.915 45.8027 108.105 44.992C107.294 44.1813 106.889 43.184 106.889 42C106.889 40.816 107.294 39.8187 108.105 39.008C108.915 38.1973 109.913 37.792 111.097 37.792C112.281 37.792 113.278 38.1973 114.089 39.008C114.91 39.8293 115.321 40.8267 115.321 42C115.321 43.1733 114.91 44.1707 114.089 44.992ZM111.097 44.848C111.897 44.848 112.569 44.576 113.113 44.032C113.657 43.488 113.929 42.8107 113.929 42C113.929 41.1893 113.657 40.512 113.113 39.968C112.569 39.424 111.897 39.152 111.097 39.152C110.307 39.152 109.641 39.424 109.097 39.968C108.553 40.512 108.281 41.1893 108.281 42C108.281 42.8107 108.553 43.488 109.097 44.032C109.641 44.576 110.307 44.848 111.097 44.848Z" fill="#0047B3"/>
</svg>
