<svg width="1920" height="970" viewBox="0 0 1920 970" fill="none" xmlns="http://www.w3.org/2000/svg">
<g clip-path="url(#clip0)">
<path d="M1621 355.5C1618.93 359.968 1616.91 362.602 1614.91 363.689L1550 451C1453.74 453.789 1509.29 595 1237.5 670C1150.3 694.061 1064.97 799.55 978 824.5C865.051 856.904 773.829 799.422 621 824.5C468.171 849.578 418.494 956.945 243.471 968.804C68.4477 980.662 -114 900.461 -114 900.461L-84.5085 -148C-84.5085 -148 753.668 -127.457 829.03 -45.1677C904.392 37.1215 954.445 114.342 1096.5 99C1238.55 83.6579 1236.5 213 1509.29 219.134C1574.78 220.607 1594.19 374.942 1614.91 363.689L1621 355.5Z" fill="#0047B3"/>
<path d="M1141.1 150.242C1099.84 147.306 1008.39 144.812 980.487 132.794C1006.07 158.691 1087.13 161.232 1136.56 162.075C1203.33 163.212 1233.4 235.972 1294.65 262.588C1350.11 286.689 1447.18 294.413 1447.18 294.413C1447.18 294.413 1354 273.829 1298.54 249.728C1237.29 223.111 1207.71 154.982 1141.1 150.242Z" fill="#2369D4"/>
<path d="M815.223 109.5C794.852 100.498 777.869 92.6049 716.535 97.4755C751.439 96.3982 797.097 111.319 823.93 125.946C860.013 145.615 901.683 171.698 939.158 188.551C996.565 214.369 1075.59 206.081 1075.59 206.081C1075.59 206.081 990.328 208.934 941.208 183.787C904.632 165.062 859.162 128.917 815.223 109.5Z" fill="#2369D4"/>
<path d="M1000.78 790.449C980.921 800.532 952.531 798.907 891.024 797.339C925.936 796.539 983.081 794.548 1009.09 778.5C1044.06 756.921 1071.92 713.275 1108.43 694.433C1164.37 665.568 1229.59 640 1229.59 640C1229.59 640 1159.79 674.25 1112.09 702C1076.57 722.663 1043.61 768.699 1000.78 790.449Z" fill="#2369D4"/>
<path d="M1653.52 533.623L1606.16 499.178L1503.2 664.762C1507.45 682.05 1515.71 685.456 1536.78 688.244L1653.52 533.623Z" fill="url(#paint0_linear)"/>
<path d="M1662.31 543.524L1598.43 492.165L1568.5 555.949C1577.99 569.896 1595.65 587.005 1614.91 587.462L1662.31 543.524Z" fill="#233AA0"/>
<path d="M1444.97 525.372C1533.72 504.179 1611.42 567.398 1667.69 549.034C1701.36 555.512 1722.06 557.919 1739.96 521.192C1757.87 484.464 1744.76 461.475 1715.68 438.258C1699.09 383.166 1604.2 365.106 1563.35 282.495C1523.23 262.943 1534.32 342.062 1504.08 404.094C1473.85 466.126 1404.86 505.82 1444.97 525.372Z" fill="#3C55C5"/>
<ellipse rx="148.184" ry="51.4581" transform="matrix(-0.438118 0.898917 0.898917 0.438118 1502.18 404.75)" fill="#F0F1F2"/>
<ellipse rx="136.34" ry="47.3452" transform="matrix(-0.438118 0.898917 0.898917 0.438118 1502.18 404.75)" fill="#233AA0"/>
<path d="M1531.26 450.189C1531.26 450.189 1540.61 434.062 1546.45 421.33C1552.99 407.055 1557.31 394.905 1557.31 394.905C1541.36 387.259 1512.19 375.926 1500.49 400.324C1488.8 424.722 1516.2 440.898 1531.26 450.189Z" fill="#E82B37"/>
<path d="M1668.88 384.351C1698.08 392.176 1719.82 417.524 1719.82 434.111C1719.82 489.795 1699.09 523.561 1662.36 556.142C1627.42 564.46 1607.3 562.508 1587.72 543.11C1639.85 529.485 1668.88 450.105 1668.88 384.351Z" fill="#2C48C1"/>
<path d="M1643.67 480.372L1621.99 471.134C1621.61 474.396 1623.36 476.85 1627.23 478.498C1629.71 479.557 1632.04 479.623 1634.22 478.693L1639.49 485.998C1634.46 488.894 1629 489.082 1623.1 486.567C1618.01 484.399 1614.64 481.132 1613 476.766C1611.45 472.436 1611.8 467.968 1614.07 463.361C1616.31 458.837 1619.69 455.681 1624.21 453.894C1628.78 452.124 1633.45 452.253 1638.21 454.283C1642.65 456.174 1645.58 459.279 1646.99 463.599C1648.49 467.856 1648.1 472.285 1645.83 476.891C1645.19 478.185 1644.47 479.344 1643.67 480.372ZM1625.16 464.269L1638.28 469.862C1638.96 466.29 1637.59 463.775 1634.17 462.318C1630.63 460.809 1627.62 461.459 1625.16 464.269Z" fill="white"/>
<path d="M1669.76 480.61L1680.61 485.233L1690.55 479.471L1679.7 474.847L1669.76 480.61Z" fill="#FC336F"/>
<path d="M1675.07 508.568L1664.53 504.08L1662.92 494.283L1653.88 499.544L1643.34 495.057L1661.31 484.626L1661.31 484.62L1657.96 464.518L1668.5 469.005L1670.24 479.451L1670.24 479.457L1670.24 479.454L1671.85 489.109L1671.85 489.112L1675.07 508.568Z" fill="white"/>
<path d="M1605.08 459.07C1605.08 459.07 1605.08 459.069 1605.08 459.068L1618.32 432.096L1609.3 428.233L1602.71 441.661C1601.97 439.573 1599.45 437.503 1596.98 436.446C1588.22 432.691 1577.64 436.732 1573.35 445.471C1569.06 454.211 1572.69 464.34 1581.45 468.095C1584.27 469.305 1586.79 469.519 1589.42 468.748L1588.71 470.192L1597.73 474.055L1605.08 459.072C1605.08 459.071 1605.08 459.071 1605.08 459.07ZM1585.95 458.931C1582.26 457.35 1580.73 453.087 1582.54 449.409C1584.34 445.731 1588.79 444.03 1592.48 445.611C1596.17 447.191 1597.7 451.454 1595.89 455.132C1594.09 458.811 1589.63 460.511 1585.95 458.931Z" fill="white"/>
</g>
<defs>
<linearGradient id="paint0_linear" x1="1574" y1="588.5" x2="1520.5" y2="660.5" gradientUnits="userSpaceOnUse">
<stop stop-color="#3C55C5"/>
<stop offset="1" stop-color="#3C55C5" stop-opacity="0"/>
</linearGradient>
<clipPath id="clip0">
<rect width="1920" height="970" fill="white"/>
</clipPath>
</defs>
</svg>
