<svg width="1382" height="766" viewBox="0 0 1382 766" fill="none" xmlns="http://www.w3.org/2000/svg">
<path d="M1084 227.5C1137.1 236.111 1164 326 1172 328L1076 530C1003.83 532 957.621 505.623 865 530C799.616 547.209 751.701 620.611 686.5 638.5C601.821 661.733 536.578 630.52 422 648.5C307.422 666.48 230 758.844 135 765C40 771.156 -133 716 -133 716L27 -238C27 -238 517.5 -21 574 38C630.5 97 678.5 138.5 785 127.5C891.5 116.5 880.5 194.5 1084 227.5Z" fill="#0047B3"/>
<path d="M679 617.181C605.056 641.843 502.965 600.57 424.465 617.181C501.965 590.181 596.021 625.343 669.965 600.681C726.9 581.692 759.91 523.397 817.041 505C759.91 523.396 752.944 592.519 679 617.181Z" fill="white" fill-opacity="0.5"/>
<path d="M807.689 151.077C776.768 148.877 708.227 147.007 687.314 138C706.485 157.41 771.677 164.054 808.726 164.685C858.77 165.538 877.369 211.535 923.274 231.484C964.84 249.548 1037.1 259.133 1037.1 259.133C1037.1 259.133 967.261 243.705 925.694 225.641C879.79 205.692 857.615 154.63 807.689 151.077Z" fill="white" fill-opacity="0.5"/>
<path d="M592.705 127.855C577.437 121.108 564.709 115.192 518.739 118.843C544.9 118.035 579.12 129.218 599.231 140.181C626.275 154.923 657.507 174.472 685.594 187.103C728.62 206.454 787.852 200.242 787.852 200.242C787.852 200.242 723.946 202.38 687.13 183.532C659.717 169.498 625.637 142.408 592.705 127.855Z" fill="white" fill-opacity="0.5"/>
<path d="M292.445 657.589C277.562 665.146 265.17 671.737 219.071 670.562C245.237 669.963 278.806 656.957 298.299 644.93C324.512 628.756 354.649 607.557 382.016 593.434C423.941 571.8 483.42 574.82 483.42 574.82C483.42 574.82 419.492 576.119 383.742 596.918C357.123 612.404 324.548 641.287 292.445 657.589Z" fill="white" fill-opacity="0.5"/>
<path d="M863.351 554.305C906.465 528.59 959.423 539.978 959.423 539.978C959.423 539.978 914.221 531.635 873.81 559.757C832.435 588.549 841.07 628.49 717.377 647.824C828.549 620.583 814.026 583.723 863.351 554.305Z" fill="#909DCA"/>
<path d="M1033.63 194.736C988.47 193.664 947.849 154.717 936.975 118.346C947.935 148.198 993.249 187.415 1033.21 188.25C1079.87 189.225 1141.3 170.701 1172.58 204.744C1189.95 223.656 1199.53 280.154 1199.53 280.154C1199.53 280.154 1179.31 237.198 1167.79 223.594C1136.31 186.414 1079.86 195.834 1033.63 194.736Z" fill="#909DCA"/>
<path d="M1258.03 539.993L1218.06 510.919L1131.16 650.68C1134.74 665.272 1141.72 668.147 1159.5 670.5L1258.03 539.993Z" fill="#3C55C5"/>
<path d="M1265.46 548.35L1211.54 505L1186.28 558.837C1194.29 570.609 1209.19 585.05 1225.45 585.435L1265.46 548.35Z" fill="#233AA0"/>
<path d="M1082.01 533.029C1156.92 515.14 1222.5 568.5 1270 553C1298.41 558.468 1315.89 560.5 1331 529.5C1346.11 498.5 1335.04 479.097 1310.5 459.5C1296.5 413 1216.41 397.756 1181.93 328.029C1148.07 311.526 1157.42 378.306 1131.91 430.664C1106.39 483.022 1048.15 516.525 1082.01 533.029Z" fill="#3C55C5"/>
<ellipse rx="125.074" ry="43.4331" transform="matrix(-0.438118 0.898917 0.898917 0.438118 1130.3 431.218)" fill="#F0F1F2"/>
<ellipse rx="115.077" ry="39.9616" transform="matrix(-0.438118 0.898917 0.898917 0.438118 1130.3 431.218)" fill="#233AA0"/>
<path d="M1154.84 469.571C1154.84 469.571 1162.74 455.959 1167.66 445.212C1173.18 433.164 1176.83 422.908 1176.83 422.908C1163.36 416.455 1138.74 406.889 1128.88 427.482C1119.01 448.075 1142.13 461.729 1154.84 469.571Z" fill="#E82B37"/>
<path d="M1271 414C1295.65 420.605 1314 442 1314 456C1314 503 1296.5 531.5 1265.5 559C1236.01 566.02 1219.03 564.373 1202.5 548C1246.5 536.5 1271 469.5 1271 414Z" fill="#2C48C1"/>
<path d="M1251.7 493.709L1232.55 485.047C1232.2 488.069 1233.72 490.353 1237.14 491.898C1239.33 492.891 1241.4 492.962 1243.34 492.111L1247.96 498.907C1243.48 501.569 1238.64 501.72 1233.42 499.361C1228.93 497.328 1225.97 494.283 1224.55 490.228C1223.2 486.206 1223.55 482.065 1225.59 477.804C1227.61 473.619 1230.62 470.708 1234.65 469.072C1238.71 467.451 1242.85 467.592 1247.06 469.496C1250.98 471.268 1253.55 474.161 1254.77 478.173C1256.07 482.126 1255.69 486.231 1253.64 490.492C1253.07 491.689 1252.42 492.76 1251.7 493.709ZM1235.41 478.695L1247.01 483.941C1247.64 480.632 1246.44 478.293 1243.42 476.927C1240.29 475.512 1237.62 476.101 1235.41 478.695Z" fill="white"/>
<path d="M1273.39 492.342L1282.77 496.598L1291.44 491.396L1282.06 487.139L1273.39 492.342Z" fill="#FC336F"/>
<path d="M1277.62 518.845L1268.33 514.643L1266.98 505.564L1258.94 510.395L1249.65 506.193L1265.62 496.616L1265.62 496.611L1262.81 477.985L1272.1 482.187L1273.56 491.866L1273.56 491.871L1273.56 491.868L1274.92 500.815L1274.91 500.818L1277.62 518.845Z" fill="white"/>
<path d="M1219.9 474.926C1219.9 474.925 1219.9 474.925 1219.9 474.924L1231.96 449.822L1223.91 446.179L1217.91 458.676C1217.25 456.726 1215.01 454.783 1212.81 453.788C1204.99 450.247 1195.48 453.97 1191.57 462.104C1187.67 470.238 1190.84 479.702 1198.66 483.243C1201.18 484.383 1203.43 484.594 1205.8 483.886L1205.15 485.23L1213.2 488.872L1219.9 474.928C1219.9 474.927 1219.9 474.926 1219.9 474.926ZM1202.76 474.714C1199.47 473.223 1198.13 469.24 1199.78 465.817C1201.42 462.394 1205.42 460.826 1208.71 462.317C1212.01 463.807 1213.34 467.79 1211.7 471.213C1210.05 474.637 1206.05 476.204 1202.76 474.714Z" fill="white"/>
</svg>
