<svg width="161" height="129" viewBox="0 0 161 129" fill="none" xmlns="http://www.w3.org/2000/svg">
<path d="M43.5459 68.8146C44.214 64.1379 41.5419 57.4568 30.1841 56.1206C30.4068 58.5703 30.1838 62.8017 43.5459 68.8146Z" fill="#0047B3"/>
<path d="M44.2134 70.1509C44.2134 72.6006 42.7436 77.5 36.8643 77.5C36.8643 75.4957 38.3341 71.2198 44.2134 70.1509Z" fill="#0047B3"/>
<path d="M42.2096 69.4823C39.9825 71.2639 34.8604 74.1594 27.5112 71.487C29.5155 68.5918 35.2613 64.6719 42.2096 69.4823Z" fill="#0047B3"/>
<path d="M34.861 65.0616C32.2291 66.8414 26.1756 69.734 17.4902 67.0642C19.859 64.172 26.6494 60.256 34.861 65.0616Z" fill="#0047B3"/>
<path d="M25.5073 62.133C22.433 62.9353 16.1058 63.5331 8.80443 58.1245C13.4813 56.7887 19.3635 54.8681 25.5073 62.133Z" fill="#0047B3"/>
<path d="M6.80029 48.1037C10.1408 47.881 17.6236 49.1727 20.8305 56.121C17.49 56.3438 10.0072 55.0522 6.80029 48.1037Z" fill="#0047B3"/>
<path d="M16.1891 34.7542C18.2117 37.4221 21.2467 43.0465 17.2059 49.5453C15.1832 46.8775 12.1481 41.2532 16.1891 34.7542Z" fill="#0047B3"/>
<path d="M18.0708 21.3839C18.715 24.6693 18.969 31.0553 12.483 35.1166C11.8388 31.8313 11.5846 25.4454 18.0708 21.3839Z" fill="#0047B3"/>
<path d="M5.1091 17.133C7.64751 18.8915 11.9215 22.9511 10.2437 29.8073C7.70525 28.0489 3.43115 23.9894 5.1091 17.133Z" fill="#0047B3"/>
<path d="M12.6188 8.02926C14.0484 11.0545 15.9927 17.1358 11.6722 22.3425C10.2426 19.3173 8.29814 13.236 12.6188 8.02926Z" fill="#0047B3"/>
<path d="M24.45 9.7695C23.7006 13.0305 21.4642 19.0105 14.8482 20.4263C15.5975 17.1653 17.8338 11.1853 24.45 9.7695Z" fill="#0047B3"/>
<path d="M18.2891 1.34264C19.1251 3.86204 20.0739 8.83749 16.1727 12.5241C15.3366 10.0047 14.3877 5.02932 18.2891 1.34264Z" fill="#0047B3"/>
<path d="M27.6238 1.28874C27.0842 3.88782 25.4109 8.66856 20.1872 9.90276C20.7267 7.30367 22.3999 2.52291 27.6238 1.28874Z" fill="#0047B3"/>
<path d="M1.26136 37.4338C4.21962 37.7132 10.5918 39.9077 12.4144 46.4506C9.45611 46.1713 3.08394 43.9769 1.26136 37.4338Z" fill="#0047B3"/>
<path d="M4.4982 28.2247C7.13808 29.5887 12.2297 34.0041 11.4769 40.7542C8.837 39.3904 3.74536 34.975 4.4982 28.2247Z" fill="#0047B3"/>
<path d="M28.6292 61.7417C25.534 60.1958 19.8102 56.0483 19.5194 46.7371C23.8039 47.4926 31.0042 51.8143 28.6292 61.7417Z" fill="#0047B3"/>
<path d="M56.1174 65.95H63.3274V67.798H60.6814V75.75H58.7494V67.798H56.1174V65.95ZM68.6505 69.576V68.75H70.4565V75.75H68.6505V74.924C68.1091 75.6053 67.3485 75.946 66.3685 75.946C65.4351 75.946 64.6325 75.5913 63.9605 74.882C63.2978 74.1633 62.9665 73.286 62.9665 72.25C62.9665 71.2233 63.2978 70.3507 63.9605 69.632C64.6325 68.9133 65.4351 68.554 66.3685 68.554C67.3485 68.554 68.1091 68.8947 68.6505 69.576ZM65.3185 73.678C65.6825 74.042 66.1445 74.224 66.7045 74.224C67.2645 74.224 67.7265 74.042 68.0905 73.678C68.4638 73.3047 68.6505 72.8287 68.6505 72.25C68.6505 71.6713 68.4638 71.2 68.0905 70.836C67.7265 70.4627 67.2645 70.276 66.7045 70.276C66.1445 70.276 65.6825 70.4627 65.3185 70.836C64.9545 71.2 64.7725 71.6713 64.7725 72.25C64.7725 72.8287 64.9545 73.3047 65.3185 73.678ZM77.7361 69.618V68.75H79.5001V75.414C79.5001 76.4873 79.1408 77.3133 78.4221 77.892C77.7128 78.4613 76.8541 78.746 75.8461 78.746C74.2595 78.746 73.1535 78.1767 72.5281 77.038L74.0681 76.156C74.4135 76.8093 75.0248 77.136 75.9021 77.136C76.4715 77.136 76.9195 76.9867 77.2461 76.688C77.5728 76.3893 77.7361 75.9647 77.7361 75.414V74.658C77.2041 75.3673 76.4575 75.722 75.4961 75.722C74.5068 75.722 73.6761 75.3767 73.0041 74.686C72.3415 73.9767 72.0101 73.1273 72.0101 72.138C72.0101 71.1487 72.3461 70.304 73.0181 69.604C73.6901 68.904 74.5161 68.554 75.4961 68.554C76.4575 68.554 77.2041 68.9087 77.7361 69.618ZM77.1761 73.524C77.5495 73.16 77.7361 72.698 77.7361 72.138C77.7361 71.578 77.5495 71.1253 77.1761 70.78C76.8121 70.416 76.3455 70.234 75.7761 70.234C75.2161 70.234 74.7448 70.416 74.3621 70.78C73.9981 71.1253 73.8161 71.578 73.8161 72.138C73.8161 72.698 73.9981 73.16 74.3621 73.524C74.7355 73.8787 75.2068 74.056 75.7761 74.056C76.3455 74.056 76.8121 73.8787 77.1761 73.524ZM83.2238 75.75H81.4178V65.53H83.2238V75.75ZM86.0528 67.91C85.7541 67.91 85.4928 67.8027 85.2688 67.588C85.0541 67.364 84.9468 67.1027 84.9468 66.804C84.9468 66.5053 85.0541 66.244 85.2688 66.02C85.4928 65.796 85.7541 65.684 86.0528 65.684C86.3608 65.684 86.6221 65.796 86.8368 66.02C87.0608 66.244 87.1728 66.5053 87.1728 66.804C87.1728 67.1027 87.0608 67.364 86.8368 67.588C86.6221 67.8027 86.3608 67.91 86.0528 67.91ZM86.9628 75.75H85.1568V68.75H86.9628V75.75ZM92.7878 68.554C93.5624 68.554 94.1924 68.8107 94.6778 69.324C95.1818 69.8467 95.4338 70.556 95.4338 71.452V75.75H93.6278V71.676C93.6278 71.2187 93.5018 70.864 93.2498 70.612C93.0071 70.36 92.6711 70.234 92.2418 70.234C91.7658 70.234 91.3878 70.3833 91.1078 70.682C90.8371 70.9713 90.7018 71.4007 90.7018 71.97V75.75H88.8958V68.75H90.7018V69.534C91.1311 68.8807 91.8264 68.554 92.7878 68.554ZM104.06 72.992H98.7818C99.0152 73.8693 99.6732 74.308 100.756 74.308C101.447 74.308 101.969 74.0747 102.324 73.608L103.78 74.448C103.089 75.4467 102.072 75.946 100.728 75.946C99.5705 75.946 98.6418 75.596 97.9418 74.896C97.2418 74.196 96.8918 73.314 96.8918 72.25C96.8918 71.2047 97.2372 70.3273 97.9278 69.618C98.6092 68.9087 99.4958 68.554 100.588 68.554C101.624 68.554 102.469 68.9087 103.122 69.618C103.794 70.3273 104.13 71.2047 104.13 72.25C104.13 72.446 104.107 72.6933 104.06 72.992ZM98.7538 71.592H102.324C102.221 71.1347 102.011 70.7847 101.694 70.542C101.386 70.2993 101.017 70.178 100.588 70.178C100.103 70.178 99.7012 70.304 99.3838 70.556C99.0665 70.7987 98.8565 71.144 98.7538 71.592Z" fill="black"/>
<path d="M117.317 68.8146C116.649 64.1379 119.321 57.4568 130.679 56.1206C130.456 58.5703 130.679 62.8017 117.317 68.8146Z" fill="#0047B3"/>
<path d="M116.649 70.1509C116.649 72.6006 118.119 77.5 123.998 77.5C123.998 75.4957 122.528 71.2198 116.649 70.1509Z" fill="#0047B3"/>
<path d="M118.653 69.4823C120.88 71.2639 126.002 74.1594 133.351 71.487C131.347 68.5918 125.601 64.6719 118.653 69.4823Z" fill="#0047B3"/>
<path d="M126.001 65.0618C128.633 66.8417 134.687 69.7343 143.372 67.0645C141.003 64.1723 134.213 60.2563 126.001 65.0618Z" fill="#0047B3"/>
<path d="M135.355 62.133C138.429 62.9353 144.756 63.5331 152.058 58.1245C147.381 56.7887 141.499 54.8681 135.355 62.133Z" fill="#0047B3"/>
<path d="M154.062 48.1037C150.722 47.881 143.239 49.1727 140.032 56.121C143.373 56.3438 150.856 55.0522 154.062 48.1037Z" fill="#0047B3"/>
<path d="M144.673 34.7542C142.651 37.4221 139.616 43.0465 143.656 49.5453C145.679 46.8775 148.714 41.2532 144.673 34.7542Z" fill="#0047B3"/>
<path d="M142.792 21.3839C142.148 24.6693 141.894 31.0553 148.38 35.1166C149.024 31.8313 149.278 25.4454 142.792 21.3839Z" fill="#0047B3"/>
<path d="M155.754 17.133C153.215 18.8915 148.941 22.9511 150.619 29.8073C153.158 28.0489 157.432 23.9894 155.754 17.133Z" fill="#0047B3"/>
<path d="M148.243 8.02926C146.814 11.0545 144.87 17.1358 149.19 22.3425C150.62 19.3173 152.564 13.236 148.243 8.02926Z" fill="#0047B3"/>
<path d="M136.413 9.7695C137.162 13.0305 139.398 19.0105 146.014 20.4263C145.265 17.1653 143.029 11.1853 136.413 9.7695Z" fill="#0047B3"/>
<path d="M142.574 1.34264C141.738 3.86204 140.789 8.83749 144.69 12.5241C145.526 10.0047 146.475 5.02932 142.574 1.34264Z" fill="#0047B3"/>
<path d="M133.239 1.28874C133.778 3.88782 135.452 8.66856 140.675 9.90276C140.136 7.30367 138.463 2.52291 133.239 1.28874Z" fill="#0047B3"/>
<path d="M159.601 37.4338C156.643 37.7132 150.271 39.9077 148.448 46.4506C151.406 46.1713 157.778 43.9769 159.601 37.4338Z" fill="#0047B3"/>
<path d="M156.365 28.2247C153.725 29.5887 148.633 34.0041 149.386 40.7542C152.026 39.3904 157.117 34.975 156.365 28.2247Z" fill="#0047B3"/>
<path d="M132.234 61.7417C135.329 60.1958 141.053 56.0483 141.343 46.7371C137.059 47.4926 129.859 51.8143 132.234 61.7417Z" fill="#0047B3"/>
<path d="M19.1791 100.2C20.0845 100.2 20.8358 100.503 21.4331 101.11C22.0398 101.707 22.3431 102.454 22.3431 103.35C22.3431 104.237 22.0398 104.983 21.4331 105.59C20.8358 106.197 20.0845 106.5 19.1791 106.5H16.9251V110H15.6231V100.2H19.1791ZM19.1791 105.282C19.7205 105.282 20.1685 105.1 20.5231 104.736C20.8778 104.363 21.0551 103.901 21.0551 103.35C21.0551 102.79 20.8778 102.328 20.5231 101.964C20.1685 101.6 19.7205 101.418 19.1791 101.418H16.9251V105.282H19.1791ZM24.3557 107.06C24.4771 107.685 24.7617 108.171 25.2097 108.516C25.6671 108.861 26.2271 109.034 26.8897 109.034C27.8137 109.034 28.4857 108.693 28.9057 108.012L29.9417 108.6C29.2604 109.655 28.2337 110.182 26.8617 110.182C25.7511 110.182 24.8457 109.837 24.1457 109.146C23.4551 108.446 23.1097 107.564 23.1097 106.5C23.1097 105.445 23.4504 104.568 24.1317 103.868C24.8131 103.168 25.6951 102.818 26.7777 102.818C27.8044 102.818 28.6397 103.182 29.2837 103.91C29.9371 104.629 30.2637 105.497 30.2637 106.514C30.2637 106.691 30.2497 106.873 30.2217 107.06H24.3557ZM26.7777 103.966C26.1244 103.966 25.5831 104.153 25.1537 104.526C24.7244 104.89 24.4584 105.38 24.3557 105.996H29.0317C28.9291 105.333 28.6677 104.829 28.2477 104.484C27.8277 104.139 27.3377 103.966 26.7777 103.966ZM33.0918 101.95V100.886H36.8718V101.95H33.0918ZM37.0258 103H38.0058V110H36.8018V105.086L32.9238 110H31.9438V103H33.1478V107.914L37.0258 103ZM45.3479 103V104.176H42.9679V110H41.7499V104.176H39.3559V103H45.3479ZM51.7773 103H52.7573V110H51.5533V105.086L47.6753 110H46.6953V103H47.8993V107.914L51.7773 103ZM59.7353 103H60.9533V110H59.7353V107.074H56.1093V110H54.8913V103H56.1093V105.912H59.7353V103ZM67.6793 103V104.176H64.3053V110H63.0873V103H67.6793ZM79.8074 103V110H78.6174V104.918L76.3914 108.502H76.2374L74.0114 104.918V110H72.8074V103H74.1094L76.3074 106.542L78.5054 103H79.8074ZM87.8548 109.118C87.1361 109.827 86.2635 110.182 85.2368 110.182C84.2101 110.182 83.3375 109.827 82.6188 109.118C81.9095 108.409 81.5548 107.536 81.5548 106.5C81.5548 105.464 81.9095 104.591 82.6188 103.882C83.3375 103.173 84.2101 102.818 85.2368 102.818C86.2635 102.818 87.1361 103.173 87.8548 103.882C88.5735 104.591 88.9328 105.464 88.9328 106.5C88.9328 107.536 88.5735 108.409 87.8548 109.118ZM85.2368 108.992C85.9368 108.992 86.5248 108.754 87.0008 108.278C87.4768 107.802 87.7148 107.209 87.7148 106.5C87.7148 105.791 87.4768 105.198 87.0008 104.722C86.5248 104.246 85.9368 104.008 85.2368 104.008C84.5461 104.008 83.9628 104.246 83.4868 104.722C83.0108 105.198 82.7728 105.791 82.7728 106.5C82.7728 107.209 83.0108 107.802 83.4868 108.278C83.9628 108.754 84.5461 108.992 85.2368 108.992ZM93.8267 110.182C92.7907 110.182 91.9367 109.841 91.2647 109.16C90.5927 108.479 90.2567 107.601 90.2567 106.528C90.2567 105.333 90.4294 104.414 90.7747 103.77C91.1294 103.126 91.848 102.543 92.9307 102.02C93.1267 101.927 93.3927 101.805 93.7287 101.656C94.074 101.507 94.326 101.395 94.4847 101.32C94.6434 101.236 94.8207 101.129 95.0167 100.998C95.2127 100.858 95.3574 100.709 95.4507 100.55C95.5534 100.382 95.628 100.191 95.6747 99.976L96.6547 100.536C96.6267 100.685 96.5894 100.825 96.5427 100.956C96.496 101.077 96.426 101.199 96.3327 101.32C96.2487 101.432 96.174 101.53 96.1087 101.614C96.0434 101.698 95.9314 101.791 95.7727 101.894C95.6234 101.987 95.5114 102.057 95.4367 102.104C95.3714 102.151 95.236 102.221 95.0307 102.314C94.8347 102.407 94.6994 102.473 94.6247 102.51C94.5594 102.538 94.4054 102.603 94.1627 102.706C93.92 102.799 93.7707 102.86 93.7147 102.888C93.08 103.159 92.6134 103.434 92.3147 103.714C92.0254 103.994 91.8154 104.349 91.6847 104.778C91.9834 104.405 92.3567 104.129 92.8047 103.952C93.2527 103.775 93.7007 103.686 94.1487 103.686C95.026 103.686 95.768 103.985 96.3747 104.582C96.9907 105.179 97.2987 105.949 97.2987 106.892C97.2987 107.844 96.972 108.633 96.3187 109.258C95.6654 109.874 94.8347 110.182 93.8267 110.182ZM92.1887 108.39C92.6274 108.801 93.1734 109.006 93.8267 109.006C94.48 109.006 95.0167 108.805 95.4367 108.404C95.866 108.003 96.0807 107.499 96.0807 106.892C96.0807 106.267 95.8754 105.758 95.4647 105.366C95.0634 104.965 94.5314 104.764 93.8687 104.764C93.2714 104.764 92.73 104.955 92.2447 105.338C91.7687 105.711 91.5307 106.206 91.5307 106.822C91.5307 107.457 91.75 107.979 92.1887 108.39ZM103.954 103H104.934V110H103.73V105.086L99.8521 110H98.8721V103H100.076V107.914L103.954 103ZM112.906 103V110H111.688V104.176H108.93V107.032C108.93 108.18 108.697 108.983 108.23 109.44C107.773 109.888 107.124 110.075 106.284 110V108.852C106.76 108.917 107.115 108.815 107.348 108.544C107.591 108.264 107.712 107.751 107.712 107.004V103H112.906ZM117.986 105.52C118.686 105.52 119.264 105.73 119.722 106.15C120.188 106.561 120.422 107.097 120.422 107.76C120.422 108.423 120.188 108.964 119.722 109.384C119.264 109.795 118.686 110 117.986 110H115.032V103H116.25V105.52H117.986ZM117.986 108.866C118.331 108.866 118.62 108.768 118.854 108.572C119.096 108.367 119.218 108.096 119.218 107.76C119.218 107.424 119.096 107.153 118.854 106.948C118.62 106.743 118.331 106.64 117.986 106.64H116.25V108.866H117.986ZM126.855 103H128.073V110H126.855V107.074H123.229V110H122.011V103H123.229V105.912H126.855V103ZM133.161 105.52C133.861 105.52 134.44 105.73 134.897 106.15C135.364 106.561 135.597 107.097 135.597 107.76C135.597 108.423 135.364 108.964 134.897 109.384C134.44 109.795 133.861 110 133.161 110H130.207V103H131.425V105.52H133.161ZM136.507 103H137.725V110H136.507V103ZM133.161 108.866C133.506 108.866 133.796 108.768 134.029 108.572C134.272 108.367 134.393 108.096 134.393 107.76C134.393 107.424 134.272 107.153 134.029 106.948C133.796 106.743 133.506 106.64 133.161 106.64H131.425V108.866H133.161ZM145.942 110H144.514L142.554 107.354L140.58 110H139.152L141.84 106.402L139.306 103H140.748L142.554 105.436L144.36 103H145.788L143.268 106.388L145.942 110ZM32.9059 118.818C33.8859 118.818 34.7212 119.177 35.4119 119.896C36.1025 120.605 36.4479 121.473 36.4479 122.5C36.4479 123.527 36.1025 124.399 35.4119 125.118C34.7212 125.827 33.8859 126.182 32.9059 126.182C31.7485 126.182 30.8665 125.72 30.2599 124.796V128.8H29.0419V119H30.2599V120.204C30.8665 119.28 31.7485 118.818 32.9059 118.818ZM32.7519 125.006C33.4519 125.006 34.0399 124.768 34.5159 124.292C34.9919 123.807 35.2299 123.209 35.2299 122.5C35.2299 121.791 34.9919 121.198 34.5159 120.722C34.0399 120.237 33.4519 119.994 32.7519 119.994C32.0425 119.994 31.4499 120.237 30.9739 120.722C30.4979 121.198 30.2599 121.791 30.2599 122.5C30.2599 123.209 30.4979 123.807 30.9739 124.292C31.4499 124.768 32.0425 125.006 32.7519 125.006ZM43.9772 119H45.1952V126H43.9772V124.796C43.3706 125.72 42.4886 126.182 41.3312 126.182C40.3512 126.182 39.5159 125.827 38.8252 125.118C38.1346 124.399 37.7892 123.527 37.7892 122.5C37.7892 121.473 38.1346 120.605 38.8252 119.896C39.5159 119.177 40.3512 118.818 41.3312 118.818C42.4886 118.818 43.3706 119.28 43.9772 120.204V119ZM41.4852 125.006C42.1946 125.006 42.7872 124.768 43.2632 124.292C43.7392 123.807 43.9772 123.209 43.9772 122.5C43.9772 121.791 43.7392 121.198 43.2632 120.722C42.7872 120.237 42.1946 119.994 41.4852 119.994C40.7852 119.994 40.1972 120.237 39.7212 120.722C39.2452 121.198 39.0072 121.791 39.0072 122.5C39.0072 123.209 39.2452 123.807 39.7212 124.292C40.1972 124.768 40.7852 125.006 41.4852 125.006ZM51.1006 122.416C51.8753 122.733 52.2626 123.289 52.2626 124.082C52.2626 124.67 52.0293 125.169 51.5626 125.58C51.0959 125.981 50.4333 126.182 49.5746 126.182C48.1746 126.182 47.2366 125.622 46.7606 124.502L47.7826 123.9C48.0533 124.665 48.6553 125.048 49.5886 125.048C50.0553 125.048 50.4146 124.95 50.6666 124.754C50.9279 124.549 51.0586 124.287 51.0586 123.97C51.0586 123.69 50.9513 123.461 50.7366 123.284C50.5313 123.107 50.2513 123.018 49.8966 123.018H48.8746V121.912H49.6306C49.9853 121.912 50.2606 121.828 50.4566 121.66C50.6526 121.483 50.7506 121.245 50.7506 120.946C50.7506 120.647 50.6339 120.405 50.4006 120.218C50.1766 120.031 49.8639 119.938 49.4626 119.938C48.6786 119.938 48.1466 120.269 47.8666 120.932L46.8726 120.358C47.3673 119.331 48.2306 118.818 49.4626 118.818C50.2279 118.818 50.8299 119.014 51.2686 119.406C51.7166 119.798 51.9406 120.279 51.9406 120.848C51.9406 121.557 51.6606 122.08 51.1006 122.416ZM57.7263 118.818C58.7063 118.818 59.5417 119.177 60.2323 119.896C60.923 120.605 61.2683 121.473 61.2683 122.5C61.2683 123.527 60.923 124.399 60.2323 125.118C59.5417 125.827 58.7063 126.182 57.7263 126.182C56.569 126.182 55.687 125.72 55.0803 124.796V128.8H53.8623V119H55.0803V120.204C55.687 119.28 56.569 118.818 57.7263 118.818ZM57.5723 125.006C58.2723 125.006 58.8603 124.768 59.3363 124.292C59.8123 123.807 60.0503 123.209 60.0503 122.5C60.0503 121.791 59.8123 121.198 59.3363 120.722C58.8603 120.237 58.2723 119.994 57.5723 119.994C56.863 119.994 56.2703 120.237 55.7943 120.722C55.3183 121.198 55.0803 121.791 55.0803 122.5C55.0803 123.209 55.3183 123.807 55.7943 124.292C56.2703 124.768 56.863 125.006 57.5723 125.006ZM68.7977 119H70.0157V126H68.7977V124.796C68.191 125.72 67.309 126.182 66.1517 126.182C65.1717 126.182 64.3364 125.827 63.6457 125.118C62.955 124.399 62.6097 123.527 62.6097 122.5C62.6097 121.473 62.955 120.605 63.6457 119.896C64.3364 119.177 65.1717 118.818 66.1517 118.818C67.309 118.818 68.191 119.28 68.7977 120.204V119ZM66.3057 125.006C67.015 125.006 67.6077 124.768 68.0837 124.292C68.5597 123.807 68.7977 123.209 68.7977 122.5C68.7977 121.791 68.5597 121.198 68.0837 120.722C67.6077 120.237 67.015 119.994 66.3057 119.994C65.6057 119.994 65.0177 120.237 64.5417 120.722C64.0657 121.198 63.8277 121.791 63.8277 122.5C63.8277 123.209 64.0657 123.807 64.5417 124.292C65.0177 124.768 65.6057 125.006 66.3057 125.006ZM75.3191 126.182C74.2831 126.182 73.4291 125.841 72.7571 125.16C72.0851 124.479 71.7491 123.601 71.7491 122.528C71.7491 121.333 71.9217 120.414 72.2671 119.77C72.6217 119.126 73.3404 118.543 74.4231 118.02C74.6191 117.927 74.8851 117.805 75.2211 117.656C75.5664 117.507 75.8184 117.395 75.9771 117.32C76.1357 117.236 76.3131 117.129 76.5091 116.998C76.7051 116.858 76.8497 116.709 76.9431 116.55C77.0457 116.382 77.1204 116.191 77.1671 115.976L78.1471 116.536C78.1191 116.685 78.0817 116.825 78.0351 116.956C77.9884 117.077 77.9184 117.199 77.8251 117.32C77.7411 117.432 77.6664 117.53 77.6011 117.614C77.5357 117.698 77.4237 117.791 77.2651 117.894C77.1157 117.987 77.0037 118.057 76.9291 118.104C76.8637 118.151 76.7284 118.221 76.5231 118.314C76.3271 118.407 76.1917 118.473 76.1171 118.51C76.0517 118.538 75.8977 118.603 75.6551 118.706C75.4124 118.799 75.2631 118.86 75.2071 118.888C74.5724 119.159 74.1057 119.434 73.8071 119.714C73.5177 119.994 73.3077 120.349 73.1771 120.778C73.4757 120.405 73.8491 120.129 74.2971 119.952C74.7451 119.775 75.1931 119.686 75.6411 119.686C76.5184 119.686 77.2604 119.985 77.8671 120.582C78.4831 121.179 78.7911 121.949 78.7911 122.892C78.7911 123.844 78.4644 124.633 77.8111 125.258C77.1577 125.874 76.3271 126.182 75.3191 126.182ZM73.6811 124.39C74.1197 124.801 74.6657 125.006 75.3191 125.006C75.9724 125.006 76.5091 124.805 76.9291 124.404C77.3584 124.003 77.5731 123.499 77.5731 122.892C77.5731 122.267 77.3677 121.758 76.9571 121.366C76.5557 120.965 76.0237 120.764 75.3611 120.764C74.7637 120.764 74.2224 120.955 73.7371 121.338C73.2611 121.711 73.0231 122.206 73.0231 122.822C73.0231 123.457 73.2424 123.979 73.6811 124.39ZM86.2724 125.118C85.5538 125.827 84.6811 126.182 83.6544 126.182C82.6278 126.182 81.7551 125.827 81.0364 125.118C80.3271 124.409 79.9724 123.536 79.9724 122.5C79.9724 121.464 80.3271 120.591 81.0364 119.882C81.7551 119.173 82.6278 118.818 83.6544 118.818C84.6811 118.818 85.5538 119.173 86.2724 119.882C86.9911 120.591 87.3504 121.464 87.3504 122.5C87.3504 123.536 86.9911 124.409 86.2724 125.118ZM83.6544 124.992C84.3544 124.992 84.9424 124.754 85.4184 124.278C85.8944 123.802 86.1324 123.209 86.1324 122.5C86.1324 121.791 85.8944 121.198 85.4184 120.722C84.9424 120.246 84.3544 120.008 83.6544 120.008C82.9638 120.008 82.3804 120.246 81.9044 120.722C81.4284 121.198 81.1904 121.791 81.1904 122.5C81.1904 123.209 81.4284 123.802 81.9044 124.278C82.3804 124.754 82.9638 124.992 83.6544 124.992ZM94.0009 119V120.176H91.6209V126H90.4029V120.176H88.0089V119H94.0009ZM99.8129 119H101.031V126H99.8129V123.48C99.2529 123.723 98.6229 123.844 97.9229 123.844C97.0269 123.844 96.3316 123.634 95.8369 123.214C95.3516 122.785 95.1089 122.155 95.1089 121.324V119H96.3269V121.254C96.3269 121.777 96.4669 122.15 96.7469 122.374C97.0363 122.598 97.4563 122.71 98.0069 122.71C98.6696 122.71 99.2716 122.589 99.8129 122.346V119ZM108.243 119H109.223V126H108.019V121.086L104.141 126H103.161V119H104.365V123.914L108.243 119ZM117.279 126H115.767L112.575 122.682V126H111.357V119H112.575V122.094L115.599 119H117.167L113.821 122.388L117.279 126ZM123.958 125.118C123.239 125.827 122.366 126.182 121.34 126.182C120.313 126.182 119.44 125.827 118.722 125.118C118.012 124.409 117.658 123.536 117.658 122.5C117.658 121.464 118.012 120.591 118.722 119.882C119.44 119.173 120.313 118.818 121.34 118.818C122.366 118.818 123.239 119.173 123.958 119.882C124.676 120.591 125.036 121.464 125.036 122.5C125.036 123.536 124.676 124.409 123.958 125.118ZM121.34 124.992C122.04 124.992 122.628 124.754 123.104 124.278C123.58 123.802 123.818 123.209 123.818 122.5C123.818 121.791 123.58 121.198 123.104 120.722C122.628 120.246 122.04 120.008 121.34 120.008C120.649 120.008 120.066 120.246 119.59 120.722C119.114 121.198 118.876 121.791 118.876 122.5C118.876 123.209 119.114 123.802 119.59 124.278C120.066 124.754 120.649 124.992 121.34 124.992ZM131.413 122.402C132.132 122.701 132.491 123.242 132.491 124.026C132.491 124.605 132.295 125.081 131.903 125.454C131.521 125.818 130.97 126 130.251 126H126.751V119H129.971C130.671 119 131.213 119.177 131.595 119.532C131.978 119.877 132.169 120.335 132.169 120.904C132.169 121.576 131.917 122.075 131.413 122.402ZM129.915 120.092H127.941V121.926H129.915C130.625 121.926 130.979 121.613 130.979 120.988C130.979 120.391 130.625 120.092 129.915 120.092ZM130.181 124.894C130.536 124.894 130.807 124.81 130.993 124.642C131.189 124.474 131.287 124.236 131.287 123.928C131.287 123.639 131.189 123.415 130.993 123.256C130.807 123.088 130.536 123.004 130.181 123.004H127.941V124.894H130.181Z" fill="black"/>
<path d="M80.6264 21.346H83.0264V25.442H80.6264V29.25H76.1784V25.442H65.5864V21.346L73.0424 6.85H77.7784L70.3544 21.346H76.1784V16.034H80.6264V21.346ZM83.5626 8.93L89.4506 6.85H93.2906V29.25H88.8746V11.522L84.6506 12.706L83.5626 8.93ZM64.9124 37.25H66.4004V45.25H65.0404V39.442L62.4964 43.538H62.3204L59.7764 39.442V45.25H58.4004V37.25H59.8884L62.4004 41.298L64.9124 37.25ZM76.5254 41.89H69.8214C69.96 42.594 70.2854 43.1487 70.7974 43.554C71.3094 43.9487 71.9494 44.146 72.7174 44.146C73.7734 44.146 74.5414 43.7567 75.0214 42.978L76.2054 43.65C75.416 44.8553 74.2427 45.458 72.6854 45.458C71.4267 45.458 70.392 45.0633 69.5814 44.274C68.792 43.4633 68.3974 42.4553 68.3974 41.25C68.3974 40.034 68.7867 39.0313 69.5654 38.242C70.344 37.442 71.352 37.042 72.5894 37.042C73.7627 37.042 74.7174 37.458 75.4534 38.29C76.2 39.1007 76.5734 40.0927 76.5734 41.266C76.5734 41.4687 76.5574 41.6767 76.5254 41.89ZM72.5894 38.354C71.8534 38.354 71.2347 38.562 70.7334 38.978C70.2427 39.394 69.9387 39.9593 69.8214 40.674H75.1654C75.048 39.938 74.7547 39.3673 74.2854 38.962C73.816 38.5567 73.2507 38.354 72.5894 38.354ZM82.2379 45.458C81.0325 45.458 80.0299 45.058 79.2299 44.258C78.4299 43.4473 78.0299 42.4447 78.0299 41.25C78.0299 40.0553 78.4299 39.058 79.2299 38.258C80.0299 37.4473 81.0325 37.042 82.2379 37.042C83.0272 37.042 83.7365 37.234 84.3659 37.618C84.9952 37.9913 85.4645 38.498 85.7739 39.138L84.6059 39.81C84.4032 39.3833 84.0885 39.042 83.6619 38.786C83.2459 38.53 82.7712 38.402 82.2379 38.402C81.4379 38.402 80.7659 38.674 80.2219 39.218C79.6885 39.7727 79.4219 40.45 79.4219 41.25C79.4219 42.0393 79.6885 42.7113 80.2219 43.266C80.7659 43.81 81.4379 44.082 82.2379 44.082C82.7712 44.082 83.2512 43.9593 83.6779 43.714C84.1045 43.458 84.4299 43.1167 84.6539 42.69L85.8379 43.378C85.4859 44.018 84.9899 44.5247 84.3499 44.898C83.7099 45.2713 83.0059 45.458 82.2379 45.458ZM86.5112 37.25H93.3593V38.594H90.6392V45.25H89.2472V38.594H86.5112V37.25ZM101.339 44.242C100.528 45.0527 99.5306 45.458 98.3466 45.458C97.1626 45.458 96.1653 45.0527 95.3546 44.242C94.544 43.4313 94.1386 42.434 94.1386 41.25C94.1386 40.066 94.544 39.0687 95.3546 38.258C96.1653 37.4473 97.1626 37.042 98.3466 37.042C99.5306 37.042 100.528 37.4473 101.339 38.258C102.16 39.0793 102.571 40.0767 102.571 41.25C102.571 42.4233 102.16 43.4207 101.339 44.242ZM98.3466 44.098C99.1466 44.098 99.8186 43.826 100.363 43.282C100.907 42.738 101.179 42.0607 101.179 41.25C101.179 40.4393 100.907 39.762 100.363 39.218C99.8186 38.674 99.1466 38.402 98.3466 38.402C97.5573 38.402 96.8906 38.674 96.3466 39.218C95.8026 39.762 95.5306 40.4393 95.5306 41.25C95.5306 42.0607 95.8026 42.738 96.3466 43.282C96.8906 43.826 97.5573 44.098 98.3466 44.098Z" fill="#0047B3"/>
</svg>
