<svg width="161" height="113" viewBox="0 0 161 113" fill="none" xmlns="http://www.w3.org/2000/svg">
<path d="M43.7954 68.8146C44.4635 64.1379 41.7914 57.4568 30.4336 56.1206C30.6563 58.5703 30.4333 62.8017 43.7954 68.8146Z" fill="#0047B3"/>
<path d="M44.4634 70.1509C44.4634 72.6006 42.9936 77.5 37.1143 77.5C37.1143 75.4957 38.5841 71.2198 44.4634 70.1509Z" fill="#0047B3"/>
<path d="M42.4596 69.4823C40.2325 71.2639 35.1104 74.1594 27.7612 71.487C29.7655 68.5918 35.5113 64.6719 42.4596 69.4823Z" fill="#0047B3"/>
<path d="M35.111 65.0616C32.4791 66.8414 26.4256 69.734 17.7402 67.0642C20.109 64.172 26.8994 60.256 35.111 65.0616Z" fill="#0047B3"/>
<path d="M25.7573 62.133C22.683 62.9353 16.3558 63.5331 9.05443 58.1245C13.7313 56.7887 19.6135 54.8681 25.7573 62.133Z" fill="#0047B3"/>
<path d="M7.0498 48.1037C10.3903 47.881 17.8731 49.1727 21.08 56.121C17.7395 56.3438 10.2567 55.0522 7.0498 48.1037Z" fill="#0047B3"/>
<path d="M16.4391 34.7542C18.4617 37.4221 21.4967 43.0465 17.4559 49.5453C15.4332 46.8775 12.3981 41.2532 16.4391 34.7542Z" fill="#0047B3"/>
<path d="M18.3203 21.3839C18.9645 24.6693 19.2186 31.0553 12.7325 35.1166C12.0883 31.8313 11.8341 25.4454 18.3203 21.3839Z" fill="#0047B3"/>
<path d="M5.3591 17.133C7.89751 18.8915 12.1715 22.9511 10.4937 29.8073C7.95525 28.0489 3.68115 23.9894 5.3591 17.133Z" fill="#0047B3"/>
<path d="M12.8688 8.02926C14.2984 11.0545 16.2427 17.1358 11.9222 22.3425C10.4926 19.3173 8.54814 13.236 12.8688 8.02926Z" fill="#0047B3"/>
<path d="M24.6998 9.7695C23.9503 13.0305 21.714 19.0105 15.0979 20.4263C15.8473 17.1653 18.0836 11.1853 24.6998 9.7695Z" fill="#0047B3"/>
<path d="M18.5386 1.34264C19.3747 3.86204 20.3235 8.83749 16.4222 12.5241C15.5861 10.0047 14.6372 5.02932 18.5386 1.34264Z" fill="#0047B3"/>
<path d="M27.8736 1.28874C27.334 3.88782 25.6607 8.66856 20.4369 9.90276C20.9765 7.30367 22.6496 2.52291 27.8736 1.28874Z" fill="#0047B3"/>
<path d="M1.51136 37.4338C4.46962 37.7132 10.8418 39.9077 12.6644 46.4506C9.70611 46.1713 3.33394 43.9769 1.51136 37.4338Z" fill="#0047B3"/>
<path d="M4.74771 28.2247C7.38759 29.5887 12.4792 34.0041 11.7264 40.7542C9.08651 39.3904 3.99488 34.975 4.74771 28.2247Z" fill="#0047B3"/>
<path d="M28.8787 61.7417C25.7835 60.1958 20.0597 56.0483 19.7689 46.7371C24.0534 47.4926 31.2537 51.8143 28.8787 61.7417Z" fill="#0047B3"/>
<path d="M56.3674 65.95H63.5774V67.798H60.9314V75.75H58.9994V67.798H56.3674V65.95ZM68.9005 69.576V68.75H70.7065V75.75H68.9005V74.924C68.3591 75.6053 67.5985 75.946 66.6185 75.946C65.6851 75.946 64.8825 75.5913 64.2105 74.882C63.5478 74.1633 63.2165 73.286 63.2165 72.25C63.2165 71.2233 63.5478 70.3507 64.2105 69.632C64.8825 68.9133 65.6851 68.554 66.6185 68.554C67.5985 68.554 68.3591 68.8947 68.9005 69.576ZM65.5685 73.678C65.9325 74.042 66.3945 74.224 66.9545 74.224C67.5145 74.224 67.9765 74.042 68.3405 73.678C68.7138 73.3047 68.9005 72.8287 68.9005 72.25C68.9005 71.6713 68.7138 71.2 68.3405 70.836C67.9765 70.4627 67.5145 70.276 66.9545 70.276C66.3945 70.276 65.9325 70.4627 65.5685 70.836C65.2045 71.2 65.0225 71.6713 65.0225 72.25C65.0225 72.8287 65.2045 73.3047 65.5685 73.678ZM77.9861 69.618V68.75H79.7501V75.414C79.7501 76.4873 79.3908 77.3133 78.6721 77.892C77.9628 78.4613 77.1041 78.746 76.0961 78.746C74.5095 78.746 73.4035 78.1767 72.7781 77.038L74.3181 76.156C74.6635 76.8093 75.2748 77.136 76.1521 77.136C76.7215 77.136 77.1695 76.9867 77.4961 76.688C77.8228 76.3893 77.9861 75.9647 77.9861 75.414V74.658C77.4541 75.3673 76.7075 75.722 75.7461 75.722C74.7568 75.722 73.9261 75.3767 73.2541 74.686C72.5915 73.9767 72.2601 73.1273 72.2601 72.138C72.2601 71.1487 72.5961 70.304 73.2681 69.604C73.9401 68.904 74.7661 68.554 75.7461 68.554C76.7075 68.554 77.4541 68.9087 77.9861 69.618ZM77.4261 73.524C77.7995 73.16 77.9861 72.698 77.9861 72.138C77.9861 71.578 77.7995 71.1253 77.4261 70.78C77.0621 70.416 76.5955 70.234 76.0261 70.234C75.4661 70.234 74.9948 70.416 74.6121 70.78C74.2481 71.1253 74.0661 71.578 74.0661 72.138C74.0661 72.698 74.2481 73.16 74.6121 73.524C74.9855 73.8787 75.4568 74.056 76.0261 74.056C76.5955 74.056 77.0621 73.8787 77.4261 73.524ZM83.4738 75.75H81.6678V65.53H83.4738V75.75ZM86.3028 67.91C86.0041 67.91 85.7428 67.8027 85.5188 67.588C85.3041 67.364 85.1968 67.1027 85.1968 66.804C85.1968 66.5053 85.3041 66.244 85.5188 66.02C85.7428 65.796 86.0041 65.684 86.3028 65.684C86.6108 65.684 86.8721 65.796 87.0868 66.02C87.3108 66.244 87.4228 66.5053 87.4228 66.804C87.4228 67.1027 87.3108 67.364 87.0868 67.588C86.8721 67.8027 86.6108 67.91 86.3028 67.91ZM87.2128 75.75H85.4068V68.75H87.2128V75.75ZM93.0378 68.554C93.8124 68.554 94.4424 68.8107 94.9278 69.324C95.4318 69.8467 95.6838 70.556 95.6838 71.452V75.75H93.8778V71.676C93.8778 71.2187 93.7518 70.864 93.4998 70.612C93.2571 70.36 92.9211 70.234 92.4918 70.234C92.0158 70.234 91.6378 70.3833 91.3578 70.682C91.0871 70.9713 90.9518 71.4007 90.9518 71.97V75.75H89.1458V68.75H90.9518V69.534C91.3811 68.8807 92.0764 68.554 93.0378 68.554ZM104.31 72.992H99.0318C99.2652 73.8693 99.9232 74.308 101.006 74.308C101.697 74.308 102.219 74.0747 102.574 73.608L104.03 74.448C103.339 75.4467 102.322 75.946 100.978 75.946C99.8205 75.946 98.8918 75.596 98.1918 74.896C97.4918 74.196 97.1418 73.314 97.1418 72.25C97.1418 71.2047 97.4872 70.3273 98.1778 69.618C98.8592 68.9087 99.7458 68.554 100.838 68.554C101.874 68.554 102.719 68.9087 103.372 69.618C104.044 70.3273 104.38 71.2047 104.38 72.25C104.38 72.446 104.357 72.6933 104.31 72.992ZM99.0038 71.592H102.574C102.471 71.1347 102.261 70.7847 101.944 70.542C101.636 70.2993 101.267 70.178 100.838 70.178C100.353 70.178 99.9512 70.304 99.6338 70.556C99.3165 70.7987 99.1065 71.144 99.0038 71.592Z" fill="black"/>
<path d="M117.567 68.8146C116.899 64.1379 119.571 57.4568 130.929 56.1206C130.706 58.5703 130.929 62.8017 117.567 68.8146Z" fill="#0047B3"/>
<path d="M116.899 70.1509C116.899 72.6006 118.369 77.5 124.248 77.5C124.248 75.4957 122.778 71.2198 116.899 70.1509Z" fill="#0047B3"/>
<path d="M118.903 69.4823C121.13 71.2639 126.252 74.1594 133.601 71.487C131.597 68.5918 125.851 64.6719 118.903 69.4823Z" fill="#0047B3"/>
<path d="M126.251 65.0618C128.883 66.8417 134.937 69.7343 143.622 67.0645C141.253 64.1723 134.463 60.2563 126.251 65.0618Z" fill="#0047B3"/>
<path d="M135.605 62.133C138.679 62.9353 145.006 63.5331 152.308 58.1245C147.631 56.7887 141.749 54.8681 135.605 62.133Z" fill="#0047B3"/>
<path d="M154.312 48.1037C150.972 47.881 143.489 49.1727 140.282 56.121C143.623 56.3438 151.106 55.0522 154.312 48.1037Z" fill="#0047B3"/>
<path d="M144.923 34.7542C142.901 37.4221 139.866 43.0465 143.906 49.5453C145.929 46.8775 148.964 41.2532 144.923 34.7542Z" fill="#0047B3"/>
<path d="M143.042 21.3839C142.398 24.6693 142.144 31.0553 148.63 35.1166C149.274 31.8313 149.528 25.4454 143.042 21.3839Z" fill="#0047B3"/>
<path d="M156.004 17.133C153.465 18.8915 149.191 22.9511 150.869 29.8073C153.408 28.0489 157.682 23.9894 156.004 17.133Z" fill="#0047B3"/>
<path d="M148.493 8.02926C147.064 11.0545 145.12 17.1358 149.44 22.3425C150.87 19.3173 152.814 13.236 148.493 8.02926Z" fill="#0047B3"/>
<path d="M136.663 9.7695C137.412 13.0305 139.648 19.0105 146.264 20.4263C145.515 17.1653 143.279 11.1853 136.663 9.7695Z" fill="#0047B3"/>
<path d="M142.824 1.34264C141.988 3.86204 141.039 8.83749 144.94 12.5241C145.776 10.0047 146.725 5.02932 142.824 1.34264Z" fill="#0047B3"/>
<path d="M133.489 1.28874C134.028 3.88782 135.702 8.66856 140.925 9.90276C140.386 7.30367 138.713 2.52291 133.489 1.28874Z" fill="#0047B3"/>
<path d="M159.851 37.4338C156.893 37.7132 150.521 39.9077 148.698 46.4506C151.656 46.1713 158.028 43.9769 159.851 37.4338Z" fill="#0047B3"/>
<path d="M156.615 28.2247C153.975 29.5887 148.883 34.0041 149.636 40.7542C152.276 39.3904 157.367 34.975 156.615 28.2247Z" fill="#0047B3"/>
<path d="M132.484 61.7417C135.579 60.1958 141.303 56.0483 141.593 46.7371C137.309 47.4926 130.109 51.8143 132.484 61.7417Z" fill="#0047B3"/>
<path d="M11.0606 100.2C11.9659 100.2 12.7173 100.503 13.3146 101.11C13.9213 101.707 14.2246 102.454 14.2246 103.35C14.2246 104.237 13.9213 104.983 13.3146 105.59C12.7173 106.197 11.9659 106.5 11.0606 106.5H8.80661V110H7.50461V100.2H11.0606ZM11.0606 105.282C11.6019 105.282 12.0499 105.1 12.4046 104.736C12.7593 104.363 12.9366 103.901 12.9366 103.35C12.9366 102.79 12.7593 102.328 12.4046 101.964C12.0499 101.6 11.6019 101.418 11.0606 101.418H8.80661V105.282H11.0606ZM16.2372 107.06C16.3586 107.685 16.6432 108.171 17.0912 108.516C17.5486 108.861 18.1086 109.034 18.7712 109.034C19.6952 109.034 20.3672 108.693 20.7872 108.012L21.8232 108.6C21.1419 109.655 20.1152 110.182 18.7432 110.182C17.6326 110.182 16.7272 109.837 16.0272 109.146C15.3366 108.446 14.9912 107.564 14.9912 106.5C14.9912 105.445 15.3319 104.568 16.0132 103.868C16.6946 103.168 17.5766 102.818 18.6592 102.818C19.6859 102.818 20.5212 103.182 21.1652 103.91C21.8186 104.629 22.1452 105.497 22.1452 106.514C22.1452 106.691 22.1312 106.873 22.1032 107.06H16.2372ZM18.6592 103.966C18.0059 103.966 17.4646 104.153 17.0352 104.526C16.6059 104.89 16.3399 105.38 16.2372 105.996H20.9132C20.8106 105.333 20.5492 104.829 20.1292 104.484C19.7092 104.139 19.2192 103.966 18.6592 103.966ZM24.9733 101.95V100.886H28.7533V101.95H24.9733ZM28.9073 103H29.8873V110H28.6833V105.086L24.8053 110H23.8253V103H25.0293V107.914L28.9073 103ZM37.2293 103V104.176H34.8493V110H33.6313V104.176H31.2373V103H37.2293ZM43.6587 103H44.6387V110H43.4347V105.086L39.5567 110H38.5767V103H39.7807V107.914L43.6587 103ZM51.6168 103H52.8348V110H51.6168V107.074H47.9908V110H46.7728V103H47.9908V105.912H51.6168V103ZM59.5608 103V104.176H56.1868V110H54.9688V103H59.5608ZM70.4849 103H71.7029V110H70.4849V108.796C69.8783 109.72 68.9963 110.182 67.8389 110.182C66.8589 110.182 66.0236 109.827 65.3329 109.118C64.6423 108.399 64.2969 107.527 64.2969 106.5C64.2969 105.473 64.6423 104.605 65.3329 103.896C66.0236 103.177 66.8589 102.818 67.8389 102.818C68.9963 102.818 69.8783 103.28 70.4849 104.204V103ZM67.9929 109.006C68.7023 109.006 69.2949 108.768 69.7709 108.292C70.2469 107.807 70.4849 107.209 70.4849 106.5C70.4849 105.791 70.2469 105.198 69.7709 104.722C69.2949 104.237 68.7023 103.994 67.9929 103.994C67.2929 103.994 66.7049 104.237 66.2289 104.722C65.7529 105.198 65.5149 105.791 65.5149 106.5C65.5149 107.209 65.7529 107.807 66.2289 108.292C66.7049 108.768 67.2929 109.006 67.9929 109.006ZM78.7143 103H80.0163L77.1603 110.434C76.8616 111.227 76.4416 111.829 75.9003 112.24C75.359 112.66 74.743 112.847 74.0523 112.8V111.666C74.911 111.731 75.541 111.265 75.9423 110.266L76.0543 110.014L73.0163 103H74.3043L76.6983 108.488L78.7143 103ZM86.5624 103V104.176H84.1824V110H82.9644V104.176H80.5704V103H86.5624ZM90.9263 110.182C89.8717 110.182 88.9943 109.832 88.2943 109.132C87.5943 108.423 87.2443 107.545 87.2443 106.5C87.2443 105.455 87.5943 104.582 88.2943 103.882C88.9943 103.173 89.8717 102.818 90.9263 102.818C91.617 102.818 92.2377 102.986 92.7883 103.322C93.339 103.649 93.7497 104.092 94.0203 104.652L92.9983 105.24C92.821 104.867 92.5457 104.568 92.1723 104.344C91.8083 104.12 91.393 104.008 90.9263 104.008C90.2263 104.008 89.6383 104.246 89.1623 104.722C88.6957 105.198 88.4623 105.791 88.4623 106.5C88.4623 107.2 88.6957 107.788 89.1623 108.264C89.6383 108.74 90.2263 108.978 90.9263 108.978C91.393 108.978 91.813 108.871 92.1863 108.656C92.5597 108.432 92.8443 108.133 93.0403 107.76L94.0763 108.362C93.7777 108.913 93.3483 109.356 92.7883 109.692C92.2283 110.019 91.6077 110.182 90.9263 110.182ZM101.371 109.118C100.653 109.827 99.7799 110.182 98.7532 110.182C97.7266 110.182 96.8539 109.827 96.1352 109.118C95.4259 108.409 95.0712 107.536 95.0712 106.5C95.0712 105.464 95.4259 104.591 96.1352 103.882C96.8539 103.173 97.7266 102.818 98.7532 102.818C99.7799 102.818 100.653 103.173 101.371 103.882C102.09 104.591 102.449 105.464 102.449 106.5C102.449 107.536 102.09 108.409 101.371 109.118ZM98.7532 108.992C99.4532 108.992 100.041 108.754 100.517 108.278C100.993 107.802 101.231 107.209 101.231 106.5C101.231 105.791 100.993 105.198 100.517 104.722C100.041 104.246 99.4532 104.008 98.7532 104.008C98.0626 104.008 97.4792 104.246 97.0032 104.722C96.5272 105.198 96.2892 105.791 96.2892 106.5C96.2892 107.209 96.5272 107.802 97.0032 108.278C97.4792 108.754 98.0626 108.992 98.7532 108.992ZM108.029 102.818C109.009 102.818 109.844 103.177 110.535 103.896C111.226 104.605 111.571 105.473 111.571 106.5C111.571 107.527 111.226 108.399 110.535 109.118C109.844 109.827 109.009 110.182 108.029 110.182C106.872 110.182 105.99 109.72 105.383 108.796V112.8H104.165V103H105.383V104.204C105.99 103.28 106.872 102.818 108.029 102.818ZM107.875 109.006C108.575 109.006 109.163 108.768 109.639 108.292C110.115 107.807 110.353 107.209 110.353 106.5C110.353 105.791 110.115 105.198 109.639 104.722C109.163 104.237 108.575 103.994 107.875 103.994C107.166 103.994 106.573 104.237 106.097 104.722C105.621 105.198 105.383 105.791 105.383 106.5C105.383 107.209 105.621 107.807 106.097 108.292C106.573 108.768 107.166 109.006 107.875 109.006ZM116.594 110.182C115.54 110.182 114.662 109.832 113.962 109.132C113.262 108.423 112.912 107.545 112.912 106.5C112.912 105.455 113.262 104.582 113.962 103.882C114.662 103.173 115.54 102.818 116.594 102.818C117.285 102.818 117.906 102.986 118.456 103.322C119.007 103.649 119.418 104.092 119.688 104.652L118.666 105.24C118.489 104.867 118.214 104.568 117.84 104.344C117.476 104.12 117.061 104.008 116.594 104.008C115.894 104.008 115.306 104.246 114.83 104.722C114.364 105.198 114.13 105.791 114.13 106.5C114.13 107.2 114.364 107.788 114.83 108.264C115.306 108.74 115.894 108.978 116.594 108.978C117.061 108.978 117.481 108.871 117.854 108.656C118.228 108.432 118.512 108.133 118.708 107.76L119.744 108.362C119.446 108.913 119.016 109.356 118.456 109.692C117.896 110.019 117.276 110.182 116.594 110.182ZM121.985 107.06C122.107 107.685 122.391 108.171 122.839 108.516C123.297 108.861 123.857 109.034 124.519 109.034C125.443 109.034 126.115 108.693 126.535 108.012L127.571 108.6C126.89 109.655 125.863 110.182 124.491 110.182C123.381 110.182 122.475 109.837 121.775 109.146C121.085 108.446 120.739 107.564 120.739 106.5C120.739 105.445 121.08 104.568 121.761 103.868C122.443 103.168 123.325 102.818 124.407 102.818C125.434 102.818 126.269 103.182 126.913 103.91C127.567 104.629 127.893 105.497 127.893 106.514C127.893 106.691 127.879 106.873 127.851 107.06H121.985ZM124.407 103.966C123.754 103.966 123.213 104.153 122.783 104.526C122.354 104.89 122.088 105.38 121.985 105.996H126.661C126.559 105.333 126.297 104.829 125.877 104.484C125.457 104.139 124.967 103.966 124.407 103.966ZM133.437 102.818C134.417 102.818 135.253 103.177 135.943 103.896C136.634 104.605 136.979 105.473 136.979 106.5C136.979 107.527 136.634 108.399 135.943 109.118C135.253 109.827 134.417 110.182 133.437 110.182C132.28 110.182 131.398 109.72 130.791 108.796V112.8H129.573V103H130.791V104.204C131.398 103.28 132.28 102.818 133.437 102.818ZM133.283 109.006C133.983 109.006 134.571 108.768 135.047 108.292C135.523 107.807 135.761 107.209 135.761 106.5C135.761 105.791 135.523 105.198 135.047 104.722C134.571 104.237 133.983 103.994 133.283 103.994C132.574 103.994 131.981 104.237 131.505 104.722C131.029 105.198 130.791 105.791 130.791 106.5C130.791 107.209 131.029 107.807 131.505 108.292C131.981 108.768 132.574 109.006 133.283 109.006ZM144.621 109.118C143.902 109.827 143.029 110.182 142.003 110.182C140.976 110.182 140.103 109.827 139.385 109.118C138.675 108.409 138.321 107.536 138.321 106.5C138.321 105.464 138.675 104.591 139.385 103.882C140.103 103.173 140.976 102.818 142.003 102.818C143.029 102.818 143.902 103.173 144.621 103.882C145.339 104.591 145.699 105.464 145.699 106.5C145.699 107.536 145.339 108.409 144.621 109.118ZM142.003 108.992C142.703 108.992 143.291 108.754 143.767 108.278C144.243 107.802 144.481 107.209 144.481 106.5C144.481 105.791 144.243 105.198 143.767 104.722C143.291 104.246 142.703 104.008 142.003 104.008C141.312 104.008 140.729 104.246 140.253 104.722C139.777 105.198 139.539 105.791 139.539 106.5C139.539 107.209 139.777 107.802 140.253 108.278C140.729 108.754 141.312 108.992 142.003 108.992ZM152.077 106.402C152.795 106.701 153.155 107.242 153.155 108.026C153.155 108.605 152.959 109.081 152.567 109.454C152.184 109.818 151.633 110 150.915 110H147.415V103H150.635C151.335 103 151.876 103.177 152.259 103.532C152.641 103.877 152.833 104.335 152.833 104.904C152.833 105.576 152.581 106.075 152.077 106.402ZM150.579 104.092H148.605V105.926H150.579C151.288 105.926 151.643 105.613 151.643 104.988C151.643 104.391 151.288 104.092 150.579 104.092ZM150.845 108.894C151.199 108.894 151.47 108.81 151.657 108.642C151.853 108.474 151.951 108.236 151.951 107.928C151.951 107.639 151.853 107.415 151.657 107.256C151.47 107.088 151.199 107.004 150.845 107.004H148.605V108.894H150.845Z" fill="black"/>
<path d="M78.668 10.498L74.476 15.938C76.0333 16.386 77.2707 17.1753 78.188 18.306C79.1267 19.4367 79.596 20.7807 79.596 22.338C79.596 24.642 78.8173 26.4447 77.26 27.746C75.7453 29.0473 73.8573 29.698 71.596 29.698C69.8253 29.698 68.2573 29.2927 66.892 28.482C65.5267 27.65 64.5347 26.4767 63.916 24.962L67.692 22.786C68.2253 24.514 69.5267 25.378 71.596 25.378C72.7267 25.378 73.6013 25.1113 74.22 24.578C74.86 24.0233 75.18 23.2767 75.18 22.338C75.18 21.4207 74.86 20.6847 74.22 20.13C73.6013 19.5753 72.7267 19.298 71.596 19.298H70.636L68.94 16.738L73.356 10.978H64.588V6.85H78.668V10.498ZM97.0925 14.178C97.0925 15.906 96.6445 17.4207 95.7485 18.722H95.7805L88.8045 29.25H83.7485L88.7405 21.954C86.4152 21.9327 84.5165 21.1967 83.0445 19.746C81.5938 18.2953 80.8685 16.4393 80.8685 14.178C80.8685 11.874 81.6152 10.0073 83.1085 8.578C84.6232 7.12733 86.5752 6.402 88.9645 6.402C91.3538 6.402 93.3058 7.12733 94.8205 8.578C96.3352 10.0287 97.0925 11.8953 97.0925 14.178ZM85.2525 14.178C85.2525 15.266 85.6045 16.1513 86.3085 16.834C87.0125 17.4953 87.8978 17.826 88.9645 17.826C90.0738 17.826 90.9698 17.4953 91.6525 16.834C92.3565 16.1513 92.7085 15.266 92.7085 14.178C92.7085 13.09 92.3565 12.2153 91.6525 11.554C90.9698 10.8927 90.0738 10.562 88.9645 10.562C87.8978 10.562 87.0125 10.9033 86.3085 11.586C85.6045 12.2473 85.2525 13.1113 85.2525 14.178ZM65.1624 37.25H66.6504V45.25H65.2904V39.442L62.7464 43.538H62.5704L60.0264 39.442V45.25H58.6504V37.25H60.1384L62.6504 41.298L65.1624 37.25ZM76.7754 41.89H70.0714C70.21 42.594 70.5354 43.1487 71.0474 43.554C71.5594 43.9487 72.1994 44.146 72.9674 44.146C74.0234 44.146 74.7914 43.7567 75.2714 42.978L76.4554 43.65C75.666 44.8553 74.4927 45.458 72.9354 45.458C71.6767 45.458 70.642 45.0633 69.8314 44.274C69.042 43.4633 68.6474 42.4553 68.6474 41.25C68.6474 40.034 69.0367 39.0313 69.8154 38.242C70.594 37.442 71.602 37.042 72.8394 37.042C74.0127 37.042 74.9674 37.458 75.7034 38.29C76.45 39.1007 76.8234 40.0927 76.8234 41.266C76.8234 41.4687 76.8074 41.6767 76.7754 41.89ZM72.8394 38.354C72.1034 38.354 71.4847 38.562 70.9834 38.978C70.4927 39.394 70.1887 39.9593 70.0714 40.674H75.4154C75.298 39.938 75.0047 39.3673 74.5354 38.962C74.066 38.5567 73.5007 38.354 72.8394 38.354ZM82.4879 45.458C81.2825 45.458 80.2799 45.058 79.4799 44.258C78.6799 43.4473 78.2799 42.4447 78.2799 41.25C78.2799 40.0553 78.6799 39.058 79.4799 38.258C80.2799 37.4473 81.2825 37.042 82.4879 37.042C83.2772 37.042 83.9865 37.234 84.6159 37.618C85.2452 37.9913 85.7145 38.498 86.0239 39.138L84.8559 39.81C84.6532 39.3833 84.3385 39.042 83.9119 38.786C83.4959 38.53 83.0212 38.402 82.4879 38.402C81.6879 38.402 81.0159 38.674 80.4719 39.218C79.9385 39.7727 79.6719 40.45 79.6719 41.25C79.6719 42.0393 79.9385 42.7113 80.4719 43.266C81.0159 43.81 81.6879 44.082 82.4879 44.082C83.0212 44.082 83.5012 43.9593 83.9279 43.714C84.3545 43.458 84.6799 43.1167 84.9039 42.69L86.0879 43.378C85.7359 44.018 85.2399 44.5247 84.5999 44.898C83.9599 45.2713 83.2559 45.458 82.4879 45.458ZM86.7612 37.25H93.6093V38.594H90.8892V45.25H89.4972V38.594H86.7612V37.25ZM101.589 44.242C100.778 45.0527 99.7806 45.458 98.5966 45.458C97.4126 45.458 96.4153 45.0527 95.6046 44.242C94.794 43.4313 94.3886 42.434 94.3886 41.25C94.3886 40.066 94.794 39.0687 95.6046 38.258C96.4153 37.4473 97.4126 37.042 98.5966 37.042C99.7806 37.042 100.778 37.4473 101.589 38.258C102.41 39.0793 102.821 40.0767 102.821 41.25C102.821 42.4233 102.41 43.4207 101.589 44.242ZM98.5966 44.098C99.3966 44.098 100.069 43.826 100.613 43.282C101.157 42.738 101.429 42.0607 101.429 41.25C101.429 40.4393 101.157 39.762 100.613 39.218C100.069 38.674 99.3966 38.402 98.5966 38.402C97.8073 38.402 97.1406 38.674 96.5966 39.218C96.0526 39.762 95.7806 40.4393 95.7806 41.25C95.7806 42.0607 96.0526 42.738 96.5966 43.282C97.1406 43.826 97.8073 44.098 98.5966 44.098Z" fill="#0047B3"/>
</svg>
